<?xml version="1.0" encoding="utf-8"?>
<!-- Generator: Adobe Illustrator 16.0.0, SVG Export Plug-In . SVG Version: 6.00 Build 0)  -->
<!DOCTYPE svg PUBLIC "-//W3C//DTD SVG 1.1//EN" "http://www.w3.org/Graphics/SVG/1.1/DTD/svg11.dtd">
<svg version="1.1" id="Layer_1" xmlns="http://www.w3.org/2000/svg" xmlns:xlink="http://www.w3.org/1999/xlink" x="0px" y="0px"
	 width="25px" height="25px" viewBox="0 0 25 25" enable-background="new 0 0 25 25" xml:space="preserve">
<g>
	<g>
		<path fill="#667C80" d="M12.5,25C5.607,25,0,19.393,0,12.5S5.607,0,12.5,0S25,5.607,25,12.5S19.393,25,12.5,25z M12.5,1.19
			C6.264,1.19,1.19,6.264,1.19,12.5S6.264,23.81,12.5,23.81s11.31-5.074,11.31-11.31S18.736,1.19,12.5,1.19z"/>
	</g>
	<g>
		<g>
			<path fill="#667C80" d="M13.218,18.294H7.153c-0.247,0-0.446-0.2-0.446-0.447v-6.065c0-0.247,0.2-0.447,0.446-0.447
				s0.446,0.2,0.446,0.447v5.619h5.619c0.247,0,0.447,0.2,0.447,0.446C13.665,18.094,13.465,18.294,13.218,18.294z"/>
		</g>
		<g>
			<path fill="#667C80" d="M17.847,13.665c-0.247,0-0.446-0.2-0.446-0.447V7.599h-5.619c-0.247,0-0.447-0.2-0.447-0.446
				s0.2-0.446,0.447-0.446h6.065c0.247,0,0.446,0.2,0.446,0.446v6.065C18.293,13.465,18.094,13.665,17.847,13.665z"/>
		</g>
	</g>
</g>
</svg>
