<?xml version="1.0" encoding="utf-8"?>
<!-- Generator: Adobe Illustrator 16.0.0, SVG Export Plug-In . SVG Version: 6.00 Build 0)  -->
<!DOCTYPE svg PUBLIC "-//W3C//DTD SVG 1.1//EN" "http://www.w3.org/Graphics/SVG/1.1/DTD/svg11.dtd">
<svg version="1.1" id="Layer_1" xmlns="http://www.w3.org/2000/svg" xmlns:xlink="http://www.w3.org/1999/xlink" x="0px" y="0px"
	 width="25px" height="25px" viewBox="0 0 25 25" enable-background="new 0 0 25 25" xml:space="preserve">
<g>
	<g>
		<path fill="#667C80" d="M12.5,25C5.607,25,0,19.411,0,12.542c0-6.871,5.607-12.46,12.5-12.46S25,5.671,25,12.542
			C25,19.411,19.393,25,12.5,25z M12.5,1.041C6.138,1.041,0.961,6.2,0.961,12.542c0,6.34,5.176,11.5,11.539,11.5
			s11.539-5.16,11.539-11.5C24.039,6.2,18.862,1.041,12.5,1.041z"/>
	</g>
	<g>
		<g>
			<g>
				<path fill="#667C80" d="M12.5,24.917C5.607,24.917,0,19.329,0,12.458C0,5.589,5.607,0,12.5,0S25,5.589,25,12.458
					C25,19.329,19.393,24.917,12.5,24.917z M12.5,0.959c-6.362,0-11.539,5.159-11.539,11.499c0,6.342,5.176,11.501,11.539,11.501
					S24.039,18.8,24.039,12.458C24.039,6.118,18.862,0.959,12.5,0.959z"/>
			</g>
		</g>
		<g>
			<path fill="#667C80" d="M22.184,18.869H3.036c-0.169,0-0.327-0.089-0.413-0.235c-0.087-0.145-0.09-0.324-0.009-0.473
				l9.471-17.339c0.084-0.154,0.281-0.275,0.422-0.25c0.175,0,0.335,0.094,0.42,0.246l9.676,17.339
				c0.083,0.148,0.081,0.328-0.005,0.475S22.354,18.869,22.184,18.869z M3.845,17.91h17.521L12.512,2.045L3.845,17.91z"/>
		</g>
		<g>
			<path fill="#667C80" d="M12.525,15.11c-4.027,0-4.66-2.436-4.685-2.539c-0.028-0.115-0.012-0.237,0.045-0.342
				c0.054-0.099,1.36-2.422,4.64-2.422c3.341,0,4.674,2.32,4.729,2.418c0.056,0.102,0.074,0.219,0.05,0.333
				C17.282,12.663,16.712,15.11,12.525,15.11z M8.841,12.517c0.21,0.451,1.018,1.635,3.684,1.635c2.778,0,3.574-1.177,3.777-1.628
				c-0.34-0.472-1.478-1.757-3.777-1.757C10.289,10.767,9.177,12.042,8.841,12.517z"/>
		</g>
		<g>
			<path fill="#667C80" d="M12.525,13.289c-1.408,0-2.613-0.953-2.933-2.317l0.936-0.217c0.218,0.928,1.038,1.576,1.997,1.576
				c0.97,0,1.814-0.686,2.009-1.631l0.942,0.192C15.191,12.281,13.95,13.289,12.525,13.289z"/>
		</g>
	</g>
</g>
</svg>
