<?xml version="1.0" encoding="utf-8"?>
<!-- Generator: Adobe Illustrator 16.0.0, SVG Export Plug-In . SVG Version: 6.00 Build 0)  -->
<!DOCTYPE svg PUBLIC "-//W3C//DTD SVG 1.1//EN" "http://www.w3.org/Graphics/SVG/1.1/DTD/svg11.dtd">
<svg version="1.1" id="Layer_1" xmlns="http://www.w3.org/2000/svg" xmlns:xlink="http://www.w3.org/1999/xlink" x="0px" y="0px"
	 width="25px" height="25px" viewBox="0 0 25 25" enable-background="new 0 0 25 25" xml:space="preserve">
<g>
	<path fill="#505860" d="M10.995,20.403h-1c0-0.651,0.594-1.375,1.125-1.587c2.896-1.154,5.856-2.807,5.856-6.316
		c0-3.511-2.96-5.163-5.855-6.316c-0.532-0.212-1.126-0.936-1.126-1.587h1c0,0.175,0.277,0.571,0.497,0.658
		c3.207,1.277,6.485,3.136,6.485,7.245c0,4.107-3.278,5.967-6.485,7.245C11.272,19.832,10.995,20.228,10.995,20.403z"/>
</g>
<g>
	<rect x="11.429" y="5.975" fill="#505860" width="1" height="13.049"/>
</g>
<g>
	<rect x="9.091" y="12" fill="#505860" width="12.562" height="1"/>
</g>
<g>
	<polygon fill="#505860" points="20.026,14.55 19.383,13.786 20.876,12.528 19.383,11.271 20.026,10.506 22.429,12.528 	"/>
</g>
<g>
	<path fill="#505860" d="M8.306,14.233H3.051l1.431-1.731l-1.443-1.714h5.265l1.439,1.708L8.306,14.233z M5.175,13.233h2.66
		l0.604-0.731l-0.602-0.714h-2.65l0.597,0.708L5.175,13.233z"/>
</g>
<g>
	<g>
		<path fill="#505860" d="M12.5,25C5.607,25,0,19.393,0,12.5S5.607,0,12.5,0S25,5.607,25,12.5S19.393,25,12.5,25z M12.5,0.961
			C6.138,0.961,0.962,6.139,0.962,12.5c0,6.363,5.176,11.539,11.538,11.539S24.039,18.863,24.039,12.5
			C24.039,6.139,18.862,0.961,12.5,0.961z"/>
	</g>
</g>
<g>
	<path fill="none" d="M21.308,4.326"/>
</g>
<g>
	<path fill="none" d="M4.325,21.309"/>
</g>
</svg>
