<?xml version="1.0" encoding="utf-8"?>
<!-- Generator: Adobe Illustrator 16.0.0, SVG Export Plug-In . SVG Version: 6.00 Build 0)  -->
<!DOCTYPE svg PUBLIC "-//W3C//DTD SVG 1.1//EN" "http://www.w3.org/Graphics/SVG/1.1/DTD/svg11.dtd">
<svg version="1.1" id="Layer_1" xmlns="http://www.w3.org/2000/svg" xmlns:xlink="http://www.w3.org/1999/xlink" x="0px" y="0px"
	 width="116.016px" height="109.575px" viewBox="0 0 116.016 109.575" enable-background="new 0 0 116.016 109.575"
	 xml:space="preserve">
<g>
	<g>
		<path fill="#FFFFFF" d="M57.519,63c-17.369,0-31.5-14.131-31.5-31.501c0-17.369,14.131-31.5,31.5-31.5s31.5,14.13,31.5,31.5
			C89.019,48.87,74.888,63,57.519,63z M57.519,3c-15.715,0-28.5,12.785-28.5,28.5C29.019,47.215,41.804,60,57.519,60
			s28.5-12.785,28.5-28.501C86.019,15.785,73.233,3,57.519,3z"/>
	</g>
	<g>
		<g>
			<path fill="#FFFFFF" d="M57.519,47.121c-0.384,0-0.768-0.146-1.061-0.439L43.471,33.694c-0.586-0.586-0.586-1.535,0-2.121
				s1.535-0.586,2.121,0L57.519,43.5l11.927-11.927c0.586-0.586,1.535-0.586,2.121,0s0.586,1.535,0,2.121L58.579,46.681
				C58.286,46.974,57.902,47.121,57.519,47.121z"/>
		</g>
		<g>
			<path fill="#FFFFFF" d="M57.519,35.867c-0.384,0-0.768-0.146-1.061-0.439L43.471,22.44c-0.586-0.586-0.586-1.535,0-2.121
				s1.535-0.586,2.121,0l11.927,11.927l11.927-11.927c0.586-0.586,1.535-0.586,2.121,0s0.586,1.535,0,2.121L58.579,35.427
				C58.286,35.72,57.902,35.867,57.519,35.867z"/>
		</g>
	</g>
</g>
<g>
	<g>
		<path fill="#FFFFFF" d="M0,95.761c0.848-0.128,1.857-0.224,2.961-0.224c2.002,0,3.426,0.464,4.371,1.344
			c0.959,0.881,1.52,2.129,1.52,3.874c0,1.761-0.545,3.201-1.553,4.194c-1.008,1.008-2.672,1.552-4.77,1.552
			c-0.992,0-1.824-0.048-2.529-0.128V95.761z M1.393,105.301c0.352,0.064,0.865,0.08,1.408,0.08c2.979,0,4.594-1.664,4.594-4.578
			c0.018-2.545-1.424-4.161-4.369-4.161c-0.721,0-1.264,0.063-1.633,0.144V105.301z"/>
	</g>
	<g>
		<path fill="#FFFFFF" d="M11.457,102.789c0.031,1.904,1.248,2.688,2.656,2.688c1.008,0,1.617-0.176,2.145-0.4l0.24,1.009
			c-0.496,0.225-1.344,0.48-2.576,0.48c-2.385,0-3.811-1.569-3.811-3.905c0-2.338,1.377-4.178,3.635-4.178
			c2.527,0,3.201,2.225,3.201,3.649c0,0.288-0.033,0.512-0.049,0.656H11.457z M15.586,101.78c0.016-0.896-0.369-2.289-1.953-2.289
			c-1.424,0-2.049,1.312-2.16,2.289H15.586z"/>
	</g>
	<g>
		<path fill="#FFFFFF" d="M18.496,104.965c0.416,0.271,1.152,0.561,1.855,0.561c1.025,0,1.506-0.513,1.506-1.152
			c0-0.673-0.4-1.041-1.441-1.426c-1.393-0.496-2.049-1.264-2.049-2.192c0-1.248,1.008-2.272,2.674-2.272
			c0.783,0,1.473,0.224,1.904,0.479l-0.352,1.024c-0.305-0.191-0.865-0.447-1.586-0.447c-0.832,0-1.295,0.479-1.295,1.056
			c0,0.641,0.463,0.929,1.471,1.312c1.346,0.513,2.033,1.185,2.033,2.337c0,1.361-1.057,2.321-2.896,2.321
			c-0.848,0-1.633-0.208-2.178-0.528L18.496,104.965z"/>
	</g>
	<g>
		<path fill="#FFFFFF" d="M25.023,101.188c0-0.992-0.031-1.793-0.064-2.529h1.266l0.062,1.328h0.033
			c0.576-0.944,1.488-1.504,2.752-1.504c1.873,0,3.281,1.584,3.281,3.938c0,2.785-1.695,4.161-3.521,4.161
			c-1.023,0-1.92-0.448-2.385-1.216h-0.031v4.209h-1.393V101.188z M26.416,103.252c0,0.208,0.031,0.4,0.064,0.576
			c0.256,0.977,1.104,1.648,2.113,1.648c1.488,0,2.352-1.216,2.352-2.993c0-1.552-0.816-2.881-2.305-2.881
			c-0.961,0-1.857,0.688-2.129,1.745c-0.047,0.176-0.096,0.384-0.096,0.576V103.252z"/>
	</g>
	<g>
		<path fill="#FFFFFF" d="M34.129,95.042h1.408v11.364h-1.408V95.042z"/>
	</g>
	<g>
		<path fill="#FFFFFF" d="M42.193,106.406l-0.113-0.977h-0.047c-0.432,0.608-1.266,1.152-2.369,1.152
			c-1.568,0-2.369-1.104-2.369-2.225c0-1.873,1.664-2.897,4.658-2.881v-0.16c0-0.641-0.176-1.793-1.762-1.793
			c-0.719,0-1.473,0.224-2.016,0.576l-0.32-0.929c0.641-0.416,1.568-0.688,2.545-0.688c2.369,0,2.945,1.616,2.945,3.169v2.897
			c0,0.672,0.031,1.328,0.127,1.856H42.193z M41.984,102.452c-1.535-0.031-3.281,0.24-3.281,1.745c0,0.912,0.609,1.345,1.328,1.345
			c1.01,0,1.65-0.641,1.873-1.297c0.049-0.144,0.08-0.304,0.08-0.448V102.452z"/>
	</g>
	<g>
		<path fill="#FFFFFF" d="M44.734,105.589l3.506-4.562c0.336-0.416,0.656-0.785,1.008-1.201v-0.031h-4.193v-1.137h5.906
			l-0.016,0.881l-3.457,4.497c-0.32,0.433-0.641,0.816-0.992,1.217v0.032h4.529v1.12h-6.291V105.589z"/>
	</g>
	<g>
		<path fill="#FFFFFF" d="M56.752,106.406l-0.111-0.977h-0.049c-0.432,0.608-1.264,1.152-2.369,1.152
			c-1.568,0-2.367-1.104-2.367-2.225c0-1.873,1.664-2.897,4.656-2.881v-0.16c0-0.641-0.176-1.793-1.76-1.793
			c-0.721,0-1.473,0.224-2.018,0.576l-0.32-0.929c0.641-0.416,1.57-0.688,2.545-0.688c2.369,0,2.945,1.616,2.945,3.169v2.897
			c0,0.672,0.033,1.328,0.129,1.856H56.752z M56.545,102.452c-1.537-0.031-3.281,0.24-3.281,1.745c0,0.912,0.607,1.345,1.328,1.345
			c1.008,0,1.648-0.641,1.873-1.297c0.047-0.144,0.08-0.304,0.08-0.448V102.452z"/>
	</g>
	<g>
		<path fill="#FFFFFF" d="M63.568,101.188c0-0.992-0.033-1.793-0.064-2.529h1.264l0.064,1.328h0.031
			c0.576-0.944,1.488-1.504,2.754-1.504c1.873,0,3.281,1.584,3.281,3.938c0,2.785-1.697,4.161-3.521,4.161
			c-1.025,0-1.92-0.448-2.385-1.216h-0.033v4.209h-1.391V101.188z M64.959,103.252c0,0.208,0.033,0.4,0.064,0.576
			c0.256,0.977,1.105,1.648,2.113,1.648c1.488,0,2.354-1.216,2.354-2.993c0-1.552-0.816-2.881-2.305-2.881
			c-0.961,0-1.857,0.688-2.129,1.745c-0.049,0.176-0.098,0.384-0.098,0.576V103.252z"/>
	</g>
	<g>
		<path fill="#FFFFFF" d="M76.961,106.406l-0.113-0.977h-0.047c-0.432,0.608-1.266,1.152-2.369,1.152
			c-1.568,0-2.369-1.104-2.369-2.225c0-1.873,1.664-2.897,4.658-2.881v-0.16c0-0.641-0.176-1.793-1.762-1.793
			c-0.719,0-1.473,0.224-2.016,0.576l-0.32-0.929c0.641-0.416,1.568-0.688,2.545-0.688c2.369,0,2.945,1.616,2.945,3.169v2.897
			c0,0.672,0.031,1.328,0.127,1.856H76.961z M76.752,102.452c-1.535-0.031-3.281,0.24-3.281,1.745c0,0.912,0.609,1.345,1.328,1.345
			c1.01,0,1.65-0.641,1.873-1.297c0.049-0.144,0.08-0.304,0.08-0.448V102.452z"/>
	</g>
	<g>
		<path fill="#FFFFFF" d="M80.383,101.076c0-0.912-0.016-1.696-0.064-2.417h1.232l0.049,1.521h0.064
			c0.352-1.04,1.199-1.696,2.145-1.696c0.16,0,0.271,0.016,0.4,0.048v1.328c-0.145-0.032-0.289-0.048-0.48-0.048
			c-0.992,0-1.697,0.752-1.889,1.809c-0.033,0.192-0.064,0.416-0.064,0.656v4.13h-1.393V101.076z"/>
	</g>
	<g>
		<path fill="#FFFFFF" d="M89.824,106.406l-0.113-0.977h-0.047c-0.432,0.608-1.266,1.152-2.369,1.152
			c-1.568,0-2.369-1.104-2.369-2.225c0-1.873,1.664-2.897,4.658-2.881v-0.16c0-0.641-0.176-1.793-1.762-1.793
			c-0.719,0-1.473,0.224-2.016,0.576l-0.32-0.929c0.641-0.416,1.568-0.688,2.545-0.688c2.369,0,2.945,1.616,2.945,3.169v2.897
			c0,0.672,0.031,1.328,0.127,1.856H89.824z M89.615,102.452c-1.535-0.031-3.281,0.24-3.281,1.745c0,0.912,0.609,1.345,1.328,1.345
			c1.01,0,1.65-0.641,1.873-1.297c0.049-0.144,0.08-0.304,0.08-0.448V102.452z"/>
	</g>
	<g>
		<path fill="#FFFFFF" d="M97.184,98.659l1.52,4.354c0.256,0.705,0.465,1.345,0.625,1.984h0.047c0.178-0.64,0.4-1.279,0.656-1.984
			l1.506-4.354h1.473l-3.041,7.747h-1.346l-2.945-7.747H97.184z"/>
	</g>
	<g>
		<path fill="#FFFFFF" d="M104.959,102.789c0.031,1.904,1.248,2.688,2.656,2.688c1.01,0,1.617-0.176,2.146-0.4l0.24,1.009
			c-0.496,0.225-1.346,0.48-2.578,0.48c-2.385,0-3.809-1.569-3.809-3.905c0-2.338,1.375-4.178,3.633-4.178
			c2.529,0,3.201,2.225,3.201,3.649c0,0.288-0.031,0.512-0.049,0.656H104.959z M109.088,101.78c0.018-0.896-0.367-2.289-1.951-2.289
			c-1.426,0-2.049,1.312-2.162,2.289H109.088z"/>
	</g>
	<g>
		<path fill="#FFFFFF" d="M112.191,101.076c0-0.912-0.018-1.696-0.064-2.417h1.232l0.047,1.521h0.064
			c0.352-1.04,1.201-1.696,2.145-1.696c0.16,0,0.273,0.016,0.4,0.048v1.328c-0.145-0.032-0.287-0.048-0.48-0.048
			c-0.992,0-1.695,0.752-1.889,1.809c-0.031,0.192-0.064,0.416-0.064,0.656v4.13h-1.391V101.076z"/>
	</g>
</g>
</svg>
