<?xml version="1.0" encoding="utf-8"?>
<!-- Generator: Adobe Illustrator 16.0.0, SVG Export Plug-In . SVG Version: 6.00 Build 0)  -->
<!DOCTYPE svg PUBLIC "-//W3C//DTD SVG 1.1//EN" "http://www.w3.org/Graphics/SVG/1.1/DTD/svg11.dtd">
<svg version="1.1" id="Layer_1" xmlns="http://www.w3.org/2000/svg" xmlns:xlink="http://www.w3.org/1999/xlink" x="0px" y="0px"
	 width="40px" height="40px" viewBox="0 0 40 40" enable-background="new 0 0 40 40" xml:space="preserve">
<g>
	<g>
		<path fill="#1F252C" d="M18.867,39.987c-0.019,0-0.038,0-0.057-0.001c-0.667-0.039-1.34-0.113-1.998-0.218
			c-0.52-0.084-0.873-0.572-0.789-1.092c0.083-0.521,0.575-0.874,1.091-0.789c0.595,0.096,1.203,0.162,1.807,0.198
			c0.525,0.03,0.926,0.481,0.895,1.006C19.788,39.596,19.368,39.987,18.867,39.987z M21.733,39.943
			c-0.487,0-0.903-0.372-0.948-0.867c-0.047-0.523,0.339-0.987,0.863-1.035c0.604-0.055,1.21-0.14,1.8-0.253
			c0.522-0.097,1.016,0.239,1.115,0.755c0.1,0.517-0.238,1.016-0.755,1.115c-0.652,0.125-1.321,0.22-1.988,0.28
			C21.791,39.941,21.762,39.943,21.733,39.943z M14.174,39.113c-0.097,0-0.194-0.015-0.291-0.046
			c-0.634-0.203-1.267-0.442-1.88-0.709c-0.482-0.21-0.702-0.772-0.492-1.254c0.21-0.482,0.772-0.704,1.254-0.492
			c0.555,0.242,1.126,0.458,1.7,0.642c0.501,0.161,0.777,0.697,0.616,1.198C14.952,38.854,14.577,39.113,14.174,39.113z
			 M26.396,38.921c-0.392,0-0.758-0.244-0.897-0.634c-0.176-0.496,0.083-1.041,0.579-1.217c0.567-0.202,1.132-0.436,1.678-0.695
			c0.474-0.226,1.043-0.024,1.269,0.452c0.226,0.475,0.023,1.043-0.452,1.269c-0.604,0.287-1.229,0.546-1.857,0.77
			C26.609,38.903,26.502,38.921,26.396,38.921z M9.848,37.092c-0.174,0-0.35-0.047-0.508-0.147
			c-0.565-0.357-1.119-0.746-1.643-1.156c-0.415-0.324-0.488-0.923-0.165-1.337c0.325-0.414,0.923-0.487,1.337-0.164
			c0.474,0.371,0.975,0.723,1.487,1.047c0.445,0.281,0.578,0.869,0.296,1.314C10.473,36.935,10.164,37.092,9.848,37.092z
			 M30.654,36.768c-0.306,0-0.606-0.147-0.79-0.419c-0.294-0.436-0.18-1.028,0.256-1.322c0.5-0.338,0.989-0.705,1.454-1.092
			c0.404-0.336,1.005-0.282,1.342,0.123c0.337,0.404,0.282,1.005-0.122,1.342c-0.514,0.427-1.054,0.833-1.607,1.207
			C31.023,36.715,30.837,36.768,30.654,36.768z M6.162,34.06c-0.252,0-0.504-0.1-0.692-0.298c-0.459-0.486-0.898-0.999-1.306-1.526
			C3.842,31.82,3.919,31.222,4.335,30.9c0.415-0.321,1.013-0.246,1.336,0.171c0.369,0.478,0.767,0.942,1.183,1.382
			c0.361,0.382,0.344,0.985-0.038,1.347C6.632,33.974,6.396,34.06,6.162,34.06z M34.245,33.624c-0.225,0-0.451-0.079-0.632-0.241
			c-0.393-0.35-0.428-0.952-0.079-1.345c0.402-0.452,0.786-0.93,1.139-1.418c0.309-0.425,0.904-0.522,1.33-0.213
			c0.426,0.309,0.521,0.904,0.213,1.33c-0.391,0.54-0.814,1.066-1.258,1.566C34.769,33.516,34.508,33.624,34.245,33.624z
			 M3.341,30.212c-0.335,0-0.66-0.177-0.833-0.49c-0.323-0.582-0.622-1.188-0.886-1.802c-0.208-0.483,0.014-1.044,0.498-1.252
			c0.48-0.209,1.043,0.014,1.252,0.498c0.24,0.556,0.509,1.104,0.802,1.631c0.256,0.46,0.09,1.04-0.37,1.295
			C3.657,30.173,3.498,30.212,3.341,30.212z M36.946,29.687c-0.147,0-0.296-0.034-0.436-0.105c-0.467-0.241-0.651-0.816-0.411-1.283
			c0.277-0.537,0.529-1.093,0.751-1.656c0.192-0.489,0.742-0.732,1.235-0.537c0.49,0.192,0.73,0.746,0.537,1.235
			c-0.245,0.621-0.524,1.237-0.829,1.83C37.625,29.499,37.292,29.687,36.946,29.687z M1.565,25.781c-0.423,0-0.81-0.284-0.921-0.712
			c-0.168-0.646-0.305-1.308-0.407-1.967c-0.081-0.52,0.276-1.007,0.796-1.087c0.519-0.078,1.006,0.276,1.087,0.796
			c0.092,0.596,0.216,1.195,0.368,1.779c0.133,0.509-0.173,1.029-0.682,1.162C1.725,25.771,1.644,25.781,1.565,25.781z
			 M38.583,25.202c-0.07,0-0.141-0.007-0.212-0.023c-0.513-0.117-0.834-0.626-0.718-1.14c0.133-0.589,0.238-1.192,0.312-1.791
			c0.064-0.522,0.546-0.887,1.062-0.83c0.522,0.065,0.894,0.54,0.83,1.062c-0.082,0.662-0.198,1.328-0.346,1.979
			C39.411,24.902,39.018,25.202,38.583,25.202z M0.953,21.009C0.426,21.009,0,20.622,0,20.096v-0.078c0-0.669,0.034-1.344,0.1-2.005
			c0.052-0.524,0.524-0.901,1.042-0.854c0.524,0.053,0.906,0.519,0.854,1.042c-0.06,0.599-0.09,1.21-0.09,1.816
			C1.905,20.544,1.479,21.009,0.953,21.009z M39.047,20.451c-0.514,0-0.938-0.409-0.951-0.926c-0.017-0.606-0.064-1.216-0.14-1.813
			c-0.066-0.522,0.303-0.999,0.825-1.065c0.527-0.062,0.999,0.304,1.065,0.825c0.083,0.66,0.135,1.333,0.153,2.001
			c0.015,0.525-0.4,0.963-0.926,0.978C39.065,20.451,39.056,20.451,39.047,20.451z M1.546,16.235c-0.078,0-0.157-0.009-0.237-0.03
			c-0.509-0.13-0.816-0.649-0.687-1.159c0.166-0.645,0.365-1.291,0.596-1.919c0.181-0.494,0.729-0.747,1.222-0.567
			c0.494,0.181,0.748,0.728,0.567,1.222c-0.208,0.569-0.389,1.153-0.539,1.736C2.358,15.949,1.971,16.235,1.546,16.235z
			 M38.324,15.734c-0.415,0-0.796-0.273-0.916-0.692c-0.165-0.578-0.362-1.157-0.586-1.72c-0.194-0.489,0.044-1.042,0.533-1.237
			c0.49-0.196,1.043,0.044,1.238,0.532c0.248,0.623,0.466,1.263,0.648,1.903c0.144,0.506-0.149,1.033-0.655,1.177
			C38.499,15.723,38.411,15.734,38.324,15.734z M3.302,11.795c-0.155,0-0.312-0.038-0.458-0.118
			c-0.461-0.253-0.629-0.833-0.375-1.293C2.79,9.798,3.146,9.223,3.525,8.674C3.823,8.24,4.416,8.131,4.85,8.432
			C5.283,8.73,5.392,9.323,5.092,9.756c-0.342,0.497-0.664,1.017-0.955,1.546C3.964,11.617,3.638,11.795,3.302,11.795z
			 M36.449,11.348c-0.327,0-0.645-0.168-0.822-0.47c-0.306-0.522-0.642-1.034-0.997-1.521c-0.31-0.425-0.217-1.021,0.208-1.331
			c0.425-0.31,1.021-0.218,1.331,0.208c0.393,0.538,0.763,1.103,1.102,1.679c0.267,0.454,0.114,1.038-0.339,1.304
			C36.779,11.305,36.613,11.348,36.449,11.348z M6.11,7.935c-0.234,0-0.468-0.085-0.652-0.258C5.075,7.316,5.056,6.714,5.416,6.33
			c0.456-0.485,0.942-0.955,1.446-1.394C7.258,4.59,7.86,4.632,8.206,5.028s0.305,0.998-0.092,1.344
			C7.658,6.77,7.217,7.195,6.805,7.634C6.617,7.834,6.364,7.935,6.11,7.935z M33.539,7.564c-0.246,0-0.491-0.094-0.677-0.282
			c-0.423-0.428-0.875-0.84-1.342-1.227c-0.406-0.335-0.463-0.936-0.128-1.341c0.336-0.406,0.937-0.461,1.341-0.128
			c0.516,0.426,1.015,0.882,1.483,1.355c0.37,0.374,0.367,0.977-0.007,1.347C34.023,7.473,33.781,7.564,33.539,7.564z M9.785,4.888
			c-0.314,0-0.623-0.156-0.804-0.441C8.698,4.003,8.829,3.415,9.272,3.132c0.565-0.36,1.153-0.694,1.747-0.993
			c0.47-0.236,1.042-0.047,1.279,0.423s0.047,1.043-0.423,1.279c-0.537,0.27-1.068,0.572-1.58,0.897
			C10.137,4.84,9.96,4.888,9.785,4.888z M29.782,4.618c-0.167,0-0.336-0.044-0.489-0.136c-0.517-0.31-1.056-0.597-1.604-0.854
			c-0.476-0.224-0.681-0.792-0.458-1.267c0.224-0.477,0.792-0.682,1.267-0.458c0.606,0.285,1.203,0.603,1.774,0.945
			c0.451,0.271,0.597,0.856,0.326,1.307C30.421,4.453,30.106,4.618,29.782,4.618z M14.1,2.851c-0.401,0-0.775-0.256-0.905-0.658
			c-0.164-0.5,0.11-1.038,0.61-1.2c0.635-0.207,1.288-0.383,1.94-0.525c0.512-0.108,1.021,0.215,1.133,0.73
			c0.111,0.514-0.215,1.021-0.73,1.132c-0.59,0.127-1.179,0.287-1.753,0.474C14.297,2.836,14.197,2.851,14.1,2.851z M25.411,2.698
			c-0.089,0-0.181-0.013-0.271-0.04c-0.579-0.171-1.173-0.314-1.766-0.426c-0.518-0.098-0.857-0.596-0.76-1.112
			c0.098-0.518,0.598-0.854,1.113-0.76c0.656,0.124,1.313,0.282,1.953,0.472c0.505,0.149,0.793,0.679,0.644,1.183
			C26.202,2.429,25.822,2.698,25.411,2.698z M18.787,1.957c-0.499,0-0.918-0.388-0.95-0.893c-0.033-0.525,0.366-0.977,0.891-1.01
			c0.662-0.042,1.337-0.052,2.007-0.027c0.525,0.019,0.936,0.46,0.917,0.987c-0.019,0.526-0.457,0.954-0.986,0.917
			c-0.607-0.022-1.219-0.013-1.819,0.024C18.827,1.956,18.807,1.957,18.787,1.957z"/>
	</g>
	<g>
		<g>
			<g>
				<path fill="#1F252C" d="M26.526,30.212H13.479c-0.572,0-1.067-0.248-1.358-0.681c-0.291-0.432-0.335-0.983-0.12-1.513
					l2.563-6.349c-0.363-0.097-0.669-0.311-0.871-0.618c-0.288-0.437-0.322-0.993-0.093-1.527l5.151-11.999
					c0.363-0.846,0.996-0.938,1.251-0.938s0.888,0.091,1.251,0.938l5.151,11.999c0.229,0.534,0.196,1.091-0.092,1.528
					c-0.202,0.306-0.506,0.519-0.869,0.616l2.561,6.352c0.213,0.531,0.169,1.083-0.123,1.514S27.098,30.212,26.526,30.212z
					 M26.526,28.307v0.953l0.003-0.953C26.528,28.307,26.527,28.307,26.526,28.307z M13.939,28.307h12.129l-2.537-6.292
					c-0.216-0.532-0.174-1.087,0.118-1.521c0.199-0.295,0.492-0.503,0.84-0.604l-4.486-10.45l-4.487,10.449
					c0.348,0.1,0.642,0.308,0.841,0.603c0.292,0.433,0.336,0.987,0.121,1.521L13.939,28.307z"/>
			</g>
		</g>
		<g>
			<g>
				<path fill="#1F252C" d="M21.668,34.401c-0.526,0-0.953-0.426-0.953-0.952V29.26c0-0.526,0.427-0.953,0.953-0.953
					s0.953,0.427,0.953,0.953v4.189C22.621,33.975,22.194,34.401,21.668,34.401z"/>
			</g>
		</g>
		<g>
			<g>
				<path fill="#1F252C" d="M18.338,34.401c-0.526,0-0.953-0.426-0.953-0.952V29.26c0-0.526,0.426-0.953,0.953-0.953
					c0.526,0,0.952,0.427,0.952,0.953v4.189C19.291,33.975,18.864,34.401,18.338,34.401z"/>
			</g>
		</g>
	</g>
</g>
</svg>
