<?xml version="1.0" encoding="utf-8"?>
<!-- Generator: Adobe Illustrator 16.0.0, SVG Export Plug-In . SVG Version: 6.00 Build 0)  -->
<!DOCTYPE svg PUBLIC "-//W3C//DTD SVG 1.0//EN" "http://www.w3.org/TR/2001/REC-SVG-20010904/DTD/svg10.dtd">
<svg version="1.0" id="Layer_1" xmlns="http://www.w3.org/2000/svg" xmlns:xlink="http://www.w3.org/1999/xlink" x="0px" y="0px"
	 width="48px" height="38px" viewBox="0 0 48 38" enable-background="new 0 0 48 38" xml:space="preserve">
<g>
	<path fill="#82B600" d="M29,1H19C9.059,1,1,9.059,1,19c0,9.941,8.059,18,18,18h10c9.941,0,18-8.059,18-18C47,9.059,38.941,1,29,1z"
		/>
	<g>
		<g>
			<path fill="#FFFFFF" d="M28.734,27.42c-1.185,0.369-2.922,0.579-4.368,0.579c-5.236,0-9.265-3.921-9.265-9.051
				c0-5.159,3.896-8.949,9.185-8.949c1.237,0,2.687,0.157,3.604,0.395c0.764,0.21,1.16,0.396,2.108,0.922l-0.819,1.789
				c-0.421-0.237-0.709-0.368-0.919-0.473c-1.001-0.422-2.368-0.685-3.765-0.685c-2.448,0-4.023,0.657-5.367,2.21
				c-1.078,1.263-1.71,2.922-1.71,4.633c0,4.185,3.209,7.263,7.552,7.263c0.869,0,1.477-0.078,2.868-0.367V20H30v7
				C29.445,27.21,29.025,27.342,28.734,27.42z"/>
		</g>
	</g>
</g>
</svg>
