<?xml version="1.0" encoding="utf-8"?>
<!-- Generator: Adobe Illustrator 16.0.0, SVG Export Plug-In . SVG Version: 6.00 Build 0)  -->
<!DOCTYPE svg PUBLIC "-//W3C//DTD SVG 1.1//EN" "http://www.w3.org/Graphics/SVG/1.1/DTD/svg11.dtd">
<svg version="1.1" id="Layer_1" xmlns="http://www.w3.org/2000/svg" xmlns:xlink="http://www.w3.org/1999/xlink" x="0px" y="0px"
	 width="25px" height="25px" viewBox="0 0 25 25" enable-background="new 0 0 25 25" xml:space="preserve">
<g>
	<path fill="#505860" d="M12.5,24.999C5.607,24.999,0,19.392,0,12.5C0,5.607,5.607,0,12.5,0S25,5.607,25,12.5
		C25,19.392,19.393,24.999,12.5,24.999z M12.5,0.962C6.138,0.962,0.961,6.138,0.961,12.5S6.138,24.038,12.5,24.038
		S24.039,18.862,24.039,12.5S18.862,0.962,12.5,0.962z"/>
</g>
<path fill="none" d="M21.308,4.325"/>
<path fill="none" d="M4.325,21.308"/>
<polygon fill="none" stroke="#505860" stroke-miterlimit="10" points="5.231,19.77 5.231,9.71 8.865,11.622 8.865,9.71 12.5,11.622 
	12.5,9.71 19.769,13.533 19.769,19.77 "/>
<polygon fill="none" stroke="#505860" stroke-miterlimit="10" points="16.641,11.888 17.013,5.231 19.08,5.231 19.466,13.374 "/>
<line fill="none" stroke="#505860" stroke-miterlimit="10" x1="16.793" y1="9.153" x2="19.207" y2="9.153"/>
<polyline fill="none" stroke="#505860" stroke-miterlimit="10" points="15.044,19.77 15.044,14.912 18.053,14.912 18.053,19.77 "/>
<rect x="7.437" y="14.912" fill="none" stroke="#505860" stroke-miterlimit="10" width="6.395" height="2.583"/>
</svg>
