<?xml version="1.0" encoding="utf-8"?>
<!-- Generator: Adobe Illustrator 16.0.0, SVG Export Plug-In . SVG Version: 6.00 Build 0)  -->
<!DOCTYPE svg PUBLIC "-//W3C//DTD SVG 1.1//EN" "http://www.w3.org/Graphics/SVG/1.1/DTD/svg11.dtd">
<svg version="1.1" id="Layer_1" xmlns="http://www.w3.org/2000/svg" xmlns:xlink="http://www.w3.org/1999/xlink" x="0px" y="0px"
	 width="25px" height="25px" viewBox="0 0 25 25" enable-background="new 0 0 25 25" xml:space="preserve">
<g>
	<g>
		<g>
			<g>
				<g>
					<path fill="#667C80" d="M12.5,25C5.607,25,0,19.393,0,12.5S5.607,0,12.5,0S25,5.607,25,12.5S19.393,25,12.5,25z M12.5,0.961
						C6.138,0.961,0.961,6.139,0.961,12.5c0,6.363,5.176,11.539,11.539,11.539S24.039,18.863,24.039,12.5
						C24.039,6.139,18.862,0.961,12.5,0.961z"/>
				</g>
			</g>
		</g>
		<g>
			<g>
				<path fill="none" d="M21.308,4.326"/>
			</g>
		</g>
		<g>
			<g>
				<path fill="none" d="M4.325,21.309"/>
			</g>
		</g>
	</g>
	<g>
		<path fill="#667C80" d="M20.189,11.424H4.811V6.488h15.378V11.424z M5.772,10.461h13.456V7.449H5.772V10.461z"/>
	</g>
	<g>
		<g>
			<path fill="#667C80" d="M10.367,20.109H6.034v-9.574h4.333V20.109z M6.996,19.148h2.41v-7.652h-2.41V19.148z"/>
		</g>
		<g>
			<path fill="#667C80" d="M18.966,20.109h-4.333v-9.574h4.333V20.109z M15.595,19.148h2.41v-7.652h-2.41V19.148z"/>
		</g>
	</g>
</g>
</svg>
