<?xml version="1.0" encoding="utf-8"?>
<!-- Generator: Adobe Illustrator 16.0.0, SVG Export Plug-In . SVG Version: 6.00 Build 0)  -->
<!DOCTYPE svg PUBLIC "-//W3C//DTD SVG 1.1//EN" "http://www.w3.org/Graphics/SVG/1.1/DTD/svg11.dtd">
<svg version="1.1" id="Layer_1" xmlns="http://www.w3.org/2000/svg" xmlns:xlink="http://www.w3.org/1999/xlink" x="0px" y="0px"
	 width="25px" height="25px" viewBox="0 0 25 25" enable-background="new 0 0 25 25" xml:space="preserve">
<g>
	<g>
		<g>
			<path fill="#667C80" d="M12.5,25C5.607,25,0,19.393,0,12.5S5.607,0,12.5,0S25,5.607,25,12.5S19.393,25,12.5,25z M12.5,1.19
				C6.264,1.19,1.19,6.264,1.19,12.5S6.264,23.81,12.5,23.81s11.31-5.074,11.31-11.31S18.736,1.19,12.5,1.19z"/>
		</g>
		<g>
			<path fill="#667C80" d="M11.216,18.1c-0.114,0-0.229-0.043-0.315-0.131c-0.174-0.174-0.174-0.457,0-0.631l4.838-4.838L10.9,7.662
				c-0.174-0.174-0.174-0.457,0-0.631s0.457-0.174,0.631,0l5.153,5.154c0.175,0.174,0.175,0.457,0,0.631l-5.153,5.154
				C11.444,18.057,11.33,18.1,11.216,18.1z"/>
		</g>
	</g>
</g>
</svg>
