<?xml version="1.0" encoding="utf-8"?>
<!-- Generator: Adobe Illustrator 16.0.0, SVG Export Plug-In . SVG Version: 6.00 Build 0)  -->
<!DOCTYPE svg PUBLIC "-//W3C//DTD SVG 1.1//EN" "http://www.w3.org/Graphics/SVG/1.1/DTD/svg11.dtd">
<svg version="1.1" id="Layer_1" xmlns="http://www.w3.org/2000/svg" xmlns:xlink="http://www.w3.org/1999/xlink" x="0px" y="0px"
	 width="25px" height="25px" viewBox="0 0 25 25" enable-background="new 0 0 25 25" xml:space="preserve">
<g>
	<g>
		<path fill="#2B2F35" d="M12.5,25C5.607,25,0,19.393,0,12.5S5.607,0,12.5,0S25,5.607,25,12.5S19.393,25,12.5,25z M12.5,0.962
			C6.138,0.962,0.961,6.138,0.961,12.5S6.138,24.038,12.5,24.038S24.039,18.862,24.039,12.5S18.862,0.962,12.5,0.962z"/>
	</g>
	<g>
		<g>
			
				<rect x="6.272" y="15.173" transform="matrix(0.7071 0.7071 -0.7071 0.7071 13.8282 -2.0802)" fill="#2B2F35" width="6.306" height="0.962"/>
		</g>
		<g>
			
				<rect x="15.452" y="12.505" transform="matrix(0.7071 0.7071 -0.7071 0.7071 15.7322 -6.6821)" fill="#2B2F35" width="0.961" height="6.289"/>
		</g>
		<g>
			
				<rect x="12.787" y="8.656" transform="matrix(0.7071 0.7071 -0.7071 0.7071 11.127 -8.5896)" fill="#2B2F35" width="6.289" height="0.961"/>
		</g>
		<g>
			
				<rect x="9.001" y="6.018" transform="matrix(0.7071 0.7071 -0.7071 0.7071 9.194 -4.0468)" fill="#2B2F35" width="0.961" height="6.114"/>
		</g>
		<g>
			<g>
				<path fill="#2B2F35" d="M12.676,7.822c-0.519,0-1.006-0.202-1.373-0.569c-0.366-0.365-0.568-0.853-0.568-1.372
					c0-0.519,0.202-1.006,0.568-1.373c0.733-0.732,2.012-0.73,2.744,0.001c0.366,0.365,0.569,0.853,0.569,1.371
					c0,0.52-0.202,1.007-0.569,1.373C13.682,7.62,13.195,7.822,12.676,7.822z M12.676,4.902c-0.262,0-0.507,0.102-0.692,0.286
					c-0.185,0.185-0.287,0.431-0.287,0.692s0.102,0.507,0.286,0.692c0.371,0.37,1.016,0.37,1.385,0
					c0.186-0.186,0.287-0.432,0.287-0.693c0-0.261-0.102-0.506-0.286-0.691C13.184,5.004,12.938,4.902,12.676,4.902z"/>
			</g>
		</g>
		<g>
			<g>
				<path fill="#2B2F35" d="M19.188,14.333c-0.518,0-1.006-0.202-1.373-0.569c-0.366-0.366-0.568-0.854-0.568-1.373
					c0-0.518,0.203-1.005,0.569-1.37c0.732-0.732,2.013-0.733,2.744,0.001c0.366,0.364,0.568,0.852,0.568,1.37
					c0,0.519-0.201,1.006-0.567,1.372C20.193,14.131,19.706,14.333,19.188,14.333z M19.189,11.414c-0.262,0-0.508,0.101-0.693,0.286
					c-0.185,0.185-0.287,0.43-0.288,0.691c0,0.263,0.102,0.509,0.286,0.692c0.371,0.37,1.015,0.37,1.386,0
					c0.185-0.185,0.287-0.43,0.286-0.692c0-0.262-0.102-0.507-0.287-0.691C19.695,11.515,19.45,11.414,19.189,11.414z"/>
			</g>
		</g>
		<g>
			<g>
				<path fill="#2B2F35" d="M12.676,20.845c-0.519,0-1.006-0.202-1.373-0.568c-0.367-0.366-0.568-0.854-0.568-1.371
					c0-0.52,0.202-1.007,0.569-1.372c0.73-0.734,2.011-0.734,2.744,0c0.366,0.366,0.568,0.854,0.568,1.372
					c0,0.518-0.202,1.005-0.568,1.371C13.681,20.643,13.194,20.845,12.676,20.845z M12.676,17.926c-0.262,0-0.507,0.103-0.692,0.287
					c-0.186,0.185-0.287,0.43-0.287,0.692c0,0.262,0.102,0.508,0.286,0.691c0.369,0.369,1.015,0.37,1.387,0
					c0.184-0.184,0.285-0.43,0.285-0.691c0-0.263-0.101-0.509-0.286-0.692C13.183,18.028,12.937,17.926,12.676,17.926z"/>
			</g>
		</g>
		<g>
			<g>
				<path fill="#2B2F35" d="M6.165,14.334c-0.518,0-1.005-0.202-1.372-0.568c-0.368-0.367-0.569-0.854-0.569-1.373
					c0-0.518,0.203-1.006,0.57-1.372c0.73-0.732,2.01-0.731,2.743,0.002c0.367,0.365,0.568,0.853,0.568,1.37
					c0,0.519-0.201,1.006-0.567,1.373C7.17,14.132,6.683,14.334,6.165,14.334z M6.164,11.414c-0.261,0-0.506,0.102-0.689,0.286
					c-0.187,0.186-0.289,0.432-0.289,0.692c0,0.263,0.102,0.509,0.288,0.693c0.369,0.368,1.014,0.368,1.385,0
					c0.184-0.185,0.286-0.431,0.286-0.693c0-0.261-0.102-0.506-0.286-0.69C6.671,11.516,6.426,11.414,6.164,11.414z"/>
			</g>
		</g>
	</g>
</g>
</svg>
