<?xml version="1.0" encoding="utf-8"?>
<!-- Generator: Adobe Illustrator 16.0.0, SVG Export Plug-In . SVG Version: 6.00 Build 0)  -->
<!DOCTYPE svg PUBLIC "-//W3C//DTD SVG 1.1//EN" "http://www.w3.org/Graphics/SVG/1.1/DTD/svg11.dtd">
<svg version="1.1" id="Layer_1" xmlns="http://www.w3.org/2000/svg" xmlns:xlink="http://www.w3.org/1999/xlink" x="0px" y="0px"
	 width="25px" height="25px" viewBox="0 0 25 25" enable-background="new 0 0 25 25" xml:space="preserve">
<g>
	<g>
		<g>
			<path fill="#667C80" d="M12.5,25C5.607,25,0,19.393,0,12.5S5.607,0,12.5,0S25,5.607,25,12.5S19.393,25,12.5,25z M12.5,0.961
				C6.138,0.961,0.961,6.138,0.961,12.5S6.138,24.038,12.5,24.038S24.039,18.862,24.039,12.5S18.862,0.961,12.5,0.961z"/>
		</g>
	</g>
	<g>
		
			<rect x="9.64" y="-1.419" transform="matrix(0.7069 0.7074 -0.7074 0.7069 10.1267 -4.1925)" fill="#667C80" width="0.962" height="23.081"/>
	</g>
	<g>
		<g>
			
				<rect x="4.695" y="19.256" transform="matrix(0.7071 0.7071 -0.7071 0.7071 15.9818 2.3325)" fill="#667C80" width="0.961" height="2.403"/>
		</g>
		<g>
			<path fill="#667C80" d="M9.082,17.231l-0.68-0.68l2.716-2.717l0.68,0.68L9.082,17.231z M14.515,11.798l-0.68-0.68l2.717-2.716
				l0.68,0.68L14.515,11.798z"/>
		</g>
		<g>
			
				<rect x="19.978" y="3.974" transform="matrix(0.7066 0.7076 -0.7076 0.7066 9.665 -12.9581)" fill="#667C80" width="0.962" height="2.404"/>
		</g>
	</g>
	<g>
		
			<rect x="14.858" y="4.01" transform="matrix(0.7071 0.7071 -0.7071 0.7071 15.3391 -6.3531)" fill="#667C80" width="0.961" height="22.658"/>
	</g>
</g>
</svg>
