<?xml version="1.0" encoding="utf-8"?>
<!-- Generator: Adobe Illustrator 16.0.0, SVG Export Plug-In . SVG Version: 6.00 Build 0)  -->
<!DOCTYPE svg PUBLIC "-//W3C//DTD SVG 1.1//EN" "http://www.w3.org/Graphics/SVG/1.1/DTD/svg11.dtd">
<svg version="1.1" id="Layer_1" xmlns="http://www.w3.org/2000/svg" xmlns:xlink="http://www.w3.org/1999/xlink" x="0px" y="0px"
	 width="30px" height="30px" viewBox="0 0 25 25" enable-background="new 0 0 25 25" xml:space="preserve">
<g>
	<g>
		<path fill="#667C80" d="M12.5,25C5.607,25,0,19.393,0,12.5S5.607,0,12.5,0S25,5.607,25,12.5S19.393,25,12.5,25z M12.5,0.961
			C6.138,0.961,0.961,6.138,0.961,12.5S6.138,24.038,12.5,24.038S24.039,18.862,24.039,12.5S18.862,0.961,12.5,0.961z"/>
	</g>
	<g>
		<g>
			<path fill="#667C80" d="M16.68,8.801c-0.123,0-0.246-0.047-0.34-0.141c-0.188-0.188-0.188-0.492,0-0.68l2.609-2.608
				c0.188-0.188,0.492-0.188,0.68,0s0.188,0.492,0,0.68L17.02,8.66C16.925,8.754,16.803,8.801,16.68,8.801z"/>
		</g>
		<g>
			<path fill="#667C80" d="M15.365,11.979c-1.292,0-2.343-1.052-2.343-2.344c0-1.291,1.051-2.342,2.343-2.342
				c1.292,0,2.343,1.051,2.343,2.342C17.708,10.927,16.656,11.979,15.365,11.979z M15.365,8.254c-0.762,0-1.381,0.619-1.381,1.381
				c0,0.763,0.62,1.383,1.381,1.383s1.381-0.62,1.381-1.383C16.746,8.873,16.126,8.254,15.365,8.254z"/>
		</g>
		<g>
			<path fill="#667C80" d="M11.498,13.982c-0.123,0-0.246-0.047-0.34-0.141c-0.188-0.188-0.188-0.492,0-0.68l2.486-2.486
				c0.188-0.188,0.492-0.188,0.68,0c0.188,0.188,0.188,0.492,0,0.68l-2.486,2.486C11.744,13.936,11.621,13.982,11.498,13.982z"/>
		</g>
		<g>
			<path fill="#667C80" d="M10.061,17.282c-1.292,0-2.343-1.051-2.343-2.343s1.051-2.343,2.343-2.343
				c1.292,0,2.342,1.051,2.342,2.343S11.353,17.282,10.061,17.282z M10.061,13.559c-0.762,0-1.382,0.619-1.382,1.381
				s0.62,1.381,1.382,1.381c0.761,0,1.381-0.619,1.381-1.381S10.822,13.559,10.061,13.559z"/>
		</g>
		<g>
			<path fill="#667C80" d="M5.712,19.769c-0.123,0-0.246-0.047-0.34-0.141c-0.188-0.188-0.188-0.492,0-0.68l3.032-3.033
				c0.188-0.188,0.492-0.188,0.68,0c0.188,0.188,0.188,0.492,0,0.68l-3.032,3.033C5.958,19.722,5.835,19.769,5.712,19.769z"/>
		</g>
	</g>
</g>
</svg>
