<?xml version="1.0" encoding="utf-8"?>
<!-- Generator: Adobe Illustrator 16.0.0, SVG Export Plug-In . SVG Version: 6.00 Build 0)  -->
<!DOCTYPE svg PUBLIC "-//W3C//DTD SVG 1.1//EN" "http://www.w3.org/Graphics/SVG/1.1/DTD/svg11.dtd">
<svg version="1.1" id="Layer_1" xmlns="http://www.w3.org/2000/svg" xmlns:xlink="http://www.w3.org/1999/xlink" x="0px" y="0px"
	 width="25px" height="25px" viewBox="0 0 25 25" enable-background="new 0 0 25 25" xml:space="preserve">
<g>
	<g>
		<g>
			<circle fill="#667C80" cx="12.5" cy="12.5" r="11.905"/>
			<path fill="#667C80" d="M12.5,25C5.607,25,0,19.392,0,12.5C0,5.608,5.607,0,12.5,0S25,5.608,25,12.5C25,19.392,19.393,25,12.5,25
				z M12.5,1.191c-6.236,0-11.31,5.073-11.31,11.31c0,6.235,5.074,11.309,11.31,11.309S23.81,18.736,23.81,12.5
				C23.81,6.264,18.736,1.191,12.5,1.191z"/>
		</g>
		<g>
			<path fill="#2B2F35" d="M12.5,18.506c-0.329,0-0.595-0.266-0.595-0.595v-7.773c0-0.329,0.267-0.596,0.595-0.596
				s0.595,0.267,0.595,0.596v7.773C13.095,18.241,12.829,18.506,12.5,18.506z"/>
		</g>
		<g>
			<circle fill="#2B2F35" cx="12.5" cy="7.263" r="0.789"/>
		</g>
	</g>
</g>
</svg>
