<?xml version="1.0" encoding="utf-8"?>
<!-- Generator: Adobe Illustrator 16.0.0, SVG Export Plug-In . SVG Version: 6.00 Build 0)  -->
<!DOCTYPE svg PUBLIC "-//W3C//DTD SVG 1.1//EN" "http://www.w3.org/Graphics/SVG/1.1/DTD/svg11.dtd">
<svg version="1.1" id="Layer_1" xmlns="http://www.w3.org/2000/svg" xmlns:xlink="http://www.w3.org/1999/xlink" x="0px" y="0px"
	 width="30px" height="30px" viewBox="0 0 25 25" enable-background="new 0 0 25 25" xml:space="preserve">
<g>
	<g>
		<path fill="#667C80" d="M12.5,24.999c-6.893,0-12.5-5.607-12.5-12.5S5.607,0.001,12.5,0.001S25,5.606,25,12.499
			S19.393,24.999,12.5,24.999z M12.5,0.962c-6.362,0-11.539,5.176-11.539,11.537c0,6.363,5.176,11.539,11.539,11.539
			s11.539-5.176,11.539-11.539C24.039,6.138,18.862,0.962,12.5,0.962z"/>
	</g>
	<g>
		<g>
			<path fill="#667C80" d="M17.853,9.263H7.146c-0.266,0-0.481-0.215-0.481-0.48s0.215-0.48,0.481-0.48h10.707
				c0.266,0,0.481,0.215,0.481,0.48S18.119,9.263,17.853,9.263z"/>
		</g>
		<g>
			<path fill="#667C80" d="M17.853,11.741H7.146c-0.266,0-0.481-0.215-0.481-0.48s0.215-0.48,0.481-0.48h10.707
				c0.266,0,0.481,0.215,0.481,0.48S18.119,11.741,17.853,11.741z"/>
		</g>
		<g>
			<path fill="#667C80" d="M17.853,14.22H7.146c-0.266,0-0.481-0.215-0.481-0.48s0.215-0.48,0.481-0.48h10.707
				c0.266,0,0.481,0.215,0.481,0.48S18.119,14.22,17.853,14.22z"/>
		</g>
		<g>
			<path fill="#667C80" d="M12.932,16.698H7.146c-0.266,0-0.481-0.215-0.481-0.48s0.215-0.48,0.481-0.48h5.786
				c0.266,0,0.48,0.215,0.48,0.48S13.198,16.698,12.932,16.698z"/>
		</g>
	</g>
</g>
</svg>
