<?xml version="1.0" encoding="utf-8"?>
<!-- Generator: Adobe Illustrator 16.0.0, SVG Export Plug-In . SVG Version: 6.00 Build 0)  -->
<!DOCTYPE svg PUBLIC "-//W3C//DTD SVG 1.1//EN" "http://www.w3.org/Graphics/SVG/1.1/DTD/svg11.dtd">
<svg version="1.1" id="Layer_1" xmlns="http://www.w3.org/2000/svg" xmlns:xlink="http://www.w3.org/1999/xlink" x="0px" y="0px"
	 width="10px" height="10px" viewBox="0 0 10 10" enable-background="new 0 0 10 10" xml:space="preserve">
<g>
	<g>
		<path fill="#91516B" d="M5,10.001L4.606,9.493C4.283,9.074,1.445,5.361,1.445,3.555C1.445,1.596,3.04,0,5,0
			s3.555,1.596,3.555,3.555c0,1.807-2.837,5.52-3.161,5.938L5,10.001z M5,0.996c-1.411,0-2.559,1.147-2.559,2.559
			C2.441,4.539,3.879,6.829,5,8.36c1.121-1.531,2.559-3.821,2.559-4.806C7.559,2.144,6.411,0.996,5,0.996z"/>
	</g>
	<circle fill="#91516B" cx="5" cy="3.357" r="1.218"/>
</g>
</svg>
