<?xml version="1.0" encoding="utf-8"?>
<!-- Generator: Adobe Illustrator 16.0.0, SVG Export Plug-In . SVG Version: 6.00 Build 0)  -->
<!DOCTYPE svg PUBLIC "-//W3C//DTD SVG 1.1//EN" "http://www.w3.org/Graphics/SVG/1.1/DTD/svg11.dtd">
<svg version="1.1" id="Layer_1" xmlns="http://www.w3.org/2000/svg" xmlns:xlink="http://www.w3.org/1999/xlink" x="0px" y="0px"
	 width="30px" height="30px" viewBox="0 0 30 30" enable-background="new 0 0 30 30" xml:space="preserve">
<g>
	<g>
		<g>
			<path fill="#667C80" d="M15,22.163c-0.175,0-0.349-0.067-0.482-0.2c-0.267-0.267-0.267-0.698,0-0.965L20.516,15l-5.999-5.998
				c-0.267-0.267-0.267-0.698,0-0.965s0.698-0.267,0.965,0l6.481,6.48c0.128,0.128,0.2,0.302,0.2,0.482s-0.072,0.354-0.2,0.482
				l-6.48,6.48C15.35,22.096,15.175,22.163,15,22.163z"/>
		</g>
		<g>
			<path fill="#667C80" d="M21.48,15.682H8.52c-0.377,0-0.683-0.305-0.683-0.682s0.306-0.682,0.683-0.682h12.96
				c0.377,0,0.682,0.305,0.682,0.682S21.857,15.682,21.48,15.682z"/>
		</g>
	</g>
	<g>
		<path fill="#667C80" d="M15,30C6.729,30,0,23.271,0,15S6.729,0,15,0s15,6.729,15,15S23.271,30,15,30z M15,1.82
			C7.732,1.82,1.82,7.732,1.82,15S7.732,28.181,15,28.181S28.181,22.268,28.181,15S22.268,1.82,15,1.82z"/>
	</g>
</g>
</svg>
