<?xml version="1.0" encoding="utf-8"?>
<!-- Generator: Adobe Illustrator 16.0.0, SVG Export Plug-In . SVG Version: 6.00 Build 0)  -->
<!DOCTYPE svg PUBLIC "-//W3C//DTD SVG 1.1//EN" "http://www.w3.org/Graphics/SVG/1.1/DTD/svg11.dtd">
<svg version="1.1" id="Layer_1" xmlns="http://www.w3.org/2000/svg" xmlns:xlink="http://www.w3.org/1999/xlink" x="0px" y="0px"
	 width="40px" height="40px" viewBox="0 0 40 40" enable-background="new 0 0 40 40" xml:space="preserve">
<g>
	<g>
		<g>
			<path fill="#1F252C" d="M20,40C8.972,40,0,31.028,0,20S8.972,0,20,0s20,8.972,20,20S31.028,40,20,40z M20,1.905
				C10.022,1.905,1.905,10.022,1.905,20S10.022,38.095,20,38.095S38.095,29.978,38.095,20S29.978,1.905,20,1.905z"/>
		</g>
		<g>
			<g>
				<path fill="#1F252C" d="M24.957,28.88H10.149c-1.096,0-1.976-0.437-2.415-1.198c-0.44-0.761-0.378-1.74,0.169-2.688
					l7.405-12.826c0.548-0.947,1.365-1.49,2.245-1.49c0.878,0,1.696,0.542,2.244,1.488l7.406,12.828
					c0.546,0.948,0.607,1.927,0.167,2.688C26.932,28.444,26.051,28.88,24.957,28.88z M17.553,12.583
					c-0.131,0-0.366,0.141-0.596,0.538L9.553,25.948c-0.23,0.396-0.235,0.669-0.17,0.782c0.066,0.113,0.306,0.246,0.766,0.246
					h14.808c0.459,0,0.699-0.132,0.765-0.246c0.065-0.113,0.061-0.386-0.168-0.783l-7.405-12.827
					C17.918,12.724,17.684,12.583,17.553,12.583z"/>
			</g>
			<g>
				<path fill="#1F252C" d="M31.443,28.88h-2.437c-0.525,0-0.952-0.426-0.952-0.952s0.427-0.953,0.952-0.953h2.437
					c0.333,0,0.494-0.09,0.519-0.134c0.025-0.043,0.023-0.226-0.143-0.513l-6.258-10.837c-0.167-0.288-0.323-0.382-0.373-0.382
					c-0.05,0-0.207,0.094-0.373,0.381l-0.37,0.638c-0.264,0.455-0.846,0.61-1.301,0.347c-0.455-0.263-0.61-0.846-0.347-1.301
					l0.369-0.636c0.487-0.846,1.225-1.333,2.022-1.333c0.797,0,1.535,0.487,2.023,1.335l6.258,10.837
					c0.489,0.847,0.54,1.729,0.142,2.418C33.212,28.485,32.422,28.88,31.443,28.88z"/>
			</g>
		</g>
	</g>
	<g>
		<path fill="#1F252C" d="M0.953,40c-0.244,0-0.488-0.093-0.674-0.279c-0.372-0.372-0.372-0.975,0-1.347L38.374,0.279
			c0.372-0.372,0.975-0.372,1.347,0c0.372,0.372,0.372,0.975,0,1.347L1.626,39.721C1.44,39.907,1.196,40,0.953,40z"/>
	</g>
</g>
</svg>
