<?xml version="1.0" encoding="utf-8"?>
<!-- Generator: Adobe Illustrator 16.0.0, SVG Export Plug-In . SVG Version: 6.00 Build 0)  -->
<!DOCTYPE svg PUBLIC "-//W3C//DTD SVG 1.1//EN" "http://www.w3.org/Graphics/SVG/1.1/DTD/svg11.dtd">
<svg version="1.1" id="Layer_1" xmlns="http://www.w3.org/2000/svg" xmlns:xlink="http://www.w3.org/1999/xlink" x="0px" y="0px"
	 width="161.511px" height="43.816px" viewBox="0 0 161.511 43.816" enable-background="new 0 0 161.511 43.816"
	 xml:space="preserve">
<g>
	<g>
		<g>
			<path fill-rule="evenodd" clip-rule="evenodd" fill="#667C80" d="M161.511,43.713c-11.65,0-23.171,0-34.455,0
				c2.164-2.582,4.575-5.029,6.464-7.826c1.91-2.826,2.693-6.17,2.87-9.73c-4.765,0-9.384,0-14.052,0
				c-0.401,1.164-0.787,2.336-1.206,3.494c-2.046,5.703-9.339,5.389-12.198,1.537c-3.875-5.23-3.888-15.494,0.101-20.662
				c1.929-2.504,4.594-3.055,7.479-2.617c2.648,0.404,4.25,2.32,4.989,4.713c0.562,1.811,1.403,2.357,3.249,2.227
				c3.018-0.211,6.056-0.07,9.078-0.199c2.108-0.088,2.502-0.703,1.978-2.721c-1.112-4.291-2.694-8.354-6.217-11.779
				c10.812,0,21.301,0,31.919,0C161.511,14.604,161.511,29.094,161.511,43.713z"/>
			<path fill-rule="evenodd" clip-rule="evenodd" fill="#667C80" d="M103.414,43.67c-13.78,0-27.087,0-40.5,0
				c0-4.297,0-8.596,0-13.16c2.116,0,4.21,0.139,6.277-0.033c3.25-0.264,6.598-0.332,9.698-1.205
				c8.85-2.494,13.54-11.822,10.581-20.557c-0.529-1.568-1.249-3.098-2.078-4.531c-0.783-1.363-1.819-2.578-2.834-3.979
				c0.33-0.064,0.604-0.17,0.883-0.172c4.873-0.01,9.746-0.006,15.128-0.006c-6.763,6.219-8.937,13.752-8.63,22.387
				C92.251,31.277,95.835,38.174,103.414,43.67z"/>
			<path fill-rule="evenodd" clip-rule="evenodd" fill="#667C80" d="M16.24,13.701c4.539,0,8.982,0,13.689,0
				c-1.132-5.182-3.139-9.744-7.256-13.568c3.378,0,6.465,0,9.695,0c0.044,0.404,0.137,0.873,0.134,1.344
				c-0.013,13.111-0.016,26.219-0.09,39.33c-0.007,1.002-0.518,2.002-0.797,3.004c-0.33-1.02-0.925-2.029-0.949-3.057
				c-0.159-6.365-0.185-12.73-0.268-19.1c-0.013-0.975-0.1-1.947-0.155-3.027c-6.221,0-12.307,0-18.514,0c0,3.352,0,6.664,0,10.168
				c1.847,0.182,3.727,0.367,5.824,0.574c-0.854,2.053-2.165,3.424-4.182,4.135C8.64,35.164,3.21,32.814,1.427,28.129
				c-1.872-4.912-1.903-9.938-0.087-14.871c1.643-4.467,6.367-6.582,10.529-4.967C14.375,9.264,15.415,11.391,16.24,13.701z"/>
			<path fill-rule="evenodd" clip-rule="evenodd" fill="#667C80" d="M62.978,9.166c3.493,0.158,6.82,0.264,10.139,0.471
				c2.141,0.133,3.288,1.383,3.476,3.566c0.209,2.436-0.943,4.719-2.91,4.943c-3.526,0.41-7.088,0.486-10.705,0.707
				C62.978,15.48,62.978,12.393,62.978,9.166z"/>
			<path fill-rule="evenodd" clip-rule="evenodd" fill="#667C80" d="M46.992,43.9c-0.147-0.943-0.416-1.891-0.424-2.84
				c-0.056-6.854-0.075-13.707-0.08-20.566c0-5.928,0.024-11.854,0.077-17.785c0.009-0.92,0.241-1.836,0.369-2.75
				c0.214-0.021,0.434-0.039,0.651-0.062c0.187,0.436,0.498,0.859,0.535,1.307c0.138,1.596,0.248,3.201,0.248,4.803
				c0.005,11.549-0.002,23.096-0.051,34.648c-0.002,1.088-0.299,2.174-0.457,3.266C47.57,43.912,47.281,43.908,46.992,43.9z"/>
		</g>
	</g>
</g>
</svg>
