<?xml version="1.0" encoding="utf-8"?>
<!-- Generator: Adobe Illustrator 16.0.0, SVG Export Plug-In . SVG Version: 6.00 Build 0)  -->
<!DOCTYPE svg PUBLIC "-//W3C//DTD SVG 1.1//EN" "http://www.w3.org/Graphics/SVG/1.1/DTD/svg11.dtd">
<svg version="1.1" id="Layer_1" xmlns="http://www.w3.org/2000/svg" xmlns:xlink="http://www.w3.org/1999/xlink" x="0px" y="0px"
	 width="40px" height="40px" viewBox="0 0 40 40" enable-background="new 0 0 40 40" xml:space="preserve">
<g>
	<g>
		<path fill="#1F252C" d="M20,40C8.972,40,0,31.028,0,20S8.972,0,20,0s20,8.972,20,20S31.028,40,20,40z M20,1.904
			C10.022,1.904,1.904,10.022,1.904,20S10.022,38.096,20,38.096S38.096,29.978,38.096,20S29.978,1.904,20,1.904z"/>
	</g>
	<g>
		<g>
			<g>
				<path fill="#1F252C" d="M16.693,26.089c-1.372,0-2.743-0.253-4.191-0.772c-0.378-0.136-0.631-0.495-0.631-0.896V13.262
					c0-0.31,0.151-0.601,0.404-0.779c0.254-0.178,0.579-0.222,0.871-0.117c1.239,0.445,2.4,0.662,3.55,0.662
					c1.668,0,3.099-0.45,4.614-0.926c1.585-0.498,3.225-1.013,5.185-1.013c1.374,0,2.745,0.253,4.193,0.774
					c0.378,0.136,0.63,0.494,0.63,0.896v11.157c0,0.31-0.15,0.601-0.404,0.779c-0.253,0.179-0.577,0.222-0.869,0.117
					c-1.239-0.445-2.399-0.661-3.55-0.661c-1.668,0-3.1,0.449-4.615,0.926c-1.586,0.499-3.226,1.013-5.186,1.013
					C16.694,26.089,16.693,26.089,16.693,26.089z M13.776,23.733c1.005,0.303,1.965,0.452,2.917,0.452c0,0,0.001,0,0.001,0
					c1.668,0,3.1-0.45,4.615-0.926c1.586-0.498,3.226-1.013,5.186-1.013c0.965,0,1.929,0.125,2.919,0.379v-9.179
					c-1.006-0.305-1.965-0.453-2.919-0.453c-1.667,0-3.099,0.45-4.614,0.925c-1.585,0.499-3.225,1.013-5.185,1.013
					c-0.965,0-1.93-0.125-2.92-0.379V23.733z"/>
			</g>
		</g>
		<g>
			<path fill="#1F252C" d="M12.823,31.358c-0.526,0-0.952-0.426-0.952-0.952V13.262c0-0.526,0.426-0.952,0.952-0.952
				c0.526,0,0.953,0.426,0.953,0.952v17.144C13.776,30.932,13.35,31.358,12.823,31.358z"/>
		</g>
	</g>
</g>
</svg>
