<?xml version="1.0" encoding="utf-8"?>
<!-- Generator: Adobe Illustrator 16.0.0, SVG Export Plug-In . SVG Version: 6.00 Build 0)  -->
<!DOCTYPE svg PUBLIC "-//W3C//DTD SVG 1.1//EN" "http://www.w3.org/Graphics/SVG/1.1/DTD/svg11.dtd">
<svg version="1.1" id="Layer_1" xmlns="http://www.w3.org/2000/svg" xmlns:xlink="http://www.w3.org/1999/xlink" x="0px" y="0px"
	 width="40px" height="40px" viewBox="0 0 40 40" enable-background="new 0 0 40 40" xml:space="preserve">
<g>
	<g>
		<path fill="#1F252C" d="M20,40C8.972,40,0,31.028,0,20S8.972,0,20,0s20,8.972,20,20S31.028,40,20,40z M20,2.426
			C10.31,2.426,2.426,10.31,2.426,20S10.31,37.574,20,37.574S37.574,29.69,37.574,20S29.69,2.426,20,2.426z"/>
	</g>
	<g>
		<g>
			<path fill="#1F252C" d="M24.889,28.729H10.284c-1.069,0-1.928-0.425-2.356-1.167c-0.428-0.741-0.367-1.696,0.167-2.621
				l7.304-12.65c0.534-0.925,1.331-1.455,2.188-1.455c0.855,0,1.654,0.53,2.188,1.454l7.305,12.652
				c0.534,0.926,0.594,1.881,0.166,2.622C26.816,28.304,25.958,28.729,24.889,28.729z M17.586,12.655
				c-0.143,0-0.379,0.144-0.612,0.546L9.67,25.851c-0.232,0.402-0.238,0.678-0.167,0.802c0.072,0.125,0.314,0.257,0.78,0.257h14.605
				c0.466,0,0.708-0.133,0.78-0.257c0.071-0.124,0.065-0.4-0.167-0.803l-7.303-12.649C17.967,12.798,17.73,12.655,17.586,12.655z"/>
		</g>
		<g>
			<path fill="#1F252C" d="M31.287,28.729h-2.404c-0.502,0-0.91-0.407-0.91-0.909c0-0.502,0.408-0.91,0.91-0.91h2.404
				c0.33,0,0.504-0.09,0.537-0.147c0.033-0.056,0.024-0.252-0.14-0.536l-6.172-10.689c-0.164-0.284-0.329-0.391-0.394-0.391
				s-0.23,0.106-0.393,0.39l-0.364,0.629c-0.251,0.436-0.809,0.584-1.243,0.332c-0.435-0.251-0.583-0.809-0.332-1.243l0.363-0.628
				c0.476-0.825,1.194-1.299,1.969-1.299s1.493,0.475,1.97,1.301l6.172,10.689c0.477,0.826,0.527,1.685,0.14,2.355
				C33.012,28.344,32.242,28.729,31.287,28.729z"/>
		</g>
	</g>
</g>
</svg>
