<?xml version="1.0" encoding="utf-8"?>
<!-- Generator: Adobe Illustrator 16.0.0, SVG Export Plug-In . SVG Version: 6.00 Build 0)  -->
<!DOCTYPE svg PUBLIC "-//W3C//DTD SVG 1.1//EN" "http://www.w3.org/Graphics/SVG/1.1/DTD/svg11.dtd">
<svg version="1.1" id="Layer_1" xmlns="http://www.w3.org/2000/svg" xmlns:xlink="http://www.w3.org/1999/xlink" x="0px" y="0px"
	 width="25px" height="25px" viewBox="0 0 25 25" enable-background="new 0 0 25 25" xml:space="preserve">
<g>
	<g>
		<g>
			<path fill="#1F252C" d="M0.926,12.5c0-6.39,5.184-11.574,11.574-11.574c6.389,0,11.574,5.184,11.574,11.574
				c0,6.391-5.186,11.574-11.574,11.574C6.109,24.074,0.926,18.891,0.926,12.5z"/>
		</g>
		<g>
			<path fill="#56CF9B" d="M12.5,25C5.608,25,0,19.392,0,12.5S5.608,0,12.5,0S25,5.608,25,12.5S19.392,25,12.5,25z M12.5,1.852
				C6.628,1.852,1.852,6.628,1.852,12.5S6.628,23.148,12.5,23.148S23.148,18.372,23.148,12.5S18.372,1.852,12.5,1.852z"/>
		</g>
	</g>
	<g>
		<g>
			
				<rect x="4.895" y="12.037" transform="matrix(0.7071 0.7071 -0.7071 0.7071 12.4992 -5.1768)" fill="#56CF9B" width="15.207" height="0.927"/>
		</g>
		<g>
			
				<rect x="12.035" y="4.896" transform="matrix(0.7071 0.7071 -0.7071 0.7071 12.4996 -5.1768)" fill="#56CF9B" width="0.927" height="15.207"/>
		</g>
	</g>
</g>
</svg>
