<?xml version="1.0" encoding="utf-8"?>
<!-- Generator: Adobe Illustrator 16.0.0, SVG Export Plug-In . SVG Version: 6.00 Build 0)  -->
<!DOCTYPE svg PUBLIC "-//W3C//DTD SVG 1.1//EN" "http://www.w3.org/Graphics/SVG/1.1/DTD/svg11.dtd">
<svg version="1.1" id="Layer_1" xmlns="http://www.w3.org/2000/svg" xmlns:xlink="http://www.w3.org/1999/xlink" x="0px" y="0px"
	 width="25px" height="25px" viewBox="0 0 25 25" enable-background="new 0 0 25 25" xml:space="preserve">
<g>
	<path fill="#505860" d="M12.5,24.999C5.607,24.999,0,19.392,0,12.5C0,5.607,5.607,0,12.5,0S25,5.607,25,12.5
		C25,19.392,19.393,24.999,12.5,24.999z M12.5,0.962C6.138,0.962,0.961,6.138,0.961,12.5S6.138,24.038,12.5,24.038
		S24.039,18.862,24.039,12.5S18.862,0.962,12.5,0.962z"/>
</g>
<path fill="none" d="M21.308,4.325"/>
<path fill="none" d="M4.325,21.308"/>
<g>
	<path fill="#505860" stroke="#505860" stroke-width="0.25" stroke-miterlimit="10" d="M12.5,6.428c3.525,0,5.788,0.921,5.788,1.573
		S16.025,9.573,12.5,9.573S6.712,8.652,6.712,8S8.975,6.428,12.5,6.428z"/>
	<path fill="#505860" stroke="#505860" stroke-width="0.25" stroke-miterlimit="10" d="M18.288,11.167
		c0,0.652-2.263,1.573-5.788,1.573s-5.788-0.921-5.788-1.573V9.874c2.298,1.573,9.276,1.573,11.575,0V11.167z"/>
	<path fill="#505860" stroke="#505860" stroke-width="0.25" stroke-miterlimit="10" d="M18.288,14.033
		c0,0.652-2.263,1.573-5.788,1.573s-5.788-0.921-5.788-1.573V12.74c2.298,1.573,9.276,1.573,11.575,0V14.033z"/>
	<path fill="#505860" stroke="#505860" stroke-width="0.25" stroke-miterlimit="10" d="M18.288,17c0,0.652-2.263,1.573-5.788,1.573
		S6.712,17.651,6.712,17v-1.293c2.298,1.573,9.276,1.573,11.575,0V17z"/>
</g>
</svg>
