<?xml version="1.0" encoding="utf-8"?>
<!-- Generator: Adobe Illustrator 16.0.0, SVG Export Plug-In . SVG Version: 6.00 Build 0)  -->
<!DOCTYPE svg PUBLIC "-//W3C//DTD SVG 1.1//EN" "http://www.w3.org/Graphics/SVG/1.1/DTD/svg11.dtd">
<svg version="1.1" id="Layer_1" xmlns="http://www.w3.org/2000/svg" xmlns:xlink="http://www.w3.org/1999/xlink" x="0px" y="0px"
	 width="25px" height="25px" viewBox="0 0 25 25" enable-background="new 0 0 25 25" xml:space="preserve">
<g>
	<g>
		<g>
			<path fill="#3B4849" d="M12.5,25C5.607,25,0,19.393,0,12.5S5.607,0,12.5,0S25,5.607,25,12.5S19.393,25,12.5,25z M12.5,0.961
				C6.138,0.961,0.961,6.138,0.961,12.5S6.138,24.038,12.5,24.038S24.039,18.862,24.039,12.5S18.862,0.961,12.5,0.961z"/>
		</g>
	</g>
	<g>
		<g>
			<polygon fill="#3B4849" points="3.766,14.488 3.085,13.809 12.68,4.214 21.915,13.448 21.234,14.128 12.68,5.573 			"/>
		</g>
		<g>
			<rect x="6.671" y="10.423" fill="#3B4849" width="0.961" height="8.293"/>
		</g>
		<g>
			<rect x="17.802" y="10.423" fill="#3B4849" width="0.961" height="8.293"/>
		</g>
	</g>
</g>
</svg>
