<?xml version="1.0" encoding="utf-8"?>
<!-- Generator: Adobe Illustrator 16.0.0, SVG Export Plug-In . SVG Version: 6.00 Build 0)  -->
<!DOCTYPE svg PUBLIC "-//W3C//DTD SVG 1.1//EN" "http://www.w3.org/Graphics/SVG/1.1/DTD/svg11.dtd">
<svg version="1.1" id="Layer_1" xmlns="http://www.w3.org/2000/svg" xmlns:xlink="http://www.w3.org/1999/xlink" x="0px" y="0px"
	 width="25px" height="25px" viewBox="0 0 25 25" enable-background="new 0 0 25 25" xml:space="preserve">
<g>
	<g>
		<g>
			<g>
				<g>
					<path fill="#3B4849" d="M12.5,24.999C5.607,24.999,0,19.392,0,12.5C0,5.607,5.607,0,12.5,0S25,5.607,25,12.5
						C25,19.392,19.393,24.999,12.5,24.999z M12.5,0.962C6.138,0.962,0.961,6.138,0.961,12.5S6.138,24.038,12.5,24.038
						S24.039,18.862,24.039,12.5S18.862,0.962,12.5,0.962z"/>
				</g>
			</g>
		</g>
		<g>
			<g>
				<path fill="#3B4849" d="M21.308,4.325"/>
			</g>
		</g>
		<g>
			<g>
				<path fill="#3B4849" d="M4.325,21.308"/>
			</g>
		</g>
	</g>
	<g>
		<g>
			<g>
				<path fill="#3B4849" d="M9.353,10.194c0,0,0.45-1.063-0.316-2.174C8.271,6.911,7.113,6.716,7.113,6.716s-0.495,1.26,0.248,2.336
					C8.109,10.138,9.353,10.194,9.353,10.194L9.353,10.194z M9.353,10.194"/>
			</g>
		</g>
		<g>
			<path fill="#3B4849" d="M11.418,10.317c0,0,1.172-0.409,1.574-1.66c0.406-1.25-0.432-2.31-0.432-2.31s-1.052,0.519-1.469,1.803
				C10.678,9.431,11.418,10.317,11.418,10.317L11.418,10.317z M11.418,10.317"/>
		</g>
		<g>
			<path fill="#3B4849" d="M11.91,11.702c-0.244,1.328,0.605,2.109,0.605,2.109s1.107-0.561,1.348-1.853
				c0.237-1.292-0.733-2.235-0.733-2.235S12.154,10.378,11.91,11.702L11.91,11.702z M11.91,11.702"/>
		</g>
		<g>
			<path fill="#3B4849" d="M14.637,16.068c0,0,1.051-0.661,1.168-1.972c0.112-1.308-0.939-2.153-0.939-2.153
				s-0.913,0.741-1.029,2.081C13.721,15.37,14.637,16.068,14.637,16.068L14.637,16.068z M14.637,16.068"/>
		</g>
		<g>
			<path fill="#3B4849" d="M17.424,18.175c0,0,0.819-0.939,0.551-2.223c-0.266-1.289-1.521-1.796-1.521-1.796
				s-0.657,0.974-0.386,2.292C16.342,17.769,17.424,18.175,17.424,18.175L17.424,18.175z M17.424,18.175"/>
		</g>
		<g>
			<g>
				<path fill="#3B4849" d="M10.257,7.429c0,0,0.965-0.635,0.946-1.982c-0.022-1.345-0.879-2.152-0.879-2.152
					s-1.107,0.77-1.088,2.084C9.258,6.694,10.257,7.429,10.257,7.429L10.257,7.429z M10.257,7.429"/>
			</g>
			<g>
				<path fill="#3B4849" d="M10.058,12.884c0,0,0.116-1.15-0.939-1.984c-1.062-0.834-2.223-0.68-2.223-0.68
					s-0.108,1.349,0.924,2.163C8.853,13.194,10.058,12.884,10.058,12.884L10.058,12.884z M10.058,12.884"/>
			</g>
		</g>
		<g>
			<path fill="#3B4849" d="M11.662,15.415c0,0-0.144-1.15-1.356-1.729c-1.221-0.578-2.321-0.165-2.321-0.165
				s0.199,1.337,1.382,1.901C10.557,15.985,11.662,15.415,11.662,15.415L11.662,15.415z M11.662,15.415"/>
		</g>
		<g>
			<path fill="#3B4849" d="M11.782,16.108c-1.333-0.18-2.262,0.542-2.262,0.542s0.594,1.214,1.897,1.394
				c1.3,0.18,2.179-0.699,2.179-0.699S13.12,16.294,11.782,16.108L11.782,16.108z M11.782,16.108"/>
		</g>
		<g>
			<path fill="#3B4849" d="M14.43,18.138c-1.348-0.02-2.179,0.807-2.179,0.807s0.732,1.139,2.047,1.158
				c1.314,0.021,2.081-0.955,2.081-0.955S15.778,18.159,14.43,18.138L14.43,18.138z M14.43,18.138"/>
		</g>
		<g>
			<path fill="#3B4849" d="M18.508,19.831c-5.581-2.588-7.649-6.072-8.401-8.54c-0.824-2.7-0.303-4.769-0.281-4.856l0.931,0.241
				c-0.08,0.311-1.822,7.655,8.156,12.284L18.508,19.831z"/>
		</g>
	</g>
</g>
</svg>
