<?xml version="1.0" encoding="utf-8"?>
<!-- Generator: Adobe Illustrator 16.0.0, SVG Export Plug-In . SVG Version: 6.00 Build 0)  -->
<!DOCTYPE svg PUBLIC "-//W3C//DTD SVG 1.1//EN" "http://www.w3.org/Graphics/SVG/1.1/DTD/svg11.dtd">
<svg version="1.1" id="Layer_1" xmlns="http://www.w3.org/2000/svg" xmlns:xlink="http://www.w3.org/1999/xlink" x="0px" y="0px"
	 width="25px" height="25px" viewBox="0 0 25 25" enable-background="new 0 0 25 25" xml:space="preserve">
<g>
	<path fill="#667C80" d="M18.926,5.527c-0.754,0-1.367,0.613-1.367,1.367v0.62L6.884,10.899C6.834,10.342,6.37,9.902,5.8,9.902
		c-0.603,0-1.094,0.49-1.094,1.094v3.008c0,0.604,0.491,1.094,1.094,1.094c0.57,0,1.034-0.439,1.084-0.996l0.921,0.292
		c-0.138,0.124-0.25,0.281-0.311,0.471c-0.09,0.277-0.066,0.573,0.067,0.834c0.133,0.261,0.359,0.454,0.636,0.543l3.902,1.265
		c0.11,0.036,0.224,0.054,0.336,0.054c0.171,0,0.341-0.041,0.498-0.121c0.26-0.133,0.454-0.359,0.543-0.636
		c0.064-0.199,0.068-0.407,0.017-0.605l4.065,1.289v0.619c0,0.754,0.613,1.367,1.367,1.367s1.367-0.613,1.367-1.367V6.895
		C20.293,6.141,19.68,5.527,18.926,5.527z M12.958,16.634c-0.045,0.139-0.142,0.251-0.272,0.318
		c-0.13,0.065-0.279,0.078-0.417,0.033l-3.902-1.264c-0.138-0.045-0.251-0.142-0.317-0.272c-0.067-0.131-0.079-0.278-0.034-0.416
		c0.075-0.231,0.29-0.379,0.521-0.379c0.055,0,0.112,0.009,0.167,0.026l3.902,1.265C12.892,16.038,13.05,16.347,12.958,16.634z
		 M6.347,14.004c0,0.302-0.245,0.547-0.547,0.547c-0.301,0-0.547-0.245-0.547-0.547v-3.008c0-0.302,0.246-0.547,0.547-0.547
		c0.302,0,0.547,0.245,0.547,0.547v0.073v2.861V14.004z M6.894,13.53V11.47l10.665-3.381v8.823L6.894,13.53z M19.747,18.105
		c0,0.453-0.368,0.821-0.82,0.821c-0.453,0-0.82-0.368-0.82-0.821v-0.446V7.341V6.895c0-0.452,0.368-0.82,0.82-0.82
		c0.452,0,0.82,0.368,0.82,0.82V18.105z"/>
	<path fill="#667C80" d="M18.926,19.598c-0.823,0-1.492-0.669-1.492-1.492v-0.528l-3.784-1.2c0.012,0.156-0.006,0.313-0.054,0.463
		c-0.101,0.31-0.316,0.561-0.606,0.709c-0.288,0.148-0.626,0.175-0.93,0.075L8.159,16.36c-0.309-0.099-0.56-0.314-0.708-0.605
		c-0.148-0.29-0.175-0.62-0.075-0.929c0.044-0.136,0.112-0.261,0.203-0.373l-0.592-0.188c-0.12,0.556-0.605,0.958-1.186,0.958
		c-0.672,0-1.219-0.547-1.219-1.219v-3.008c0-0.672,0.547-1.219,1.219-1.219c0.581,0,1.066,0.403,1.186,0.959l10.448-3.313V6.895
		c0-0.823,0.669-1.492,1.492-1.492s1.492,0.669,1.492,1.492v11.211C20.418,18.928,19.749,19.598,18.926,19.598z M13.317,16.01
		l4.367,1.385v0.71c0,0.685,0.557,1.242,1.242,1.242s1.242-0.557,1.242-1.242V6.895c0-0.685-0.557-1.242-1.242-1.242
		s-1.242,0.557-1.242,1.242v0.711L6.773,11.065L6.76,10.911c-0.045-0.503-0.458-0.883-0.959-0.883c-0.534,0-0.969,0.435-0.969,0.969
		v3.008c0,0.534,0.435,0.969,0.969,0.969c0.502,0,0.915-0.379,0.959-0.882l0.014-0.155l1.278,0.405l-0.163,0.146
		c-0.131,0.118-0.224,0.258-0.276,0.416c-0.079,0.245-0.058,0.508,0.06,0.738c0.118,0.232,0.318,0.402,0.562,0.481l3.903,1.265
		c0.241,0.079,0.509,0.058,0.739-0.06c0.23-0.118,0.401-0.318,0.481-0.563c0.055-0.172,0.06-0.358,0.015-0.536L13.317,16.01z
		 M18.926,19.052c-0.521,0-0.945-0.424-0.945-0.946V6.895c0-0.521,0.424-0.945,0.945-0.945s0.945,0.424,0.945,0.945v11.211
		C19.872,18.627,19.448,19.052,18.926,19.052z M18.926,6.199c-0.383,0-0.695,0.312-0.695,0.695v11.211
		c0,0.384,0.312,0.696,0.695,0.696s0.695-0.312,0.695-0.696V6.895C19.622,6.511,19.31,6.199,18.926,6.199z M12.436,17.137
		c-0.07,0-0.139-0.011-0.206-0.033l-3.902-1.263c-0.17-0.056-0.309-0.174-0.39-0.335c-0.082-0.16-0.097-0.342-0.042-0.511
		c0.11-0.343,0.49-0.544,0.845-0.433l3.903,1.265c0.352,0.114,0.546,0.494,0.433,0.846c-0.055,0.169-0.174,0.308-0.334,0.391
		C12.646,17.112,12.54,17.137,12.436,17.137z M8.536,14.779c-0.184,0-0.346,0.118-0.402,0.292c-0.035,0.106-0.025,0.22,0.026,0.32
		c0.051,0.102,0.138,0.176,0.245,0.211l3.902,1.263c0.104,0.034,0.221,0.024,0.322-0.026c0.101-0.052,0.175-0.139,0.209-0.245
		c0.072-0.221-0.05-0.459-0.271-0.531L8.665,14.8C8.622,14.786,8.579,14.779,8.536,14.779z M17.684,17.083L6.769,13.622v-2.243
		l10.915-3.46V17.083z M7.019,13.439l10.415,3.302V8.26L7.019,11.561V13.439z M5.8,14.676c-0.371,0-0.672-0.301-0.672-0.672v-3.008
		c0-0.371,0.301-0.672,0.672-0.672s0.672,0.301,0.672,0.672v3.008C6.472,14.375,6.171,14.676,5.8,14.676z M5.8,10.574
		c-0.232,0-0.422,0.189-0.422,0.422v3.008c0,0.232,0.189,0.422,0.422,0.422s0.422-0.189,0.422-0.422v-3.008
		C6.222,10.764,6.033,10.574,5.8,10.574z"/>
</g>
<g>
	<g>
		<g>
			<g>
				<g>
					<g>
						<path fill="#667C80" d="M12.5,24.999C5.607,24.999,0,19.392,0,12.5C0,5.607,5.607,0,12.5,0S25,5.607,25,12.5
							C25,19.392,19.393,24.999,12.5,24.999z M12.5,0.962C6.138,0.962,0.961,6.138,0.961,12.5S6.138,24.038,12.5,24.038
							S24.039,18.862,24.039,12.5S18.862,0.962,12.5,0.962z"/>
					</g>
				</g>
			</g>
		</g>
		<g>
			<g>
				<g>
					<path fill="none" d="M21.308,4.325"/>
				</g>
			</g>
		</g>
		<g>
			<g>
				<g>
					<path fill="none" d="M4.325,21.308"/>
				</g>
			</g>
		</g>
	</g>
</g>
</svg>
