<?xml version="1.0" encoding="utf-8"?>
<!-- Generator: Adobe Illustrator 16.0.0, SVG Export Plug-In . SVG Version: 6.00 Build 0)  -->
<!DOCTYPE svg PUBLIC "-//W3C//DTD SVG 1.1//EN" "http://www.w3.org/Graphics/SVG/1.1/DTD/svg11.dtd">
<svg version="1.1" id="Layer_1" xmlns="http://www.w3.org/2000/svg" xmlns:xlink="http://www.w3.org/1999/xlink" x="0px" y="0px"
	 width="25px" height="25px" viewBox="0 0 25 25" enable-background="new 0 0 25 25" xml:space="preserve">
<g>
	<g>
		<g>
			<g>
				<g>
					<path fill="#3B4849" d="M12.5,25C5.607,25,0,19.393,0,12.5S5.607,0,12.5,0S25,5.607,25,12.5S19.393,25,12.5,25z M12.5,0.962
						C6.138,0.962,0.961,6.138,0.961,12.5S6.138,24.038,12.5,24.038S24.039,18.862,24.039,12.5S18.862,0.962,12.5,0.962z"/>
				</g>
			</g>
		</g>
		<g>
			<g>
				<path fill="#3B4849" d="M21.308,4.325"/>
			</g>
		</g>
		<g>
			<g>
				<path fill="#3B4849" d="M4.325,21.308"/>
			</g>
		</g>
	</g>
	<g>
		<path fill="#3B4849" d="M24.294,15.292h-4.065c-0.163,0-0.315-0.082-0.404-0.219l-6.387-9.871l-3.813,5.734
			c-0.089,0.133-0.24,0.215-0.401,0.215H7.727l-2.553,3.923c-0.089,0.136-0.24,0.218-0.403,0.218H0.706
			c-0.266,0-0.48-0.215-0.48-0.48s0.215-0.48,0.48-0.48H4.51l2.553-3.924c0.089-0.136,0.241-0.219,0.403-0.219h1.5l4.077-6.13
			c0.089-0.134,0.24-0.214,0.401-0.214c0.134-0.02,0.315,0.082,0.404,0.219l6.643,10.268h3.804c0.266,0,0.48,0.215,0.48,0.48
			S24.56,15.292,24.294,15.292z"/>
	</g>
</g>
</svg>
