<?xml version="1.0" encoding="utf-8"?>
<!-- Generator: Adobe Illustrator 16.0.0, SVG Export Plug-In . SVG Version: 6.00 Build 0)  -->
<!DOCTYPE svg PUBLIC "-//W3C//DTD SVG 1.1//EN" "http://www.w3.org/Graphics/SVG/1.1/DTD/svg11.dtd">
<svg version="1.1" id="Layer_1" xmlns="http://www.w3.org/2000/svg" xmlns:xlink="http://www.w3.org/1999/xlink" x="0px" y="0px"
	 width="25px" height="25px" viewBox="0 0 25 25" enable-background="new 0 0 25 25" xml:space="preserve">
<g>
	<g>
		<path fill="#667C80" d="M12.5,25C5.607,25,0,19.393,0,12.5S5.607,0,12.5,0S25,5.607,25,12.5S19.393,25,12.5,25z M12.5,1.19
			C6.264,1.19,1.19,6.264,1.19,12.5S6.264,23.81,12.5,23.81s11.31-5.074,11.31-11.31S18.736,1.19,12.5,1.19z"/>
	</g>
	<g>
		<path fill="#667C80" d="M19.153,9.313H6.454c-0.247,0-0.447-0.2-0.447-0.446c0-0.247,0.2-0.447,0.447-0.447h12.699
			c0.247,0,0.446,0.2,0.446,0.447C19.599,9.113,19.399,9.313,19.153,9.313z"/>
	</g>
	<g>
		<path fill="#667C80" d="M19.153,12.025H6.454c-0.247,0-0.447-0.2-0.447-0.446s0.2-0.446,0.447-0.446h12.699
			c0.247,0,0.446,0.2,0.446,0.446S19.399,12.025,19.153,12.025z"/>
	</g>
	<g>
		<path fill="#667C80" d="M19.153,14.737H6.454c-0.247,0-0.447-0.2-0.447-0.446c0-0.247,0.2-0.447,0.447-0.447h12.699
			c0.247,0,0.446,0.2,0.446,0.447C19.599,14.537,19.399,14.737,19.153,14.737z"/>
	</g>
	<g>
		<path fill="#667C80" d="M13.095,17.449H6.454c-0.247,0-0.447-0.2-0.447-0.447s0.2-0.446,0.447-0.446h6.642
			c0.247,0,0.446,0.2,0.446,0.446S13.342,17.449,13.095,17.449z"/>
	</g>
</g>
</svg>
