<?xml version="1.0" encoding="utf-8"?>
<!-- Generator: Adobe Illustrator 16.0.0, SVG Export Plug-In . SVG Version: 6.00 Build 0)  -->
<!DOCTYPE svg PUBLIC "-//W3C//DTD SVG 1.1//EN" "http://www.w3.org/Graphics/SVG/1.1/DTD/svg11.dtd">
<svg version="1.1" id="Layer_1" xmlns="http://www.w3.org/2000/svg" xmlns:xlink="http://www.w3.org/1999/xlink" x="0px" y="0px"
	 width="40px" height="40px" viewBox="0 0 40 40" enable-background="new 0 0 40 40" xml:space="preserve">
<g>
	<g>
		<path fill="#667C80" d="M20,40C8.972,40,0,31.028,0,20S8.972,0,20,0s20,8.972,20,20S31.028,40,20,40z M20,1.905
			C10.022,1.905,1.905,10.022,1.905,20S10.022,38.095,20,38.095S38.095,29.978,38.095,20S29.978,1.905,20,1.905z"/>
	</g>
	<g>
		<path fill="#667C80" d="M23.439,33.182c-0.526,0-0.953-0.426-0.953-0.952V19.338c-0.008-1.301-0.457-1.301-0.816-1.301
			c-0.233,0-0.31,0.077-0.347,0.114c-0.141,0.142-0.377,0.564-0.371,1.8c0,0.023-0.002,0.073-0.004,0.096
			c0.002,3.088-0.879,4.685-2.619,4.685c-0.793,0-2.638-0.324-2.638-3.326V7.713c0-0.526,0.426-0.952,0.953-0.952
			c0.526,0,0.952,0.426,0.952,0.952v13.693c0,1.421,0.477,1.421,0.733,1.421c0.435,0,0.716-1.116,0.716-2.843
			c-0.003-0.973,0.088-2.333,0.927-3.176c0.44-0.442,1.027-0.676,1.697-0.676c0.812,0,2.702,0.312,2.721,3.2v12.897
			C24.392,32.755,23.965,33.182,23.439,33.182z"/>
	</g>
</g>
</svg>
