<?xml version="1.0" encoding="utf-8"?>
<!-- Generator: Adobe Illustrator 16.0.0, SVG Export Plug-In . SVG Version: 6.00 Build 0)  -->
<!DOCTYPE svg PUBLIC "-//W3C//DTD SVG 1.0//EN" "http://www.w3.org/TR/2001/REC-SVG-20010904/DTD/svg10.dtd">
<svg version="1.0" id="Layer_1" xmlns="http://www.w3.org/2000/svg" xmlns:xlink="http://www.w3.org/1999/xlink" x="0px" y="0px"
	 width="30px" height="30px" viewBox="0 0 40 40" enable-background="new 0 0 40 40" xml:space="preserve">
<g>
	<path fill="#667C80" d="M32,36H8c-0.553,0-1-0.447-1-1V5c0-0.552,0.447-1,1-1h24c0.553,0,1,0.448,1,1v30C33,35.553,32.553,36,32,36
		z M9,34h22V6H9V34z"/>
	<g>
		<g>
			<path fill="#667C80" d="M16.07,10h1.49l3.081,8H19.14l-0.751-2.118h-3.192L14.445,18H13L16.07,10z M15.576,14.817h2.443
				l-1.198-3.439h-0.034L15.576,14.817z"/>
		</g>
	</g>
	<rect x="13" y="20" fill="#667C80" width="14" height="2"/>
	<rect x="23" y="16" fill="#667C80" width="4" height="2"/>
	<rect x="23" y="12" fill="#667C80" width="4" height="2"/>
	<rect x="13" y="24" fill="#667C80" width="14" height="2"/>
	<rect x="13" y="28" fill="#667C80" width="14" height="2"/>
</g>
</svg>
