<?xml version="1.0" encoding="utf-8"?>
<!-- Generator: Adobe Illustrator 16.0.0, SVG Export Plug-In . SVG Version: 6.00 Build 0)  -->
<!DOCTYPE svg PUBLIC "-//W3C//DTD SVG 1.1//EN" "http://www.w3.org/Graphics/SVG/1.1/DTD/svg11.dtd">
<svg version="1.1" id="Layer_1" xmlns="http://www.w3.org/2000/svg" xmlns:xlink="http://www.w3.org/1999/xlink" x="0px" y="0px"
	 width="25px" height="25px" viewBox="0 0 25 25" enable-background="new 0 0 25 25" xml:space="preserve">
<g>
	<g>
		<g>
			<path fill="#667C80" d="M12.5,0C19.393,0,25,5.607,25,12.5S19.393,25,12.5,25S0,19.393,0,12.5S5.607,0,12.5,0z M12.5,23.81
				c6.236,0,11.31-5.074,11.31-11.31S18.736,1.19,12.5,1.19S1.19,6.264,1.19,12.5S6.264,23.81,12.5,23.81z"/>
		</g>
		<g>
			<path fill="#667C80" d="M13.784,6.9c0.114,0,0.229,0.043,0.315,0.131c0.174,0.174,0.174,0.457,0,0.631L9.262,12.5l4.838,4.838
				c0.174,0.174,0.174,0.457,0,0.631s-0.457,0.174-0.631,0l-5.153-5.154c-0.175-0.174-0.175-0.457,0-0.631l5.153-5.154
				C13.556,6.943,13.67,6.9,13.784,6.9z"/>
		</g>
	</g>
</g>
</svg>
