<?xml version="1.0" encoding="utf-8"?>
<!-- Generator: Adobe Illustrator 16.0.0, SVG Export Plug-In . SVG Version: 6.00 Build 0)  -->
<!DOCTYPE svg PUBLIC "-//W3C//DTD SVG 1.1//EN" "http://www.w3.org/Graphics/SVG/1.1/DTD/svg11.dtd">
<svg version="1.1" id="Layer_1" xmlns="http://www.w3.org/2000/svg" xmlns:xlink="http://www.w3.org/1999/xlink" x="0px" y="0px"
	 width="25px" height="25px" viewBox="0 0 25 25" enable-background="new 0 0 25 25" xml:space="preserve">
<g>
	<g>
		<g>
			<g>
				<g>
					<path fill="#3B4849" d="M12.5,25C5.607,25,0,19.393,0,12.5S5.607,0,12.5,0S25,5.607,25,12.5S19.393,25,12.5,25z M12.5,0.961
						C6.138,0.961,0.961,6.138,0.961,12.5c0,6.361,5.176,11.537,11.539,11.537S24.039,18.861,24.039,12.5
						C24.039,6.138,18.862,0.961,12.5,0.961z"/>
				</g>
			</g>
		</g>
		<g>
			<g>
				<path fill="#3B4849" d="M21.308,4.326"/>
			</g>
		</g>
		<g>
			<g>
				<path fill="#3B4849" d="M4.326,21.307"/>
			</g>
		</g>
	</g>
	<g>
		<g>
			<path fill="#3B4849" d="M21.308,16.596c-0.134,0-0.266-0.057-0.359-0.162c-0.028-0.031-2.829-3.184-5.112-5.428
				c-2.648-2.604-5.862-4.165-5.895-4.181c-0.13-0.062-0.225-0.18-0.259-0.32c-0.034-0.14-0.004-0.287,0.083-0.402l2.07-2.753
				c0.148-0.197,0.424-0.252,0.636-0.121C12.616,3.316,16,5.42,18.076,8.381c2.413,3.443,3.458,6.783,3.661,7.48
				c0.046,0.074,0.072,0.16,0.072,0.254c0,0.266-0.215,0.48-0.48,0.48C21.32,16.594,21.314,16.596,21.308,16.596z M10.877,6.225
				c1.048,0.562,3.489,1.987,5.633,4.096c1.195,1.175,2.528,2.593,3.54,3.691c-0.567-1.373-1.462-3.224-2.762-5.078
				c-1.577-2.25-4.032-4.025-4.954-4.646L10.877,6.225z"/>
		</g>
		<g>
			<polygon fill="#3B4849" points="6.93,20.684 4.768,18.521 14.321,8.968 15.001,9.648 6.127,18.521 6.93,19.324 15.884,10.372 
				16.563,11.052 			"/>
		</g>
		<g>
			<polygon fill="#3B4849" points="18.308,9.308 17.628,8.627 18.378,7.878 17.574,7.074 16.986,7.663 16.306,6.983 17.574,5.714 
				19.737,7.878 			"/>
		</g>
	</g>
</g>
</svg>
