<?xml version="1.0" encoding="utf-8"?>
<!-- Generator: Adobe Illustrator 16.0.0, SVG Export Plug-In . SVG Version: 6.00 Build 0)  -->
<!DOCTYPE svg PUBLIC "-//W3C//DTD SVG 1.1//EN" "http://www.w3.org/Graphics/SVG/1.1/DTD/svg11.dtd">
<svg version="1.1" id="Layer_1" xmlns="http://www.w3.org/2000/svg" xmlns:xlink="http://www.w3.org/1999/xlink" x="0px" y="0px"
	 width="250px" height="81px" viewBox="0 0 250 81" enable-background="new 0 0 250 81" xml:space="preserve">
<g>
	<g>
		<g>
			<path fill="#667C80" d="M148.303,43.995h-1.961c0-11.179,9.125-20.272,20.34-20.272v1.956
				C156.549,25.679,148.303,33.895,148.303,43.995z"/>
		</g>
	</g>
	<g>
		<path fill="#667C80" d="M17.861,19.73h-3.737l-9.3-10.605V19.73H0V0.397h3.681l9.36,10.889V0.397h4.821V19.73z"/>
		<path fill="#667C80" d="M26.308,16.405l-1.284,3.326h-5.136l8.244-19.448h4.595l8.216,19.448h-5.106l-1.312-3.326H26.308z
			 M30.415,5.884l-2.509,6.425h5.021L30.415,5.884z"/>
		<path fill="#667C80" d="M47.849,14.127v5.603h-4.823V0.397h8.502c4.793,0,8.019,2.616,8.019,6.795c0,2.7-1.4,4.834-3.709,6
			l4.993,6.539H55.01l-4.166-5.603H47.849z M51.414,9.808c1.854,0,3.338-1.025,3.338-2.616c0-1.565-1.484-2.56-3.338-2.56h-3.565
			v5.176H51.414z"/>
		<path fill="#667C80" d="M67.452,14.127v5.603h-4.825V0.397h8.504c4.794,0,8.017,2.616,8.017,6.795c0,2.7-1.398,4.834-3.709,6
			l4.993,6.539h-5.82l-4.167-5.603H67.452z M71.017,9.808c1.854,0,3.338-1.025,3.338-2.616c0-1.565-1.483-2.56-3.338-2.56h-3.565
			v5.176H71.017z"/>
		<path fill="#667C80" d="M87.679,16.405l-1.284,3.326h-5.136l8.246-19.448h4.595l8.216,19.448h-5.108l-1.31-3.326H87.679z
			 M91.787,5.884l-2.511,6.425h5.022L91.787,5.884z"/>
		<path fill="#667C80" d="M122.26,19.73h-3.737l-9.302-10.605V19.73h-4.823V0.397h3.68l9.359,10.889V0.397h4.823V19.73z"/>
		<path fill="#667C80" d="M133.473,0.397c6.076,0,10.471,3.953,10.471,9.609c0,5.745-4.395,9.725-10.471,9.725h-7.818V0.397H133.473
			z M133.473,15.409c3.137,0,5.564-2.33,5.564-5.403c0-2.984-2.428-5.287-5.564-5.287h-2.996v10.69H133.473z"/>
		<path fill="#667C80" d="M166.797,10.063c0,5.629-4.422,10.065-10.299,10.065c-5.85,0-10.271-4.436-10.271-10.065
			C146.227,4.435,150.648,0,156.498,0C162.375,0,166.797,4.435,166.797,10.063z M161.891,10.063c0-3.042-2.254-5.6-5.393-5.6
			s-5.393,2.559-5.393,5.6c0,3.042,2.254,5.602,5.393,5.602S161.891,13.106,161.891,10.063z"/>
		<path fill="#667C80" d="M7.819,24.265c5.048,0,8.216,2.728,8.216,7.078c0,4.522-3.311,7.333-8.616,7.333H4.824v4.918H0v-19.33
			H7.819z M7.704,34.469c2.14,0,3.509-1.222,3.509-3.126c0-1.734-1.369-2.844-3.509-2.844h-2.88v5.971H7.704z"/>
		<path fill="#667C80" d="M20.771,40.27l-1.284,3.324h-5.134l8.245-19.444h4.593l8.217,19.444h-5.106l-1.313-3.324H20.771z
			 M24.881,29.751l-2.513,6.423h5.022L24.881,29.751z"/>
		<path fill="#667C80" d="M42.313,43.594h-4.823v-19.33h4.823V43.594z"/>
		<path fill="#667C80" d="M61.942,30.263h-4.85c-0.256-1.449-1.171-2.446-3.139-2.446c-1.656,0-2.769,0.682-2.769,1.935
			c0,1.05,0.772,1.505,2.226,1.819l2.712,0.625c3.537,0.769,5.848,2.188,5.848,5.516c0,3.867-3.197,6.284-8.045,6.284
			c-4.366,0-8.303-2.048-8.76-6.825h4.822c0.314,1.708,1.797,2.729,4.08,2.729c1.798,0,2.739-0.652,2.739-1.705
			c0-0.654-0.4-1.338-2.054-1.649l-3.197-0.71c-3.822-0.826-5.62-2.618-5.62-5.688c0-3.867,3.139-6.31,7.703-6.31
			C56.778,23.838,61.457,25.06,61.942,30.263z"/>
		<path fill="#667C80" d="M69.218,40.27l-1.283,3.324h-5.137l8.247-19.444h4.593l8.218,19.444h-5.108l-1.312-3.324H69.218z
			 M73.327,29.751l-2.51,6.423h5.021L73.327,29.751z"/>
		<path fill="#667C80" d="M99.776,35.865c0,5.257-2.996,8.158-8.016,8.158c-4.509,0-7.59-2.645-7.789-7.279h4.792
			c0.115,1.878,1.4,2.9,3.14,2.9c1.797,0,2.994-1.364,2.994-3.779V24.265h4.88V35.865z"/>
		<path fill="#667C80" d="M107.766,31.968h8.586v4.095h-8.586v3.354h9.842v4.178h-14.666v-19.33h14.666v4.179h-9.842V31.968z"/>
		<path fill="#667C80" d="M136.152,30.263h-4.848c-0.258-1.449-1.172-2.446-3.141-2.446c-1.654,0-2.767,0.682-2.767,1.935
			c0,1.05,0.771,1.505,2.226,1.819l2.711,0.625c3.537,0.769,5.85,2.188,5.85,5.516c0,3.867-3.197,6.284-8.047,6.284
			c-4.367,0-8.302-2.048-8.759-6.825h4.82c0.314,1.708,1.799,2.729,4.082,2.729c1.797,0,2.738-0.652,2.738-1.705
			c0-0.654-0.4-1.338-2.055-1.649l-3.195-0.71c-3.822-0.826-5.621-2.618-5.621-5.688c0-3.867,3.14-6.31,7.703-6.31
			C130.99,23.838,135.668,25.06,136.152,30.263z"/>
	</g>
	<g>
		<g>
			<g>
				<path fill="#667C80" d="M168.949,43.997h-7v-1.947h2.426v-5.187l-2.283,0.639v-2.074l3.166-1.093h1.426v7.716h2.266V43.997z"/>
				<path fill="#667C80" d="M178.361,39.165c0,2.927-1.697,5.044-4.492,5.044c-2.797,0-4.506-2.118-4.506-5.044
					c0-2.928,1.709-5.043,4.506-5.043C176.664,34.122,178.361,36.237,178.361,39.165z M176.051,39.165
					c0-1.677-0.756-2.955-2.195-2.955c-1.457,0-2.211,1.278-2.211,2.955s0.754,2.955,2.211,2.955
					C175.295,42.12,176.051,40.842,176.051,39.165z"/>
				<path fill="#667C80" d="M188.598,39.165c0,2.927-1.697,5.044-4.494,5.044c-2.795,0-4.506-2.118-4.506-5.044
					c0-2.928,1.711-5.043,4.506-5.043C186.9,34.122,188.598,36.237,188.598,39.165z M186.285,39.165
					c0-1.677-0.754-2.955-2.193-2.955c-1.455,0-2.211,1.278-2.211,2.955s0.756,2.955,2.211,2.955
					C185.531,42.12,186.285,40.842,186.285,39.165z"/>
				<path fill="#667C80" d="M201.299,40.543c0,2.046-1.568,3.596-3.436,3.596c-0.756,0-1.383-0.2-1.898-0.526v3.581h-2.311V37.104
					h2.311v0.369c0.516-0.328,1.143-0.526,1.898-0.526C199.73,36.948,201.299,38.482,201.299,40.543z M199.031,40.543
					c0-0.951-0.684-1.72-1.625-1.72c-0.512,0-1.012,0.157-1.441,0.654v2.131c0.43,0.498,0.93,0.639,1.441,0.639
					C198.348,42.248,199.031,41.495,199.031,40.543z"/>
				<path fill="#667C80" d="M209.881,43.997h-2.311v-0.384c-0.512,0.327-1.141,0.526-1.896,0.526c-1.867,0-3.436-1.55-3.436-3.596
					c0-2.061,1.568-3.595,3.436-3.595c0.756,0,1.385,0.198,1.896,0.526v-0.369h2.311V43.997z M207.57,41.608v-2.131
					c-0.428-0.497-0.926-0.654-1.439-0.654c-0.941,0-1.627,0.769-1.627,1.72c0,0.952,0.686,1.705,1.627,1.705
					C206.645,42.248,207.143,42.106,207.57,41.608z"/>
				<path fill="#667C80" d="M211.291,34.732c0-0.754,0.6-1.308,1.355-1.308c0.742,0,1.354,0.553,1.354,1.308
					c0,0.739-0.611,1.292-1.354,1.292C211.891,36.024,211.291,35.471,211.291,34.732z M213.816,43.997h-2.311v-6.892h2.311V43.997z"
					/>
				<path fill="#667C80" d="M217.01,41.636c0.098,0.597,0.598,0.869,1.324,0.869c0.615,0,0.984-0.186,0.984-0.483
					c0-0.229-0.215-0.414-0.67-0.484l-1.396-0.241c-1.199-0.199-2.025-0.868-2.025-2.075c0-1.449,1.238-2.302,3.08-2.302
					c1.467,0,3.137,0.567,3.236,2.386h-2.055c-0.039-0.526-0.525-0.767-1.168-0.767c-0.598,0-0.871,0.228-0.871,0.497
					c0,0.228,0.174,0.441,0.713,0.54l1.299,0.213c1.297,0.241,2.154,0.866,2.154,2.088c0,1.591-1.441,2.331-3.238,2.331
					c-1.811,0-3.279-0.754-3.422-2.587L217.01,41.636z"/>
				<path fill="#667C80" d="M230.084,43.997h-2.311v-0.384c-0.512,0.327-1.141,0.526-1.896,0.526c-1.867,0-3.438-1.55-3.438-3.596
					c0-2.061,1.57-3.595,3.438-3.595c0.756,0,1.385,0.198,1.896,0.526v-0.369h2.311V43.997z M227.773,41.608v-2.131
					c-0.43-0.497-0.928-0.654-1.441-0.654c-0.941,0-1.625,0.769-1.625,1.72c0,0.952,0.684,1.705,1.625,1.705
					C226.846,42.248,227.344,42.106,227.773,41.608z"/>
				<path fill="#667C80" d="M234.074,43.441c0,2.118-0.672,3.354-3.408,3.41l-0.199-1.918c1.012-0.099,1.281-0.397,1.281-1.194
					v-6.635h2.326V43.441z M231.551,34.732c0-0.754,0.613-1.308,1.354-1.308c0.756,0,1.355,0.553,1.355,1.308
					c0,0.739-0.6,1.292-1.355,1.292C232.164,36.024,231.551,35.471,231.551,34.732z"/>
				<path fill="#667C80" d="M242.543,41.183l0.014,0.042h-4.934c0.186,0.625,0.67,1.109,1.555,1.109
					c0.484,0,0.855-0.184,1.057-0.498h2.279c-0.326,1.422-1.652,2.316-3.365,2.316c-2.268,0-3.777-1.505-3.777-3.609
					c0-2.089,1.467-3.595,3.678-3.595c2.012,0,3.537,1.378,3.537,3.453C242.586,40.656,242.586,40.928,242.543,41.183z
					 M237.596,39.875h2.824c-0.131-0.753-0.629-1.152-1.371-1.152C238.266,38.724,237.766,39.179,237.596,39.875z"/>
				<path fill="#667C80" d="M245.393,41.636c0.102,0.597,0.6,0.869,1.328,0.869c0.613,0,0.982-0.186,0.982-0.483
					c0-0.229-0.213-0.414-0.67-0.484l-1.398-0.241c-1.197-0.199-2.023-0.868-2.023-2.075c0-1.449,1.24-2.302,3.08-2.302
					c1.469,0,3.137,0.567,3.236,2.386h-2.053c-0.043-0.526-0.527-0.767-1.17-0.767c-0.598,0-0.869,0.228-0.869,0.497
					c0,0.228,0.17,0.441,0.713,0.54l1.297,0.213c1.299,0.241,2.154,0.866,2.154,2.088c0,1.591-1.441,2.331-3.238,2.331
					c-1.809,0-3.279-0.754-3.422-2.587L245.393,41.636z"/>
				<path fill="#667C80" d="M167.055,58.072h2.182c-0.156,1.776-1.627,2.982-3.537,2.982c-2.182,0-3.779-1.504-3.779-3.608
					c0-2.089,1.598-3.595,3.779-3.595c1.91,0,3.381,1.208,3.537,2.984h-2.182c-0.113-0.625-0.643-1.037-1.355-1.037
					c-0.984,0-1.584,0.711-1.584,1.648c0,0.938,0.6,1.662,1.584,1.662C166.412,59.108,166.941,58.697,167.055,58.072z"/>
				<path fill="#667C80" d="M177.504,60.9h-2.311v-0.457c-0.555,0.427-1.154,0.668-1.895,0.668c-1.756,0-2.953-1.207-2.953-3.169
					v-3.936h2.311v3.582c0,0.981,0.514,1.447,1.27,1.447c0.426,0,0.869-0.241,1.268-0.681v-4.348h2.311V60.9z"/>
				<path fill="#667C80" d="M181.383,60.9h-2.311v-10.09h2.311V60.9z"/>
				<path fill="#667C80" d="M188.51,60.772c-0.896,0.283-1.41,0.34-2.096,0.34c-1.67,0-2.781-1.223-2.781-3.083v-2.046h-1.354
					v-1.975h1.354v-2.344h2.311v2.344h2.354v1.975h-2.354v1.976c0,0.695,0.4,1.037,1.084,1.037c0.328,0,0.713-0.071,1.227-0.171
					L188.51,60.772z"/>
				<path fill="#667C80" d="M196.736,60.9h-2.309v-0.457c-0.557,0.427-1.156,0.668-1.898,0.668c-1.752,0-2.951-1.207-2.951-3.169
					v-3.936h2.311v3.582c0,0.981,0.514,1.447,1.268,1.447c0.43,0,0.871-0.241,1.271-0.681v-4.348h2.309V60.9z"/>
				<path fill="#667C80" d="M202.996,56.082c-1.127,0.045-1.84,0.342-2.383,0.881V60.9h-2.311v-6.893h2.311v0.739
					c0.613-0.526,1.355-0.853,2.383-0.853V56.082z"/>
				<path fill="#667C80" d="M211.264,60.9h-2.309v-0.384c-0.514,0.325-1.143,0.525-1.898,0.525c-1.867,0-3.436-1.549-3.436-3.595
					c0-2.061,1.568-3.595,3.436-3.595c0.756,0,1.385,0.198,1.898,0.526v-0.37h2.309V60.9z M208.955,58.513v-2.131
					c-0.43-0.498-0.928-0.655-1.441-0.655c-0.941,0-1.625,0.768-1.625,1.72c0,0.951,0.684,1.705,1.625,1.705
					C208.027,59.151,208.525,59.01,208.955,58.513z"/>
				<path fill="#667C80" d="M215.141,60.9h-2.309v-10.09h2.309V60.9z"/>
				<path fill="#667C80" d="M223.539,58.086l0.014,0.042h-4.932c0.184,0.624,0.668,1.107,1.553,1.107
					c0.486,0,0.855-0.184,1.055-0.497h2.281c-0.328,1.42-1.652,2.315-3.365,2.315c-2.268,0-3.779-1.504-3.779-3.608
					c0-2.089,1.471-3.595,3.68-3.595c2.012,0,3.537,1.378,3.537,3.453C223.582,57.559,223.582,57.83,223.539,58.086z
					 M218.592,56.778h2.822c-0.127-0.753-0.627-1.151-1.369-1.151C219.262,55.627,218.762,56.082,218.592,56.778z"/>
				<path fill="#667C80" d="M226.389,58.539c0.1,0.598,0.6,0.868,1.326,0.868c0.613,0,0.986-0.184,0.986-0.482
					c0-0.227-0.215-0.412-0.672-0.482l-1.398-0.241c-1.197-0.201-2.023-0.869-2.023-2.075c0-1.45,1.24-2.303,3.078-2.303
					c1.469,0,3.139,0.566,3.238,2.386h-2.053c-0.043-0.525-0.527-0.767-1.17-0.767c-0.6,0-0.871,0.228-0.871,0.498
					c0,0.227,0.174,0.441,0.713,0.54l1.299,0.213c1.297,0.242,2.152,0.866,2.152,2.088c0,1.592-1.439,2.331-3.234,2.331
					c-1.812,0-3.281-0.754-3.424-2.587L226.389,58.539z"/>
				<path fill="#667C80" d="M169.564,77.805h-2.311v-0.356c-0.514,0.325-1.141,0.523-1.896,0.523c-1.869,0-3.438-1.549-3.438-3.608
					c0-2.045,1.568-3.581,3.438-3.581c0.756,0,1.383,0.2,1.896,0.525v-3.593h2.311V77.805z M167.254,75.443v-2.131
					c-0.428-0.496-0.926-0.654-1.441-0.654c-0.939,0-1.625,0.767-1.625,1.705c0,0.966,0.686,1.721,1.625,1.721
					C166.328,76.084,166.826,75.939,167.254,75.443z"/>
				<path fill="#667C80" d="M177.947,74.99l0.014,0.043h-4.936c0.188,0.622,0.672,1.105,1.557,1.105
					c0.484,0,0.855-0.184,1.055-0.497h2.283c-0.33,1.423-1.654,2.316-3.367,2.316c-2.268,0-3.777-1.504-3.777-3.608
					c0-2.088,1.467-3.595,3.678-3.595c2.012,0,3.537,1.378,3.537,3.453C177.99,74.463,177.99,74.731,177.947,74.99z M172.998,73.683
					h2.824c-0.129-0.754-0.629-1.152-1.369-1.152C173.67,72.53,173.17,72.985,172.998,73.683z"/>
				<path fill="#667C80" d="M185.402,71.991h4.293v2.047h-4.293v1.676h4.918v2.091h-7.328V68.14h7.328v2.088h-4.918V71.991z"/>
				<path fill="#667C80" d="M193.201,75.443c0.1,0.598,0.6,0.866,1.326,0.866c0.613,0,0.982-0.185,0.982-0.482
					c0-0.226-0.213-0.411-0.67-0.48l-1.396-0.244c-1.199-0.198-2.025-0.867-2.025-2.074c0-1.448,1.24-2.303,3.08-2.303
					c1.469,0,3.137,0.568,3.238,2.387h-2.055c-0.043-0.523-0.527-0.766-1.17-0.766c-0.598,0-0.869,0.227-0.869,0.497
					c0,0.228,0.172,0.441,0.713,0.539l1.297,0.214c1.299,0.241,2.152,0.866,2.152,2.088c0,1.591-1.438,2.33-3.236,2.33
					c-1.811,0-3.279-0.753-3.422-2.587L193.201,75.443z"/>
				<path fill="#667C80" d="M206.588,74.35c0,2.046-1.568,3.595-3.436,3.595c-0.756,0-1.383-0.2-1.896-0.525V81h-2.311V70.911h2.311
					v0.369c0.514-0.329,1.141-0.525,1.896-0.525C205.02,70.755,206.588,72.289,206.588,74.35z M204.322,74.35
					c0-0.953-0.686-1.721-1.627-1.721c-0.514,0-1.014,0.156-1.439,0.656v2.131c0.426,0.496,0.926,0.639,1.439,0.639
					C203.637,76.055,204.322,75.302,204.322,74.35z"/>
				<path fill="#667C80" d="M215.17,77.805h-2.309v-0.386c-0.514,0.325-1.143,0.525-1.896,0.525c-1.869,0-3.438-1.549-3.438-3.595
					c0-2.061,1.568-3.595,3.438-3.595c0.754,0,1.383,0.196,1.896,0.525v-0.369h2.309V77.805z M212.861,75.416v-2.131
					c-0.43-0.5-0.928-0.656-1.441-0.656c-0.941,0-1.625,0.768-1.625,1.721c0,0.952,0.684,1.705,1.625,1.705
					C211.934,76.055,212.432,75.912,212.861,75.416z"/>
				<path fill="#667C80" d="M223.91,73.867v3.938h-2.324v-3.569c0-0.981-0.5-1.45-1.254-1.45c-0.428,0-0.883,0.243-1.285,0.696
					v4.323h-2.309v-6.894h2.309v0.469c0.557-0.441,1.17-0.684,1.912-0.684C222.713,70.696,223.91,71.905,223.91,73.867z"/>
				<path fill="#667C80" d="M232.637,77.805h-2.311v-0.386c-0.514,0.325-1.141,0.525-1.898,0.525c-1.867,0-3.436-1.549-3.436-3.595
					c0-2.061,1.568-3.595,3.436-3.595c0.758,0,1.385,0.196,1.898,0.525v-0.369h2.311V77.805z M230.326,75.416v-2.131
					c-0.428-0.5-0.928-0.656-1.441-0.656c-0.941,0-1.623,0.768-1.623,1.721c0,0.952,0.682,1.705,1.623,1.705
					C229.398,76.055,229.898,75.912,230.326,75.416z"/>
			</g>
		</g>
		<g>
			<g>
				<path fill-rule="evenodd" clip-rule="evenodd" fill="#667C80" d="M221.285,67.793c0.523,0,1.029,0,1.559,0
					c-0.016,0.687-0.172,1.302-0.768,1.695c-0.578,0.381-1.186,0.351-1.785,0.021c-0.135-0.076-0.271-0.156-0.408-0.231
					c-0.398-0.221-0.516-0.172-0.617,0.269c-0.514,0-1.027,0-1.568,0c0.02-0.684,0.16-1.303,0.762-1.695
					c0.584-0.382,1.201-0.36,1.807-0.02c0.129,0.072,0.256,0.149,0.387,0.22C221.051,68.27,221.154,68.229,221.285,67.793z"/>
			</g>
		</g>
	</g>
</g>
</svg>
