<?xml version="1.0" encoding="utf-8"?>
<!-- Generator: Adobe Illustrator 16.0.0, SVG Export Plug-In . SVG Version: 6.00 Build 0)  -->
<!DOCTYPE svg PUBLIC "-//W3C//DTD SVG 1.1//EN" "http://www.w3.org/Graphics/SVG/1.1/DTD/svg11.dtd">
<svg version="1.1" id="Layer_1" xmlns="http://www.w3.org/2000/svg" xmlns:xlink="http://www.w3.org/1999/xlink" x="0px" y="0px"
	 width="102px" height="40px" viewBox="64 50 102 40" enable-background="new 64 50 102 40" xml:space="preserve">
<g id="Logo-Negative" transform="translate(-285.000000, -255.000000)">
	<g id="logo_carto_n_90" transform="translate(285.000000, 255.000000)">
		<circle id="Halo" fill="#FFFFFF" fill-opacity="0.2" cx="146.044" cy="70" r="19.956"/>
		<path id="Logotype" fill="#FFFFFF" d="M70.564,76.632c2.8,0,4.418-1.219,5.619-2.873l-2.655-1.891
			c-0.764,0.927-1.546,1.545-2.873,1.545c-1.782,0-3.036-1.49-3.036-3.399v-0.036c0-1.854,1.254-3.382,3.036-3.382
			c1.218,0,2.055,0.6,2.782,1.49l2.655-2.055c-1.127-1.545-2.8-2.636-5.4-2.636c-3.854,0-6.691,2.909-6.691,6.618v0.036
			C64,73.851,66.927,76.632,70.564,76.632L70.564,76.632z M82.188,76.377h3.691l0.909-2.291h4.928l0.909,2.291h3.782l-5.418-12.818
			h-3.4L82.188,76.377z M87.825,71.341l1.436-3.601l1.418,3.601H87.825z M103.275,76.377h3.527v-3.854h1.563l2.564,3.854h4.055
			l-3.037-4.437c1.582-0.672,2.619-1.963,2.619-3.927v-0.036c0-1.255-0.382-2.219-1.127-2.964c-0.854-0.854-2.2-1.364-4.146-1.364
			h-6.018V76.377z M106.803,69.759v-3.072h2.328c1.164,0,1.909,0.509,1.909,1.527v0.036c0,0.927-0.709,1.509-1.891,1.509H106.803z
			 M125.09,76.377h3.527V66.74h3.818v-3.091H121.29v3.091h3.8V76.377z M146.044,76.652c3.674,0,6.651-2.979,6.651-6.652
			s-2.978-6.652-6.651-6.652c-3.675,0-6.652,2.979-6.652,6.652S142.369,76.652,146.044,76.652z"/>
	</g>
</g>
</svg>
