<?xml version="1.0" encoding="utf-8"?>
<!-- Generator: Adobe Illustrator 16.0.0, SVG Export Plug-In . SVG Version: 6.00 Build 0)  -->
<!DOCTYPE svg PUBLIC "-//W3C//DTD SVG 1.1//EN" "http://www.w3.org/Graphics/SVG/1.1/DTD/svg11.dtd">
<svg version="1.1" id="Layer_1" xmlns="http://www.w3.org/2000/svg" xmlns:xlink="http://www.w3.org/1999/xlink" x="0px" y="0px"
	 width="165px" height="50px" viewBox="18.5 4 165 50" enable-background="new 18.5 4 165 50" xml:space="preserve">
<g>
	<path fill="#82B600" d="M168.682,7.26h-8.232c-8.185,0-14.818,6.635-14.818,14.818s6.634,14.818,14.818,14.818h8.232
		c8.184,0,14.818-6.635,14.818-14.818S176.865,7.26,168.682,7.26z"/>
	<g>
		<g>
			<g>
				<path fill="#FFFFFF" d="M168.463,29.01c-0.976,0.304-2.405,0.477-3.596,0.477c-4.312,0-7.627-3.228-7.627-7.451
					c0-4.248,3.206-7.368,7.561-7.368c1.019,0,2.212,0.129,2.968,0.325c0.628,0.173,0.955,0.326,1.735,0.759l-0.675,1.473
					c-0.346-0.195-0.583-0.303-0.756-0.39c-0.824-0.347-1.95-0.564-3.1-0.564c-2.016,0-3.312,0.541-4.418,1.82
					c-0.888,1.04-1.408,2.405-1.408,3.814c0,3.444,2.642,5.979,6.217,5.979c0.716,0,1.216-0.065,2.361-0.303v-4.681h1.779v5.763
					C169.048,28.837,168.702,28.945,168.463,29.01z"/>
			</g>
		</g>
		<g>
			<path fill="#FFFFFF" d="M29.145,45.026c-0.022,3.548-1.383,5.714-5.276,5.714c-2.373,0-4.723-1.06-4.931-3.594h1.452
				c0.323,1.751,1.867,2.373,3.479,2.373c2.672,0,3.825-1.59,3.825-4.493v-1.612h-0.047c-0.669,1.451-2.074,2.441-3.779,2.441
				c-3.802,0-5.368-2.718-5.368-6.105c0-3.271,1.936-5.99,5.368-5.99c1.729,0,3.203,1.083,3.779,2.396h0.047v-2.051h1.451
				L29.145,45.026L29.145,45.026z M27.693,39.911c0-2.326-1.084-4.93-3.825-4.93c-2.765,0-3.917,2.465-3.917,4.93
				c0,2.396,1.245,4.724,3.917,4.724C26.38,44.635,27.693,42.331,27.693,39.911z"/>
			<path fill="#FFFFFF" d="M32.602,40.441c0.022,2.119,1.13,4.679,3.917,4.679c2.12,0,3.271-1.245,3.732-3.042h1.452
				c-0.622,2.695-2.188,4.263-5.185,4.263c-3.778,0-5.368-2.903-5.368-6.291c0-3.133,1.59-6.29,5.368-6.29
				c3.824,0,5.346,3.342,5.229,6.682H32.602z M40.298,39.22c-0.07-2.188-1.429-4.238-3.779-4.238c-2.373,0-3.687,2.072-3.917,4.238
				H40.298z"/>
			<path fill="#FFFFFF" d="M54.836,40.05c0,3.41-1.98,6.291-5.621,6.291s-5.623-2.881-5.623-6.291c0-3.411,1.982-6.29,5.623-6.29
				S54.836,36.639,54.836,40.05z M45.044,40.05c0,2.534,1.383,5.069,4.17,5.069c2.788,0,4.169-2.535,4.169-5.069
				s-1.382-5.068-4.169-5.068S45.044,37.516,45.044,40.05z"/>
			<path fill="#FFFFFF" d="M67.303,45.026c-0.023,3.548-1.384,5.714-5.276,5.714c-2.374,0-4.723-1.06-4.931-3.594h1.451
				c0.324,1.751,1.866,2.373,3.48,2.373c2.672,0,3.824-1.59,3.824-4.493v-1.612h-0.046c-0.668,1.451-2.073,2.441-3.778,2.441
				c-3.802,0-5.368-2.718-5.368-6.105c0-3.271,1.935-5.99,5.368-5.99c1.728,0,3.203,1.083,3.778,2.396h0.046v-2.051h1.452
				L67.303,45.026L67.303,45.026z M65.851,39.911c0-2.326-1.082-4.93-3.825-4.93c-2.765,0-3.917,2.465-3.917,4.93
				c0,2.396,1.244,4.724,3.917,4.724C64.536,44.635,65.851,42.331,65.851,39.911z"/>
			<path fill="#FFFFFF" d="M70.206,34.105h1.336v2.788h0.047c0.737-1.912,2.35-3.042,4.493-2.949v1.452
				c-2.627-0.14-4.425,1.797-4.425,4.262v6.336h-1.451V34.105z"/>
			<path fill="#FFFFFF" d="M77.556,37.745c0.139-2.788,2.097-3.985,4.816-3.985c2.097,0,4.377,0.645,4.377,3.824v6.312
				c0,0.553,0.277,0.875,0.854,0.875c0.16,0,0.346-0.046,0.46-0.092V45.9c-0.322,0.069-0.553,0.092-0.944,0.092
				c-1.474,0-1.704-0.829-1.704-2.072h-0.047c-1.013,1.543-2.049,2.418-4.331,2.418c-2.188,0-3.986-1.082-3.986-3.479
				c0-3.341,3.248-3.456,6.382-3.825c1.198-0.139,1.867-0.301,1.867-1.612c0-1.96-1.405-2.442-3.11-2.442
				c-1.797,0-3.134,0.828-3.18,2.764h-1.453V37.745z M85.298,39.497h-0.046c-0.185,0.345-0.831,0.461-1.222,0.53
				c-2.466,0.437-5.529,0.414-5.529,2.741c0,1.452,1.289,2.351,2.649,2.351c2.212,0,4.169-1.405,4.147-3.733V39.497z"/>
			<path fill="#FFFFFF" d="M89.768,34.105h1.337v2.257h0.046c0.669-1.612,2.328-2.603,4.24-2.603c3.618,0,5.345,2.926,5.345,6.29
				s-1.728,6.291-5.345,6.291c-1.774,0-3.502-0.9-4.125-2.604h-0.047v6.658h-1.451V34.105L89.768,34.105z M95.391,34.981
				c-3.203,0-4.17,2.373-4.17,5.068c0,2.465,1.082,5.069,4.17,5.069c2.766,0,3.894-2.604,3.894-5.069S98.156,34.981,95.391,34.981z"
				/>
			<path fill="#FFFFFF" d="M102.739,29.529h1.452v6.627h0.048c0.528-1.428,2.118-2.396,3.8-2.396c3.342,0,4.356,1.751,4.356,4.585
				v7.649h-1.453v-7.419c0-2.05-0.668-3.594-3.02-3.594c-2.303,0-3.686,1.751-3.731,4.077v6.936h-1.452V29.529z"/>
			<path fill="#FFFFFF" d="M115.298,29.529h1.451v2.341h-1.451V29.529z M115.298,34.105h1.451v11.888h-1.451V34.105z"/>
			<path fill="#FFFFFF" d="M127.764,37.839c-0.394-1.774-1.475-2.857-3.364-2.857c-2.789,0-4.17,2.534-4.17,5.068
				s1.382,5.069,4.17,5.069c1.797,0,3.271-1.405,3.456-3.388h1.451c-0.393,2.857-2.257,4.609-4.907,4.609
				c-3.641,0-5.623-2.881-5.623-6.291c0-3.411,1.982-6.29,5.623-6.29c2.534,0,4.492,1.359,4.816,4.077h-1.452V37.839z"/>
			<path fill="#FFFFFF" d="M131.451,37.745c0.137-2.788,2.095-3.985,4.814-3.985c2.097,0,4.378,0.645,4.378,3.824v6.312
				c0,0.553,0.276,0.875,0.852,0.875c0.161,0,0.346-0.046,0.462-0.092V45.9c-0.323,0.069-0.554,0.092-0.944,0.092
				c-1.475,0-1.706-0.829-1.706-2.072h-0.045c-1.015,1.543-2.05,2.418-4.332,2.418c-2.188,0-3.986-1.082-3.986-3.479
				c0-3.341,3.249-3.456,6.382-3.825c1.199-0.139,1.867-0.301,1.867-1.612c0-1.96-1.405-2.442-3.11-2.442
				c-1.797,0-3.133,0.828-3.18,2.764h-1.451V37.745z M139.192,39.497h-0.047c-0.185,0.345-0.83,0.461-1.22,0.53
				c-2.467,0.437-5.53,0.414-5.53,2.741c0,1.452,1.289,2.351,2.65,2.351c2.211,0,4.169-1.405,4.146-3.733V39.497z"/>
		</g>
	</g>
</g>
</svg>
