<?xml version="1.0" encoding="utf-8"?>
<!-- Generator: Adobe Illustrator 16.0.0, SVG Export Plug-In . SVG Version: 6.00 Build 0)  -->
<!DOCTYPE svg PUBLIC "-//W3C//DTD SVG 1.0//EN" "http://www.w3.org/TR/2001/REC-SVG-20010904/DTD/svg10.dtd">
<svg version="1.0" xmlns="http://www.w3.org/2000/svg" xmlns:xlink="http://www.w3.org/1999/xlink" x="0px" y="0px" width="1280px"
	 height="64px" viewBox="0 0 1280 64" enable-background="new 0 0 1280 64" xml:space="preserve">
<g id="Línea">
	<linearGradient id="SVGID_1_" gradientUnits="userSpaceOnUse" x1="40.0156" y1="15.0742" x2="1240.3809" y2="15.0742">
		<stop  offset="0" style="stop-color:#D5C6E1"/>
		<stop  offset="1" style="stop-color:#662D91"/>
	</linearGradient>
	<rect x="40.016" y="13.074" fill="url(#SVGID_1_)" width="1200.365" height="4"/>
</g>
<g id="Textos">
	<g>
		<g>
			<path fill="#667C80" d="M5.282,50.078c1.008,0,1.771,0.26,2.289,0.777c0.518,0.518,0.777,1.244,0.777,2.176
				c0,0.934-0.259,1.662-0.777,2.186c-0.518,0.521-1.281,0.779-2.289,0.77H2.229v4.088h-1.33v-9.996H5.282z M4.833,54.865
				c0.756,0.01,1.309-0.145,1.659-0.461c0.35-0.318,0.525-0.775,0.525-1.373c0-0.596-0.175-1.051-0.525-1.365
				c-0.35-0.312-0.903-0.469-1.659-0.469H2.229v3.668H4.833z"/>
			<path fill="#667C80" d="M10.854,52.836v1.525h0.028c0.289-0.588,0.644-1.021,1.064-1.301c0.42-0.281,0.952-0.412,1.596-0.393
				v1.26c-0.476,0-0.882,0.066-1.218,0.195c-0.336,0.131-0.606,0.322-0.812,0.574c-0.205,0.252-0.354,0.559-0.448,0.918
				s-0.14,0.771-0.14,1.238v3.221h-1.19v-7.238H10.854z"/>
			<path fill="#667C80" d="M19.31,59.611c-0.542,0.412-1.223,0.617-2.044,0.617c-0.579,0-1.081-0.094-1.505-0.281
				c-0.425-0.186-0.782-0.447-1.071-0.783c-0.29-0.336-0.506-0.736-0.651-1.203c-0.145-0.467-0.227-0.977-0.245-1.527
				c0-0.551,0.084-1.055,0.252-1.512s0.404-0.854,0.707-1.189s0.663-0.598,1.078-0.785c0.415-0.186,0.87-0.279,1.365-0.279
				c0.644,0,1.178,0.133,1.603,0.398s0.766,0.605,1.022,1.016c0.257,0.41,0.434,0.859,0.532,1.344
				c0.098,0.486,0.138,0.947,0.119,1.387h-5.418c-0.01,0.316,0.028,0.617,0.112,0.902s0.219,0.537,0.406,0.756
				c0.187,0.219,0.424,0.395,0.714,0.525c0.289,0.131,0.63,0.195,1.022,0.195c0.504,0,0.917-0.115,1.239-0.35
				c0.322-0.232,0.534-0.588,0.637-1.064h1.176C20.201,58.59,19.851,59.201,19.31,59.611z M19.022,54.965
				c-0.107-0.252-0.252-0.471-0.434-0.652c-0.182-0.182-0.396-0.326-0.644-0.434c-0.247-0.107-0.52-0.16-0.819-0.16
				c-0.308,0-0.586,0.053-0.833,0.16c-0.248,0.107-0.46,0.254-0.637,0.441c-0.178,0.186-0.317,0.404-0.42,0.65
				c-0.103,0.248-0.163,0.512-0.182,0.791h4.158C19.193,55.482,19.13,55.217,19.022,54.965z"/>
			<path fill="#667C80" d="M22.782,52.836v1.525h0.028c0.289-0.588,0.644-1.021,1.064-1.301c0.42-0.281,0.952-0.412,1.596-0.393
				v1.26c-0.476,0-0.882,0.066-1.218,0.195c-0.336,0.131-0.606,0.322-0.812,0.574c-0.205,0.252-0.354,0.559-0.448,0.918
				s-0.14,0.771-0.14,1.238v3.221h-1.19v-7.238H22.782z"/>
			<path fill="#667C80" d="M27.443,52.836v1.525h0.028c0.289-0.588,0.644-1.021,1.064-1.301c0.42-0.281,0.952-0.412,1.596-0.393
				v1.26c-0.476,0-0.882,0.066-1.218,0.195c-0.336,0.131-0.606,0.322-0.812,0.574c-0.205,0.252-0.354,0.559-0.448,0.918
				s-0.14,0.771-0.14,1.238v3.221h-1.19v-7.238H27.443z"/>
			<path fill="#667C80" d="M30.607,54.971c0.149-0.461,0.373-0.863,0.672-1.203c0.299-0.342,0.667-0.609,1.106-0.805
				c0.439-0.197,0.943-0.295,1.512-0.295c0.579,0,1.085,0.098,1.519,0.295c0.434,0.195,0.8,0.463,1.099,0.805
				c0.298,0.34,0.522,0.742,0.672,1.203c0.149,0.463,0.224,0.959,0.224,1.492c0,0.531-0.075,1.025-0.224,1.482
				c-0.149,0.459-0.374,0.857-0.672,1.197c-0.299,0.342-0.665,0.607-1.099,0.799s-0.94,0.287-1.519,0.287
				c-0.569,0-1.073-0.096-1.512-0.287c-0.438-0.191-0.807-0.457-1.106-0.799c-0.299-0.34-0.523-0.738-0.672-1.197
				c-0.149-0.457-0.224-0.951-0.224-1.482C30.383,55.93,30.458,55.434,30.607,54.971z M31.818,57.631
				c0.117,0.342,0.278,0.625,0.483,0.854s0.446,0.404,0.721,0.525c0.275,0.121,0.567,0.182,0.875,0.182s0.6-0.061,0.875-0.182
				c0.275-0.121,0.516-0.297,0.721-0.525c0.206-0.229,0.366-0.512,0.483-0.854c0.116-0.34,0.175-0.73,0.175-1.168
				c0-0.439-0.059-0.83-0.175-1.17c-0.117-0.34-0.278-0.627-0.483-0.861c-0.205-0.232-0.446-0.41-0.721-0.531
				c-0.275-0.121-0.567-0.182-0.875-0.182s-0.6,0.061-0.875,0.182c-0.275,0.121-0.516,0.299-0.721,0.531
				c-0.205,0.234-0.366,0.521-0.483,0.861s-0.175,0.73-0.175,1.17C31.644,56.9,31.702,57.291,31.818,57.631z"/>
			<path fill="#667C80" d="M39.931,52.836V53.9h0.028c0.541-0.822,1.321-1.232,2.338-1.232c0.448,0,0.854,0.094,1.218,0.279
				c0.364,0.188,0.621,0.504,0.77,0.953c0.243-0.393,0.562-0.695,0.959-0.91c0.396-0.215,0.833-0.322,1.309-0.322
				c0.364,0,0.693,0.039,0.987,0.119s0.546,0.203,0.756,0.371s0.374,0.385,0.49,0.65s0.175,0.586,0.175,0.959v5.307h-1.19v-4.746
				c0-0.225-0.019-0.434-0.056-0.631c-0.037-0.195-0.107-0.365-0.21-0.51s-0.245-0.26-0.427-0.344s-0.418-0.125-0.707-0.125
				c-0.588,0-1.05,0.168-1.386,0.504s-0.504,0.783-0.504,1.344v4.508h-1.19v-4.746c0-0.232-0.021-0.447-0.063-0.645
				c-0.042-0.195-0.114-0.365-0.217-0.51c-0.103-0.145-0.241-0.258-0.413-0.336c-0.173-0.08-0.395-0.119-0.665-0.119
				c-0.346,0-0.642,0.068-0.889,0.209s-0.448,0.309-0.602,0.504c-0.154,0.197-0.266,0.398-0.336,0.609
				c-0.07,0.209-0.105,0.385-0.105,0.525v4.508h-1.19v-7.238H39.931z"/>
			<path fill="#667C80" d="M57.165,60.047c-0.206,0.121-0.49,0.182-0.854,0.182c-0.308,0-0.553-0.088-0.735-0.26
				c-0.182-0.172-0.273-0.455-0.273-0.848c-0.327,0.393-0.707,0.676-1.141,0.848c-0.434,0.172-0.903,0.26-1.407,0.26
				c-0.327,0-0.637-0.037-0.931-0.113c-0.294-0.074-0.548-0.191-0.763-0.35c-0.215-0.158-0.385-0.365-0.511-0.623
				c-0.126-0.256-0.189-0.566-0.189-0.93c0-0.412,0.07-0.748,0.21-1.01c0.14-0.26,0.324-0.473,0.553-0.637
				c0.229-0.162,0.49-0.287,0.784-0.371c0.294-0.084,0.595-0.154,0.903-0.209c0.327-0.066,0.637-0.115,0.931-0.146
				c0.294-0.033,0.553-0.08,0.777-0.141s0.401-0.15,0.532-0.266c0.131-0.117,0.196-0.287,0.196-0.512
				c0-0.262-0.049-0.471-0.147-0.631c-0.098-0.158-0.224-0.279-0.378-0.363c-0.154-0.084-0.327-0.141-0.518-0.168
				c-0.191-0.027-0.38-0.041-0.567-0.041c-0.504,0-0.924,0.096-1.26,0.287s-0.518,0.553-0.546,1.084h-1.19
				c0.019-0.447,0.112-0.826,0.28-1.135c0.168-0.307,0.392-0.557,0.672-0.748c0.28-0.191,0.6-0.328,0.959-0.412
				s0.744-0.127,1.155-0.127c0.327,0,0.651,0.023,0.973,0.07c0.322,0.047,0.613,0.143,0.875,0.285
				c0.261,0.145,0.471,0.348,0.63,0.609c0.159,0.26,0.238,0.6,0.238,1.02v3.715c0,0.279,0.016,0.484,0.049,0.615
				c0.032,0.131,0.142,0.195,0.329,0.195c0.103,0,0.224-0.018,0.364-0.057V60.047z M55.233,56.336
				c-0.149,0.111-0.345,0.193-0.588,0.244s-0.497,0.092-0.763,0.125s-0.534,0.07-0.805,0.111c-0.271,0.043-0.514,0.109-0.728,0.203
				c-0.215,0.092-0.39,0.225-0.525,0.396s-0.203,0.406-0.203,0.703c0,0.195,0.04,0.359,0.119,0.494
				c0.08,0.135,0.182,0.244,0.308,0.328s0.273,0.145,0.441,0.182s0.345,0.055,0.532,0.055c0.392,0,0.728-0.053,1.008-0.16
				c0.28-0.107,0.509-0.242,0.686-0.404s0.308-0.338,0.392-0.529c0.084-0.189,0.126-0.369,0.126-0.535V56.336z"/>
			<path fill="#667C80" d="M59.391,52.836v1.148h0.028c0.495-0.877,1.279-1.316,2.352-1.316c0.476,0,0.873,0.064,1.19,0.195
				s0.574,0.314,0.77,0.547s0.333,0.512,0.413,0.832c0.079,0.322,0.119,0.68,0.119,1.072v4.76h-1.19v-4.9
				c0-0.447-0.131-0.803-0.392-1.064c-0.262-0.26-0.621-0.391-1.078-0.391c-0.364,0-0.679,0.055-0.945,0.168
				c-0.266,0.111-0.488,0.27-0.665,0.475c-0.178,0.205-0.311,0.447-0.399,0.721c-0.089,0.275-0.133,0.578-0.133,0.904v4.088h-1.19
				v-7.238H59.391z"/>
			<path fill="#667C80" d="M65.887,54.971c0.149-0.461,0.373-0.863,0.672-1.203c0.299-0.342,0.667-0.609,1.106-0.805
				c0.439-0.197,0.943-0.295,1.512-0.295c0.579,0,1.085,0.098,1.519,0.295c0.434,0.195,0.8,0.463,1.099,0.805
				c0.298,0.34,0.522,0.742,0.672,1.203c0.149,0.463,0.224,0.959,0.224,1.492c0,0.531-0.075,1.025-0.224,1.482
				c-0.149,0.459-0.374,0.857-0.672,1.197c-0.299,0.342-0.665,0.607-1.099,0.799s-0.94,0.287-1.519,0.287
				c-0.569,0-1.073-0.096-1.512-0.287c-0.438-0.191-0.807-0.457-1.106-0.799c-0.299-0.34-0.523-0.738-0.672-1.197
				c-0.149-0.457-0.224-0.951-0.224-1.482C65.663,55.93,65.738,55.434,65.887,54.971z M67.098,57.631
				c0.117,0.342,0.278,0.625,0.483,0.854s0.446,0.404,0.721,0.525c0.275,0.121,0.567,0.182,0.875,0.182s0.6-0.061,0.875-0.182
				c0.275-0.121,0.516-0.297,0.721-0.525c0.206-0.229,0.366-0.512,0.483-0.854c0.116-0.34,0.175-0.73,0.175-1.168
				c0-0.439-0.059-0.83-0.175-1.17c-0.117-0.34-0.278-0.627-0.483-0.861c-0.205-0.232-0.446-0.41-0.721-0.531
				c-0.275-0.121-0.567-0.182-0.875-0.182s-0.6,0.061-0.875,0.182c-0.275,0.121-0.516,0.299-0.721,0.531
				c-0.205,0.234-0.366,0.521-0.483,0.861s-0.175,0.73-0.175,1.17C66.923,56.9,66.981,57.291,67.098,57.631z"/>
			<path fill="#667C80" d="M75.001,58.457c0.112,0.182,0.259,0.326,0.441,0.434s0.387,0.186,0.616,0.23
				c0.229,0.047,0.464,0.07,0.707,0.07c0.187,0,0.383-0.014,0.588-0.041c0.205-0.029,0.394-0.08,0.567-0.154
				c0.172-0.074,0.315-0.184,0.427-0.33c0.112-0.145,0.168-0.328,0.168-0.553c0-0.307-0.117-0.541-0.35-0.699
				c-0.233-0.158-0.525-0.287-0.875-0.385c-0.35-0.098-0.73-0.188-1.141-0.266c-0.411-0.08-0.791-0.191-1.141-0.336
				s-0.642-0.348-0.875-0.609s-0.35-0.625-0.35-1.092c0-0.365,0.082-0.678,0.245-0.939c0.163-0.26,0.373-0.473,0.63-0.637
				c0.257-0.162,0.546-0.283,0.868-0.363c0.322-0.08,0.642-0.119,0.959-0.119c0.411,0,0.789,0.035,1.134,0.105
				s0.651,0.191,0.917,0.363c0.266,0.174,0.479,0.406,0.637,0.701c0.159,0.293,0.252,0.66,0.28,1.098h-1.19
				c-0.019-0.232-0.079-0.426-0.182-0.58c-0.103-0.154-0.233-0.277-0.392-0.371c-0.159-0.094-0.334-0.162-0.525-0.203
				c-0.191-0.043-0.385-0.062-0.581-0.062c-0.178,0-0.357,0.014-0.539,0.041c-0.182,0.027-0.348,0.078-0.497,0.146
				c-0.149,0.07-0.271,0.164-0.364,0.281s-0.14,0.268-0.14,0.455c0,0.205,0.072,0.375,0.217,0.51
				c0.145,0.137,0.329,0.248,0.553,0.336c0.224,0.09,0.476,0.164,0.756,0.225s0.56,0.123,0.84,0.189
				c0.299,0.064,0.59,0.145,0.875,0.238c0.285,0.092,0.537,0.217,0.756,0.371c0.219,0.152,0.396,0.348,0.532,0.58
				c0.135,0.234,0.203,0.523,0.203,0.869c0,0.438-0.091,0.803-0.273,1.092c-0.182,0.289-0.42,0.521-0.714,0.699
				c-0.294,0.178-0.625,0.301-0.994,0.371c-0.369,0.07-0.735,0.105-1.099,0.105c-0.401,0-0.784-0.043-1.148-0.127
				c-0.364-0.084-0.686-0.221-0.966-0.412c-0.28-0.191-0.504-0.443-0.672-0.756s-0.261-0.693-0.28-1.143h1.19
				C74.828,58.053,74.889,58.275,75.001,58.457z"/>
		</g>
	</g>
	<g>
		<g>
			<path fill="#667C80" d="M107.812,50.078c1.54,0,2.725,0.393,3.556,1.176c0.831,0.783,1.246,1.979,1.246,3.584
				c0,0.84-0.094,1.584-0.28,2.232c-0.187,0.65-0.476,1.195-0.868,1.639c-0.392,0.443-0.891,0.781-1.498,1.016
				c-0.607,0.232-1.326,0.35-2.156,0.35h-3.43v-9.996H107.812z M107.924,58.953c0.149,0,0.336-0.012,0.56-0.033
				c0.224-0.023,0.462-0.08,0.714-0.17c0.252-0.088,0.501-0.217,0.749-0.385c0.247-0.168,0.469-0.396,0.665-0.686
				c0.196-0.289,0.357-0.65,0.483-1.084c0.126-0.436,0.189-0.959,0.189-1.576c0-0.598-0.059-1.131-0.175-1.604
				c-0.117-0.471-0.308-0.871-0.574-1.203s-0.609-0.584-1.029-0.756c-0.42-0.172-0.938-0.26-1.554-0.26h-2.24v7.756H107.924z"/>
			<path fill="#667C80" d="M113.875,54.971c0.149-0.461,0.373-0.863,0.672-1.203c0.299-0.342,0.667-0.609,1.106-0.805
				c0.439-0.197,0.943-0.295,1.512-0.295c0.579,0,1.085,0.098,1.519,0.295c0.434,0.195,0.8,0.463,1.099,0.805
				c0.298,0.34,0.522,0.742,0.672,1.203c0.149,0.463,0.224,0.959,0.224,1.492c0,0.531-0.075,1.025-0.224,1.482
				c-0.149,0.459-0.374,0.857-0.672,1.197c-0.299,0.342-0.665,0.607-1.099,0.799s-0.94,0.287-1.519,0.287
				c-0.569,0-1.073-0.096-1.512-0.287c-0.438-0.191-0.807-0.457-1.106-0.799c-0.299-0.34-0.523-0.738-0.672-1.197
				c-0.149-0.457-0.224-0.951-0.224-1.482C113.65,55.93,113.725,55.434,113.875,54.971z M115.085,57.631
				c0.117,0.342,0.278,0.625,0.483,0.854s0.446,0.404,0.721,0.525c0.275,0.121,0.567,0.182,0.875,0.182s0.6-0.061,0.875-0.182
				c0.275-0.121,0.516-0.297,0.721-0.525c0.206-0.229,0.366-0.512,0.483-0.854c0.116-0.34,0.175-0.73,0.175-1.168
				c0-0.439-0.059-0.83-0.175-1.17c-0.117-0.34-0.278-0.627-0.483-0.861c-0.205-0.232-0.446-0.41-0.721-0.531
				c-0.275-0.121-0.567-0.182-0.875-0.182s-0.6,0.061-0.875,0.182c-0.275,0.121-0.516,0.299-0.721,0.531
				c-0.205,0.234-0.366,0.521-0.483,0.861s-0.175,0.73-0.175,1.17C114.911,56.9,114.969,57.291,115.085,57.631z"/>
			<path fill="#667C80" d="M123.198,52.836V53.9h0.028c0.541-0.822,1.321-1.232,2.338-1.232c0.448,0,0.854,0.094,1.218,0.279
				c0.364,0.188,0.621,0.504,0.77,0.953c0.243-0.393,0.562-0.695,0.959-0.91c0.396-0.215,0.833-0.322,1.309-0.322
				c0.364,0,0.693,0.039,0.987,0.119s0.546,0.203,0.756,0.371s0.374,0.385,0.49,0.65s0.175,0.586,0.175,0.959v5.307h-1.19v-4.746
				c0-0.225-0.019-0.434-0.056-0.631c-0.037-0.195-0.107-0.365-0.21-0.51s-0.245-0.26-0.427-0.344s-0.418-0.125-0.707-0.125
				c-0.588,0-1.05,0.168-1.386,0.504s-0.504,0.783-0.504,1.344v4.508h-1.19v-4.746c0-0.232-0.021-0.447-0.063-0.645
				c-0.042-0.195-0.114-0.365-0.217-0.51c-0.103-0.145-0.241-0.258-0.413-0.336c-0.173-0.08-0.395-0.119-0.665-0.119
				c-0.346,0-0.642,0.068-0.889,0.209s-0.448,0.309-0.602,0.504c-0.154,0.197-0.266,0.398-0.336,0.609
				c-0.07,0.209-0.105,0.385-0.105,0.525v4.508h-1.19v-7.238H123.198z"/>
			<path fill="#667C80" d="M134.09,51.533v-1.455h1.19v1.455H134.09z M135.28,52.836v7.238h-1.19v-7.238H135.28z"/>
			<path fill="#667C80" d="M138.248,52.836v1.148h0.028c0.495-0.877,1.279-1.316,2.352-1.316c0.476,0,0.873,0.064,1.19,0.195
				s0.574,0.314,0.77,0.547s0.333,0.512,0.413,0.832c0.079,0.322,0.119,0.68,0.119,1.072v4.76h-1.19v-4.9
				c0-0.447-0.131-0.803-0.392-1.064c-0.262-0.26-0.621-0.391-1.078-0.391c-0.364,0-0.679,0.055-0.945,0.168
				c-0.266,0.111-0.488,0.27-0.665,0.475c-0.178,0.205-0.311,0.447-0.399,0.721c-0.089,0.275-0.133,0.578-0.133,0.904v4.088h-1.19
				v-7.238H138.248z"/>
			<path fill="#667C80" d="M144.982,51.533v-1.455h1.19v1.455H144.982z M146.172,52.836v7.238h-1.19v-7.238H146.172z"/>
			<path fill="#667C80" d="M147.852,54.971c0.149-0.461,0.373-0.863,0.672-1.203c0.299-0.342,0.667-0.609,1.106-0.805
				c0.439-0.197,0.943-0.295,1.512-0.295c0.579,0,1.085,0.098,1.519,0.295c0.434,0.195,0.8,0.463,1.099,0.805
				c0.298,0.34,0.522,0.742,0.672,1.203c0.149,0.463,0.224,0.959,0.224,1.492c0,0.531-0.075,1.025-0.224,1.482
				c-0.149,0.459-0.374,0.857-0.672,1.197c-0.299,0.342-0.665,0.607-1.099,0.799s-0.94,0.287-1.519,0.287
				c-0.569,0-1.073-0.096-1.512-0.287c-0.438-0.191-0.807-0.457-1.106-0.799c-0.299-0.34-0.523-0.738-0.672-1.197
				c-0.149-0.457-0.224-0.951-0.224-1.482C147.628,55.93,147.703,55.434,147.852,54.971z M149.063,57.631
				c0.117,0.342,0.278,0.625,0.483,0.854s0.446,0.404,0.721,0.525c0.275,0.121,0.567,0.182,0.875,0.182s0.6-0.061,0.875-0.182
				c0.275-0.121,0.516-0.297,0.721-0.525c0.206-0.229,0.366-0.512,0.483-0.854c0.116-0.34,0.175-0.73,0.175-1.168
				c0-0.439-0.059-0.83-0.175-1.17c-0.117-0.34-0.278-0.627-0.483-0.861c-0.205-0.232-0.446-0.41-0.721-0.531
				c-0.275-0.121-0.567-0.182-0.875-0.182s-0.6,0.061-0.875,0.182c-0.275,0.121-0.516,0.299-0.721,0.531
				c-0.205,0.234-0.366,0.521-0.483,0.861s-0.175,0.73-0.175,1.17C148.888,56.9,148.946,57.291,149.063,57.631z"/>
			<path fill="#667C80" d="M166.185,51.492c-0.509-0.355-1.113-0.531-1.813-0.531c-0.597,0-1.108,0.111-1.533,0.336
				c-0.425,0.223-0.775,0.523-1.05,0.902c-0.275,0.377-0.478,0.809-0.609,1.295c-0.131,0.484-0.196,0.988-0.196,1.512
				c0,0.57,0.065,1.109,0.196,1.617s0.333,0.951,0.609,1.33c0.275,0.377,0.628,0.68,1.057,0.902c0.429,0.225,0.943,0.336,1.54,0.336
				c0.438,0,0.828-0.072,1.169-0.217s0.635-0.346,0.882-0.602c0.248-0.256,0.441-0.562,0.581-0.918
				c0.14-0.354,0.224-0.736,0.252-1.146h1.33c-0.131,1.26-0.564,2.24-1.302,2.939s-1.746,1.051-3.024,1.051
				c-0.775,0-1.452-0.135-2.03-0.4s-1.059-0.631-1.442-1.098s-0.67-1.018-0.861-1.652c-0.191-0.635-0.287-1.316-0.287-2.045
				s0.103-1.412,0.308-2.051c0.205-0.639,0.506-1.197,0.903-1.672c0.396-0.477,0.891-0.852,1.484-1.127s1.271-0.414,2.037-0.414
				c0.522,0,1.017,0.07,1.484,0.211c0.467,0.139,0.882,0.344,1.246,0.615c0.364,0.271,0.667,0.609,0.91,1.016
				c0.243,0.406,0.401,0.875,0.476,1.406h-1.33C167.022,52.379,166.693,51.848,166.185,51.492z"/>
			<path fill="#667C80" d="M176.468,60.047c-0.206,0.121-0.49,0.182-0.854,0.182c-0.308,0-0.553-0.088-0.735-0.26
				c-0.182-0.172-0.273-0.455-0.273-0.848c-0.327,0.393-0.707,0.676-1.141,0.848c-0.434,0.172-0.903,0.26-1.407,0.26
				c-0.327,0-0.637-0.037-0.931-0.113c-0.294-0.074-0.548-0.191-0.763-0.35c-0.215-0.158-0.385-0.365-0.511-0.623
				c-0.126-0.256-0.189-0.566-0.189-0.93c0-0.412,0.07-0.748,0.21-1.01c0.14-0.26,0.324-0.473,0.553-0.637
				c0.229-0.162,0.49-0.287,0.784-0.371c0.294-0.084,0.595-0.154,0.903-0.209c0.327-0.066,0.637-0.115,0.931-0.146
				c0.294-0.033,0.553-0.08,0.777-0.141s0.401-0.15,0.532-0.266c0.131-0.117,0.196-0.287,0.196-0.512
				c0-0.262-0.049-0.471-0.147-0.631c-0.098-0.158-0.224-0.279-0.378-0.363c-0.154-0.084-0.327-0.141-0.518-0.168
				c-0.191-0.027-0.38-0.041-0.567-0.041c-0.504,0-0.924,0.096-1.26,0.287s-0.518,0.553-0.546,1.084h-1.19
				c0.019-0.447,0.112-0.826,0.28-1.135c0.168-0.307,0.392-0.557,0.672-0.748c0.28-0.191,0.6-0.328,0.959-0.412
				s0.744-0.127,1.155-0.127c0.327,0,0.651,0.023,0.973,0.07c0.322,0.047,0.613,0.143,0.875,0.285
				c0.261,0.145,0.471,0.348,0.63,0.609c0.159,0.26,0.238,0.6,0.238,1.02v3.715c0,0.279,0.016,0.484,0.049,0.615
				c0.032,0.131,0.142,0.195,0.329,0.195c0.103,0,0.224-0.018,0.364-0.057V60.047z M174.536,56.336
				c-0.149,0.111-0.345,0.193-0.588,0.244s-0.497,0.092-0.763,0.125s-0.534,0.07-0.805,0.111c-0.271,0.043-0.514,0.109-0.728,0.203
				c-0.215,0.092-0.39,0.225-0.525,0.396s-0.203,0.406-0.203,0.703c0,0.195,0.04,0.359,0.119,0.494
				c0.08,0.135,0.182,0.244,0.308,0.328s0.273,0.145,0.441,0.182s0.345,0.055,0.532,0.055c0.392,0,0.728-0.053,1.008-0.16
				c0.28-0.107,0.509-0.242,0.686-0.404s0.308-0.338,0.392-0.529c0.084-0.189,0.126-0.369,0.126-0.535V56.336z"/>
			<path fill="#667C80" d="M178.651,52.836v1.525h0.028c0.289-0.588,0.644-1.021,1.064-1.301c0.42-0.281,0.952-0.412,1.596-0.393
				v1.26c-0.476,0-0.882,0.066-1.218,0.195c-0.336,0.131-0.606,0.322-0.812,0.574c-0.205,0.252-0.354,0.559-0.448,0.918
				s-0.14,0.771-0.14,1.238v3.221h-1.19v-7.238H178.651z"/>
			<path fill="#667C80" d="M185.33,52.836v1.051h-1.442v4.494c0,0.139,0.012,0.252,0.035,0.336c0.023,0.084,0.067,0.148,0.133,0.195
				s0.156,0.076,0.273,0.092c0.117,0.014,0.269,0.02,0.455,0.02h0.546v1.051h-0.91c-0.308,0-0.572-0.021-0.791-0.062
				c-0.219-0.043-0.397-0.119-0.532-0.232c-0.135-0.111-0.236-0.27-0.301-0.475c-0.065-0.205-0.098-0.477-0.098-0.812v-4.605h-1.232
				v-1.051h1.232v-2.17h1.19v2.17H185.33z"/>
			<path fill="#667C80" d="M193.057,60.047c-0.206,0.121-0.49,0.182-0.854,0.182c-0.308,0-0.553-0.088-0.735-0.26
				c-0.182-0.172-0.273-0.455-0.273-0.848c-0.327,0.393-0.707,0.676-1.141,0.848c-0.434,0.172-0.903,0.26-1.407,0.26
				c-0.327,0-0.637-0.037-0.931-0.113c-0.294-0.074-0.548-0.191-0.763-0.35c-0.215-0.158-0.385-0.365-0.511-0.623
				c-0.126-0.256-0.189-0.566-0.189-0.93c0-0.412,0.07-0.748,0.21-1.01c0.14-0.26,0.324-0.473,0.553-0.637
				c0.229-0.162,0.49-0.287,0.784-0.371c0.294-0.084,0.595-0.154,0.903-0.209c0.327-0.066,0.637-0.115,0.931-0.146
				c0.294-0.033,0.553-0.08,0.777-0.141s0.401-0.15,0.532-0.266c0.131-0.117,0.196-0.287,0.196-0.512
				c0-0.262-0.049-0.471-0.147-0.631c-0.098-0.158-0.224-0.279-0.378-0.363c-0.154-0.084-0.327-0.141-0.518-0.168
				c-0.191-0.027-0.38-0.041-0.567-0.041c-0.504,0-0.924,0.096-1.26,0.287s-0.518,0.553-0.546,1.084h-1.19
				c0.019-0.447,0.112-0.826,0.28-1.135c0.168-0.307,0.392-0.557,0.672-0.748c0.28-0.191,0.6-0.328,0.959-0.412
				s0.744-0.127,1.155-0.127c0.327,0,0.651,0.023,0.973,0.07c0.322,0.047,0.613,0.143,0.875,0.285
				c0.261,0.145,0.471,0.348,0.63,0.609c0.159,0.26,0.238,0.6,0.238,1.02v3.715c0,0.279,0.016,0.484,0.049,0.615
				c0.032,0.131,0.142,0.195,0.329,0.195c0.103,0,0.224-0.018,0.364-0.057V60.047z M191.125,56.336
				c-0.149,0.111-0.345,0.193-0.588,0.244s-0.497,0.092-0.763,0.125s-0.534,0.07-0.805,0.111c-0.271,0.043-0.514,0.109-0.728,0.203
				c-0.215,0.092-0.39,0.225-0.525,0.396s-0.203,0.406-0.203,0.703c0,0.195,0.04,0.359,0.119,0.494
				c0.08,0.135,0.182,0.244,0.308,0.328s0.273,0.145,0.441,0.182s0.345,0.055,0.532,0.055c0.392,0,0.728-0.053,1.008-0.16
				c0.28-0.107,0.509-0.242,0.686-0.404s0.308-0.338,0.392-0.529c0.084-0.189,0.126-0.369,0.126-0.535V56.336z"/>
			<path fill="#667C80" d="M199.595,62.117c-0.542,0.588-1.391,0.883-2.548,0.883c-0.336,0-0.679-0.037-1.029-0.111
				c-0.35-0.076-0.667-0.197-0.952-0.365s-0.52-0.387-0.707-0.658c-0.187-0.27-0.289-0.602-0.308-0.994h1.19
				c0.009,0.215,0.077,0.398,0.203,0.547c0.126,0.148,0.28,0.271,0.462,0.363c0.182,0.094,0.38,0.162,0.595,0.203
				c0.215,0.043,0.42,0.064,0.616,0.064c0.392,0,0.723-0.068,0.994-0.203c0.271-0.137,0.494-0.322,0.672-0.561
				c0.177-0.238,0.306-0.525,0.385-0.861s0.119-0.705,0.119-1.105v-0.477h-0.028c-0.206,0.447-0.516,0.777-0.931,0.986
				c-0.416,0.211-0.856,0.316-1.323,0.316c-0.541,0-1.013-0.098-1.414-0.295c-0.402-0.195-0.738-0.459-1.008-0.791
				c-0.271-0.33-0.474-0.719-0.609-1.162s-0.203-0.912-0.203-1.406c0-0.43,0.056-0.871,0.168-1.324
				c0.112-0.451,0.299-0.861,0.56-1.23s0.606-0.672,1.036-0.91c0.429-0.238,0.957-0.357,1.582-0.357c0.457,0,0.877,0.1,1.26,0.301
				s0.681,0.502,0.896,0.902h0.014v-1.035h1.12v6.621C200.407,60.643,200.136,61.529,199.595,62.117z M198.076,58.863
				c0.275-0.164,0.497-0.379,0.665-0.645s0.292-0.566,0.371-0.902c0.079-0.336,0.119-0.672,0.119-1.008
				c0-0.318-0.037-0.631-0.112-0.939c-0.075-0.307-0.194-0.584-0.357-0.832c-0.164-0.248-0.376-0.445-0.637-0.596
				c-0.261-0.148-0.579-0.223-0.952-0.223c-0.383,0-0.709,0.072-0.98,0.217c-0.271,0.145-0.492,0.338-0.665,0.58
				c-0.173,0.242-0.299,0.523-0.378,0.84c-0.079,0.318-0.119,0.648-0.119,0.994c0,0.328,0.032,0.654,0.098,0.98
				s0.177,0.623,0.336,0.889c0.158,0.266,0.368,0.48,0.63,0.645c0.261,0.164,0.588,0.244,0.98,0.244S197.8,59.027,198.076,58.863z"
				/>
			<path fill="#667C80" d="M202.269,51.533v-1.455h1.19v1.455H202.269z M203.458,52.836v7.238h-1.19v-7.238H203.458z"/>
			<path fill="#667C80" d="M206.427,52.836v1.148h0.028c0.495-0.877,1.279-1.316,2.352-1.316c0.476,0,0.873,0.064,1.19,0.195
				s0.574,0.314,0.77,0.547s0.333,0.512,0.413,0.832c0.079,0.322,0.119,0.68,0.119,1.072v4.76h-1.19v-4.9
				c0-0.447-0.131-0.803-0.392-1.064c-0.262-0.26-0.621-0.391-1.078-0.391c-0.364,0-0.679,0.055-0.945,0.168
				c-0.266,0.111-0.488,0.27-0.665,0.475c-0.178,0.205-0.311,0.447-0.399,0.721c-0.089,0.275-0.133,0.578-0.133,0.904v4.088h-1.19
				v-7.238H206.427z"/>
			<path fill="#667C80" d="M218.214,59.611c-0.542,0.412-1.223,0.617-2.044,0.617c-0.579,0-1.081-0.094-1.505-0.281
				c-0.425-0.186-0.782-0.447-1.071-0.783c-0.29-0.336-0.506-0.736-0.651-1.203c-0.145-0.467-0.227-0.977-0.245-1.527
				c0-0.551,0.084-1.055,0.252-1.512s0.404-0.854,0.707-1.189s0.663-0.598,1.078-0.785c0.415-0.186,0.87-0.279,1.365-0.279
				c0.644,0,1.178,0.133,1.603,0.398s0.766,0.605,1.022,1.016c0.257,0.41,0.434,0.859,0.532,1.344
				c0.098,0.486,0.138,0.947,0.119,1.387h-5.418c-0.01,0.316,0.028,0.617,0.112,0.902s0.219,0.537,0.406,0.756
				c0.187,0.219,0.424,0.395,0.714,0.525c0.289,0.131,0.63,0.195,1.022,0.195c0.504,0,0.917-0.115,1.239-0.35
				c0.322-0.232,0.534-0.588,0.637-1.064h1.176C219.105,58.59,218.755,59.201,218.214,59.611z M217.927,54.965
				c-0.107-0.252-0.252-0.471-0.434-0.652c-0.182-0.182-0.396-0.326-0.644-0.434c-0.247-0.107-0.52-0.16-0.819-0.16
				c-0.308,0-0.586,0.053-0.833,0.16c-0.248,0.107-0.46,0.254-0.637,0.441c-0.178,0.186-0.317,0.404-0.42,0.65
				c-0.103,0.248-0.163,0.512-0.182,0.791h4.158C218.098,55.482,218.035,55.217,217.927,54.965z M216.45,49.295l-1.344,2.268h0.896
				l1.974-2.268H216.45z"/>
			<path fill="#667C80" d="M221.519,58.457c0.112,0.182,0.259,0.326,0.441,0.434s0.387,0.186,0.616,0.23
				c0.229,0.047,0.464,0.07,0.707,0.07c0.187,0,0.383-0.014,0.588-0.041c0.205-0.029,0.394-0.08,0.567-0.154
				c0.172-0.074,0.315-0.184,0.427-0.33c0.112-0.145,0.168-0.328,0.168-0.553c0-0.307-0.117-0.541-0.35-0.699
				c-0.233-0.158-0.525-0.287-0.875-0.385c-0.35-0.098-0.73-0.188-1.141-0.266c-0.411-0.08-0.791-0.191-1.141-0.336
				s-0.642-0.348-0.875-0.609s-0.35-0.625-0.35-1.092c0-0.365,0.082-0.678,0.245-0.939c0.163-0.26,0.373-0.473,0.63-0.637
				c0.257-0.162,0.546-0.283,0.868-0.363c0.322-0.08,0.642-0.119,0.959-0.119c0.411,0,0.789,0.035,1.134,0.105
				s0.651,0.191,0.917,0.363c0.266,0.174,0.479,0.406,0.637,0.701c0.159,0.293,0.252,0.66,0.28,1.098h-1.19
				c-0.019-0.232-0.079-0.426-0.182-0.58c-0.103-0.154-0.233-0.277-0.392-0.371c-0.159-0.094-0.334-0.162-0.525-0.203
				c-0.191-0.043-0.385-0.062-0.581-0.062c-0.178,0-0.357,0.014-0.539,0.041c-0.182,0.027-0.348,0.078-0.497,0.146
				c-0.149,0.07-0.271,0.164-0.364,0.281s-0.14,0.268-0.14,0.455c0,0.205,0.072,0.375,0.217,0.51
				c0.145,0.137,0.329,0.248,0.553,0.336c0.224,0.09,0.476,0.164,0.756,0.225s0.56,0.123,0.84,0.189
				c0.299,0.064,0.59,0.145,0.875,0.238c0.285,0.092,0.537,0.217,0.756,0.371c0.219,0.152,0.396,0.348,0.532,0.58
				c0.135,0.234,0.203,0.523,0.203,0.869c0,0.438-0.091,0.803-0.273,1.092c-0.182,0.289-0.42,0.521-0.714,0.699
				c-0.294,0.178-0.625,0.301-0.994,0.371c-0.369,0.07-0.735,0.105-1.099,0.105c-0.401,0-0.784-0.043-1.148-0.127
				c-0.364-0.084-0.686-0.221-0.966-0.412c-0.28-0.191-0.504-0.443-0.672-0.756s-0.261-0.693-0.28-1.143h1.19
				C221.346,58.053,221.406,58.275,221.519,58.457z"/>
		</g>
	</g>
	<g>
		<g>
			<path fill="#667C80" d="M283.583,60.074v-7.111h-2.576V52.01c0.336,0,0.663-0.025,0.98-0.076
				c0.317-0.053,0.604-0.148,0.861-0.287c0.256-0.141,0.474-0.332,0.651-0.574s0.299-0.551,0.364-0.924h0.91v9.926H283.583z"/>
			<path fill="#667C80" d="M290.038,58.801c0.345,0.26,0.756,0.391,1.232,0.391c0.728,0,1.274-0.314,1.638-0.945
				c0.364-0.629,0.564-1.592,0.602-2.891l-0.028-0.027c-0.224,0.42-0.542,0.754-0.952,1c-0.411,0.248-0.859,0.371-1.344,0.371
				c-0.504,0-0.952-0.08-1.344-0.244s-0.721-0.391-0.987-0.68c-0.266-0.289-0.467-0.639-0.602-1.049
				c-0.136-0.412-0.203-0.859-0.203-1.344c0-0.477,0.079-0.912,0.238-1.311c0.159-0.396,0.383-0.736,0.672-1.021
				c0.289-0.285,0.634-0.506,1.036-0.664c0.401-0.16,0.84-0.238,1.316-0.238c0.467,0,0.905,0.072,1.316,0.217
				c0.41,0.145,0.77,0.395,1.078,0.748c0.308,0.355,0.553,0.838,0.735,1.449c0.182,0.611,0.273,1.389,0.273,2.332
				c0,1.717-0.273,3.035-0.819,3.955c-0.546,0.918-1.421,1.379-2.625,1.379c-0.831,0-1.521-0.211-2.072-0.631
				s-0.863-1.059-0.938-1.918h1.19C289.496,58.166,289.692,58.539,290.038,58.801z M293.167,52.598
				c-0.088-0.27-0.219-0.51-0.392-0.721c-0.173-0.211-0.385-0.375-0.637-0.496c-0.252-0.123-0.546-0.184-0.882-0.184
				c-0.355,0-0.656,0.066-0.903,0.197c-0.247,0.131-0.448,0.305-0.602,0.525c-0.154,0.219-0.266,0.469-0.336,0.748
				c-0.07,0.279-0.105,0.574-0.105,0.883c0,0.27,0.049,0.531,0.147,0.783c0.098,0.252,0.233,0.477,0.406,0.672
				c0.172,0.195,0.378,0.352,0.616,0.469c0.238,0.117,0.502,0.176,0.791,0.176c0.308,0,0.588-0.059,0.84-0.176
				s0.466-0.275,0.644-0.477c0.177-0.199,0.312-0.434,0.406-0.699s0.14-0.543,0.14-0.832
				C293.3,53.158,293.255,52.869,293.167,52.598z"/>
			<path fill="#667C80" d="M301.069,53.102c-0.439,0.682-0.828,1.41-1.169,2.184c-0.341,0.775-0.618,1.574-0.833,2.395
				c-0.215,0.822-0.345,1.619-0.392,2.395h-1.33c0.056-0.84,0.194-1.66,0.413-2.457c0.219-0.799,0.502-1.562,0.847-2.297
				c0.345-0.732,0.744-1.426,1.197-2.078c0.453-0.654,0.94-1.256,1.463-1.807h-5.208v-1.119h6.426v1.021
				C301.979,51.832,301.508,52.42,301.069,53.102z"/>
			<path fill="#667C80" d="M312.312,50.078l3.906,9.996h-1.47l-1.092-3.01h-4.228l-1.12,3.01h-1.358l3.892-9.996H312.312z
				 M313.236,55.943l-1.666-4.662h-0.028l-1.694,4.662H313.236z"/>
			<path fill="#667C80" d="M323.238,51.492c-0.509-0.355-1.113-0.531-1.813-0.531c-0.597,0-1.108,0.111-1.533,0.336
				c-0.425,0.223-0.775,0.523-1.05,0.902c-0.275,0.377-0.478,0.809-0.609,1.295c-0.131,0.484-0.196,0.988-0.196,1.512
				c0,0.57,0.065,1.109,0.196,1.617s0.333,0.951,0.609,1.33c0.275,0.377,0.628,0.68,1.057,0.902c0.429,0.225,0.943,0.336,1.54,0.336
				c0.438,0,0.828-0.072,1.169-0.217s0.635-0.346,0.882-0.602c0.248-0.256,0.441-0.562,0.581-0.918
				c0.14-0.354,0.224-0.736,0.252-1.146h1.33c-0.131,1.26-0.564,2.24-1.302,2.939s-1.746,1.051-3.024,1.051
				c-0.775,0-1.452-0.135-2.03-0.4s-1.059-0.631-1.442-1.098s-0.67-1.018-0.861-1.652c-0.191-0.635-0.287-1.316-0.287-2.045
				s0.103-1.412,0.308-2.051c0.205-0.639,0.506-1.197,0.903-1.672c0.396-0.477,0.891-0.852,1.484-1.127s1.271-0.414,2.037-0.414
				c0.522,0,1.017,0.07,1.484,0.211c0.467,0.139,0.882,0.344,1.246,0.615c0.364,0.271,0.667,0.609,0.91,1.016
				c0.243,0.406,0.401,0.875,0.476,1.406h-1.33C324.076,52.379,323.747,51.848,323.238,51.492z"/>
		</g>
	</g>
	<g>
		<g>
			<path fill="#667C80" d="M560.383,51.443c-0.443-0.322-1.011-0.482-1.701-0.482c-0.28,0-0.555,0.027-0.826,0.084
				c-0.271,0.055-0.511,0.148-0.721,0.279s-0.378,0.305-0.504,0.525c-0.126,0.219-0.189,0.492-0.189,0.818
				c0,0.309,0.091,0.559,0.273,0.748c0.182,0.191,0.424,0.35,0.728,0.471c0.303,0.121,0.646,0.221,1.029,0.301
				c0.382,0.078,0.772,0.166,1.169,0.258c0.396,0.094,0.786,0.203,1.169,0.33c0.383,0.125,0.726,0.297,1.029,0.51
				c0.303,0.215,0.546,0.486,0.728,0.812c0.182,0.326,0.273,0.738,0.273,1.232c0,0.531-0.119,0.986-0.357,1.365
				c-0.238,0.377-0.543,0.686-0.917,0.924c-0.373,0.238-0.791,0.41-1.253,0.518s-0.922,0.162-1.379,0.162
				c-0.56,0-1.09-0.07-1.589-0.211c-0.5-0.141-0.938-0.352-1.316-0.637s-0.677-0.648-0.896-1.092
				c-0.22-0.443-0.329-0.969-0.329-1.576h1.26c0,0.42,0.082,0.783,0.245,1.086c0.163,0.303,0.378,0.553,0.644,0.748
				c0.266,0.197,0.576,0.342,0.931,0.436c0.354,0.092,0.718,0.139,1.092,0.139c0.299,0,0.6-0.027,0.903-0.084
				c0.303-0.055,0.576-0.15,0.819-0.287c0.243-0.135,0.438-0.318,0.588-0.553c0.149-0.232,0.224-0.531,0.224-0.896
				c0-0.344-0.091-0.625-0.273-0.84c-0.182-0.215-0.425-0.389-0.728-0.523c-0.304-0.137-0.646-0.246-1.029-0.33
				s-0.772-0.17-1.169-0.258c-0.396-0.09-0.786-0.191-1.169-0.309s-0.726-0.271-1.029-0.463c-0.304-0.191-0.546-0.438-0.728-0.742
				c-0.182-0.303-0.273-0.684-0.273-1.141c0-0.504,0.103-0.939,0.308-1.309c0.206-0.369,0.479-0.672,0.819-0.91
				c0.34-0.238,0.728-0.416,1.162-0.531c0.434-0.117,0.879-0.176,1.337-0.176c0.513,0,0.989,0.061,1.428,0.182
				s0.824,0.312,1.155,0.574c0.331,0.262,0.592,0.59,0.784,0.986c0.191,0.398,0.296,0.871,0.315,1.422h-1.26
				C561.085,52.285,560.826,51.766,560.383,51.443z"/>
			<path fill="#667C80" d="M564.324,51.533v-1.455h1.19v1.455H564.324z M565.514,52.836v7.238h-1.19v-7.238H565.514z"/>
			<path fill="#667C80" d="M572.794,62.117c-0.542,0.588-1.391,0.883-2.548,0.883c-0.336,0-0.679-0.037-1.029-0.111
				c-0.35-0.076-0.667-0.197-0.952-0.365s-0.52-0.387-0.707-0.658c-0.187-0.27-0.289-0.602-0.308-0.994h1.19
				c0.009,0.215,0.077,0.398,0.203,0.547c0.126,0.148,0.28,0.271,0.462,0.363c0.182,0.094,0.38,0.162,0.595,0.203
				c0.215,0.043,0.42,0.064,0.616,0.064c0.392,0,0.723-0.068,0.994-0.203c0.271-0.137,0.494-0.322,0.672-0.561
				c0.177-0.238,0.306-0.525,0.385-0.861s0.119-0.705,0.119-1.105v-0.477h-0.028c-0.206,0.447-0.516,0.777-0.931,0.986
				c-0.416,0.211-0.856,0.316-1.323,0.316c-0.541,0-1.013-0.098-1.414-0.295c-0.402-0.195-0.738-0.459-1.008-0.791
				c-0.271-0.33-0.474-0.719-0.609-1.162s-0.203-0.912-0.203-1.406c0-0.43,0.056-0.871,0.168-1.324
				c0.112-0.451,0.299-0.861,0.56-1.23s0.606-0.672,1.036-0.91c0.429-0.238,0.957-0.357,1.582-0.357c0.457,0,0.877,0.1,1.26,0.301
				s0.681,0.502,0.896,0.902h0.014v-1.035h1.12v6.621C573.606,60.643,573.335,61.529,572.794,62.117z M571.275,58.863
				c0.275-0.164,0.497-0.379,0.665-0.645s0.292-0.566,0.371-0.902c0.079-0.336,0.119-0.672,0.119-1.008
				c0-0.318-0.037-0.631-0.112-0.939c-0.075-0.307-0.194-0.584-0.357-0.832c-0.164-0.248-0.376-0.445-0.637-0.596
				c-0.261-0.148-0.579-0.223-0.952-0.223c-0.383,0-0.709,0.072-0.98,0.217c-0.271,0.145-0.492,0.338-0.665,0.58
				c-0.173,0.242-0.299,0.523-0.378,0.84c-0.079,0.318-0.119,0.648-0.119,0.994c0,0.328,0.032,0.654,0.098,0.98
				s0.177,0.623,0.336,0.889c0.158,0.266,0.368,0.48,0.63,0.645c0.261,0.164,0.588,0.244,0.98,0.244S571,59.027,571.275,58.863z"/>
			<path fill="#667C80" d="M576.658,50.078v9.996h-1.19v-9.996H576.658z"/>
			<path fill="#667C80" d="M578.337,54.971c0.149-0.461,0.373-0.863,0.672-1.203c0.299-0.342,0.667-0.609,1.106-0.805
				c0.439-0.197,0.943-0.295,1.512-0.295c0.579,0,1.085,0.098,1.519,0.295c0.434,0.195,0.8,0.463,1.099,0.805
				c0.298,0.34,0.522,0.742,0.672,1.203c0.149,0.463,0.224,0.959,0.224,1.492c0,0.531-0.075,1.025-0.224,1.482
				c-0.149,0.459-0.374,0.857-0.672,1.197c-0.299,0.342-0.665,0.607-1.099,0.799s-0.94,0.287-1.519,0.287
				c-0.569,0-1.073-0.096-1.512-0.287c-0.438-0.191-0.807-0.457-1.106-0.799c-0.299-0.34-0.523-0.738-0.672-1.197
				c-0.149-0.457-0.224-0.951-0.224-1.482C578.113,55.93,578.188,55.434,578.337,54.971z M579.548,57.631
				c0.117,0.342,0.278,0.625,0.483,0.854s0.446,0.404,0.721,0.525c0.275,0.121,0.567,0.182,0.875,0.182s0.6-0.061,0.875-0.182
				c0.275-0.121,0.516-0.297,0.721-0.525c0.206-0.229,0.366-0.512,0.483-0.854c0.116-0.34,0.175-0.73,0.175-1.168
				c0-0.439-0.059-0.83-0.175-1.17c-0.117-0.34-0.278-0.627-0.483-0.861c-0.205-0.232-0.446-0.41-0.721-0.531
				c-0.275-0.121-0.567-0.182-0.875-0.182s-0.6,0.061-0.875,0.182c-0.275,0.121-0.516,0.299-0.721,0.531
				c-0.205,0.234-0.366,0.521-0.483,0.861s-0.175,0.73-0.175,1.17C579.374,56.9,579.432,57.291,579.548,57.631z"/>
			<path fill="#667C80" d="M593.051,60.074l-3.514-9.996h1.428l2.856,8.666h0.028l2.884-8.666h1.386l-3.556,9.996H593.051z"/>
			<path fill="#667C80" d="M600.569,50.078v9.996h-1.33v-9.996H600.569z"/>
		</g>
	</g>
	<g>
		<g>
			<path fill="#667C80" d="M771.474,51.598c0.159-0.312,0.373-0.576,0.644-0.791c0.271-0.215,0.582-0.379,0.932-0.49
				c0.35-0.113,0.716-0.168,1.099-0.168c0.542,0,1.003,0.072,1.386,0.217s0.693,0.336,0.932,0.574s0.412,0.508,0.525,0.811
				c0.111,0.305,0.168,0.615,0.168,0.932c0,0.449-0.125,0.857-0.371,1.225c-0.248,0.369-0.582,0.646-1.002,0.834
				c0.598,0.188,1.041,0.492,1.33,0.916c0.289,0.426,0.435,0.945,0.435,1.562c0,0.484-0.087,0.914-0.259,1.287
				c-0.174,0.373-0.406,0.689-0.7,0.945s-0.642,0.451-1.043,0.58c-0.401,0.131-0.831,0.197-1.288,0.197
				c-0.477,0-0.92-0.061-1.33-0.182c-0.41-0.123-0.768-0.309-1.07-0.561c-0.305-0.252-0.542-0.566-0.715-0.945
				s-0.259-0.818-0.259-1.322c0-0.588,0.149-1.1,0.448-1.533c0.299-0.436,0.728-0.75,1.287-0.945
				c-0.42-0.168-0.756-0.441-1.008-0.818c-0.252-0.379-0.377-0.791-0.377-1.24C771.236,52.271,771.314,51.91,771.474,51.598z
				 M772.74,58.682c0.396,0.34,0.903,0.51,1.52,0.51c0.299,0,0.571-0.049,0.818-0.146c0.248-0.098,0.463-0.232,0.645-0.406
				c0.182-0.172,0.322-0.375,0.42-0.609c0.098-0.232,0.146-0.49,0.146-0.77c0-0.27-0.053-0.52-0.16-0.748s-0.254-0.428-0.441-0.596
				c-0.187-0.168-0.404-0.301-0.65-0.398c-0.248-0.098-0.512-0.148-0.791-0.148c-0.29,0-0.562,0.045-0.819,0.135
				c-0.257,0.088-0.481,0.217-0.672,0.385c-0.191,0.168-0.341,0.367-0.448,0.602c-0.107,0.232-0.161,0.494-0.161,0.783
				C772.146,57.871,772.344,58.34,772.74,58.682z M772.636,53.432c0.093,0.199,0.22,0.365,0.378,0.496s0.346,0.229,0.561,0.295
				c0.214,0.064,0.443,0.098,0.686,0.098c0.477,0,0.867-0.141,1.176-0.42c0.309-0.281,0.462-0.672,0.462-1.176
				s-0.156-0.885-0.469-1.143c-0.313-0.256-0.712-0.385-1.197-0.385c-0.233,0-0.457,0.033-0.672,0.1
				c-0.215,0.064-0.399,0.162-0.553,0.293c-0.154,0.131-0.278,0.289-0.371,0.477c-0.093,0.186-0.14,0.406-0.14,0.658
				C772.496,52.994,772.543,53.23,772.636,53.432z"/>
			<path fill="#667C80" d="M781.904,60.074v-7.111h-2.576V52.01c0.336,0,0.662-0.025,0.98-0.076c0.316-0.053,0.604-0.148,0.86-0.287
				c0.257-0.141,0.474-0.332,0.651-0.574c0.177-0.242,0.299-0.551,0.363-0.924h0.91v9.926H781.904z"/>
			<path fill="#667C80" d="M793.104,56.699v1.051h-1.344v2.324h-1.12V57.75h-4.354v-1.148l4.522-6.453h0.952v6.551H793.104z
				 M790.64,51.842h-0.028l-3.304,4.857h3.332V51.842z"/>
		</g>
	</g>
	<g>
		<g>
			<path fill="#667C80" d="M909.228,60.074v-7.111h-2.576V52.01c0.337,0,0.663-0.025,0.98-0.076c0.317-0.053,0.604-0.148,0.86-0.287
				c0.257-0.141,0.475-0.332,0.651-0.574s0.299-0.551,0.364-0.924h0.91v9.926H909.228z"/>
			<path fill="#667C80" d="M913.988,52.262c0.13-0.43,0.333-0.801,0.608-1.113s0.618-0.557,1.029-0.734
				c0.41-0.178,0.877-0.266,1.399-0.266c0.43,0,0.834,0.062,1.211,0.189c0.379,0.125,0.707,0.307,0.987,0.545
				s0.502,0.535,0.665,0.889c0.163,0.355,0.245,0.766,0.245,1.232c0,0.439-0.067,0.826-0.203,1.162s-0.315,0.637-0.539,0.902
				c-0.224,0.268-0.48,0.508-0.771,0.721c-0.289,0.215-0.588,0.422-0.896,0.617c-0.308,0.188-0.616,0.371-0.924,0.553
				s-0.591,0.375-0.847,0.58c-0.258,0.207-0.477,0.428-0.658,0.666s-0.301,0.512-0.357,0.818h5.096v1.051h-6.481
				c0.047-0.588,0.151-1.09,0.315-1.506c0.162-0.414,0.371-0.777,0.623-1.084c0.252-0.309,0.536-0.578,0.854-0.812
				c0.317-0.232,0.648-0.453,0.994-0.658c0.42-0.262,0.789-0.502,1.105-0.721c0.318-0.219,0.582-0.441,0.791-0.664
				c0.211-0.225,0.369-0.467,0.477-0.729s0.16-0.564,0.16-0.91c0-0.271-0.051-0.516-0.153-0.734
				c-0.103-0.221-0.24-0.408-0.413-0.568c-0.173-0.158-0.375-0.279-0.609-0.363c-0.232-0.084-0.48-0.127-0.742-0.127
				c-0.345,0-0.641,0.072-0.889,0.217c-0.247,0.146-0.45,0.334-0.608,0.568c-0.159,0.232-0.273,0.496-0.343,0.791
				c-0.07,0.293-0.102,0.59-0.092,0.889h-1.189C913.806,53.158,913.857,52.691,913.988,52.262z"/>
			<path fill="#667C80" d="M924.795,60.074v-7.111h-2.576V52.01c0.337,0,0.663-0.025,0.98-0.076
				c0.317-0.053,0.604-0.148,0.861-0.287c0.256-0.141,0.474-0.332,0.65-0.574c0.178-0.242,0.299-0.551,0.365-0.924h0.909v9.926
				H924.795z"/>
			<path fill="#667C80" d="M929.402,54.068c0.018-0.393,0.064-0.775,0.139-1.148c0.075-0.373,0.183-0.729,0.322-1.064
				c0.141-0.336,0.332-0.629,0.574-0.881s0.549-0.453,0.917-0.604c0.368-0.148,0.81-0.223,1.323-0.223s0.954,0.074,1.322,0.223
				c0.369,0.15,0.675,0.352,0.918,0.604c0.242,0.252,0.434,0.545,0.574,0.881c0.14,0.336,0.246,0.691,0.321,1.064
				s0.122,0.756,0.14,1.148c0.02,0.393,0.028,0.77,0.028,1.133c0,0.365-0.009,0.742-0.028,1.135
				c-0.018,0.393-0.064,0.775-0.14,1.148s-0.182,0.725-0.321,1.057c-0.141,0.332-0.332,0.623-0.574,0.875
				c-0.243,0.252-0.547,0.451-0.91,0.596c-0.364,0.145-0.808,0.217-1.33,0.217c-0.514,0-0.955-0.072-1.323-0.217
				s-0.675-0.344-0.917-0.596s-0.434-0.543-0.574-0.875c-0.14-0.332-0.247-0.684-0.322-1.057c-0.074-0.373-0.121-0.756-0.139-1.148
				c-0.02-0.393-0.029-0.77-0.029-1.135C929.373,54.838,929.383,54.461,929.402,54.068z M930.668,56.441
				c0.023,0.461,0.099,0.896,0.225,1.301c0.126,0.406,0.329,0.75,0.609,1.029c0.279,0.281,0.672,0.42,1.176,0.42
				s0.896-0.139,1.176-0.42c0.28-0.279,0.482-0.623,0.609-1.029c0.126-0.404,0.2-0.84,0.224-1.301
				c0.023-0.463,0.035-0.881,0.035-1.254c0-0.242-0.003-0.51-0.007-0.805c-0.005-0.293-0.028-0.588-0.07-0.883
				c-0.042-0.293-0.103-0.58-0.182-0.859c-0.08-0.281-0.196-0.525-0.35-0.736c-0.154-0.209-0.349-0.379-0.582-0.51
				c-0.232-0.131-0.518-0.197-0.854-0.197s-0.621,0.066-0.854,0.197c-0.234,0.131-0.428,0.301-0.582,0.51
				c-0.153,0.211-0.271,0.455-0.35,0.736c-0.079,0.279-0.141,0.566-0.182,0.859c-0.043,0.295-0.066,0.59-0.07,0.883
				c-0.005,0.295-0.007,0.562-0.007,0.805C930.634,55.561,930.645,55.979,930.668,56.441z"/>
		</g>
	</g>
	<g>
		<g>
			<path fill="#667C80" d="M992.228,60.074v-7.111h-2.576V52.01c0.337,0,0.663-0.025,0.98-0.076c0.317-0.053,0.604-0.148,0.86-0.287
				c0.257-0.141,0.475-0.332,0.651-0.574s0.299-0.551,0.364-0.924h0.91v9.926H992.228z"/>
			<path fill="#667C80" d="M999.396,54.418c0.046,0,0.092,0,0.139,0h0.252c0.252,0,0.492-0.035,0.722-0.105
				c0.229-0.07,0.429-0.172,0.603-0.307c0.172-0.137,0.31-0.307,0.412-0.512c0.104-0.205,0.154-0.439,0.154-0.699
				c0-0.533-0.168-0.932-0.504-1.197c-0.336-0.268-0.756-0.4-1.26-0.4c-0.318,0-0.596,0.059-0.834,0.176
				c-0.237,0.117-0.434,0.273-0.588,0.469c-0.153,0.195-0.268,0.426-0.342,0.686c-0.075,0.262-0.113,0.537-0.113,0.826h-1.189
				c0.019-0.475,0.096-0.91,0.23-1.301c0.136-0.393,0.33-0.729,0.582-1.008c0.252-0.281,0.566-0.5,0.945-0.658
				c0.377-0.16,0.813-0.238,1.309-0.238c0.429,0,0.828,0.053,1.197,0.16c0.368,0.107,0.688,0.27,0.959,0.482
				c0.27,0.215,0.482,0.49,0.637,0.826s0.23,0.734,0.23,1.191c0,0.447-0.131,0.844-0.392,1.189
				c-0.262,0.346-0.588,0.607-0.979,0.783v0.029c0.605,0.131,1.057,0.414,1.351,0.854s0.44,0.957,0.44,1.555
				c0,0.494-0.091,0.93-0.272,1.309c-0.183,0.377-0.427,0.693-0.735,0.945c-0.308,0.252-0.67,0.439-1.085,0.566
				c-0.415,0.125-0.856,0.189-1.323,0.189c-0.504,0-0.961-0.07-1.371-0.211c-0.411-0.139-0.762-0.348-1.051-0.623
				s-0.511-0.613-0.664-1.014c-0.154-0.402-0.227-0.859-0.218-1.373h1.19c0.018,0.645,0.205,1.17,0.56,1.574
				c0.354,0.406,0.872,0.609,1.554,0.609c0.289,0,0.564-0.043,0.826-0.133c0.262-0.088,0.49-0.215,0.686-0.377
				c0.197-0.164,0.354-0.365,0.47-0.604c0.116-0.236,0.175-0.506,0.175-0.805c0-0.307-0.056-0.58-0.168-0.818
				c-0.111-0.238-0.262-0.439-0.447-0.602c-0.188-0.164-0.409-0.285-0.666-0.365c-0.256-0.078-0.534-0.119-0.832-0.119
				c-0.252,0-0.49,0.016-0.715,0.043v-1.008C999.316,54.414,999.358,54.418,999.396,54.418z"/>
			<path fill="#667C80" d="M1009.279,51.604c-0.289-0.27-0.672-0.406-1.148-0.406c-0.504,0-0.909,0.125-1.217,0.371
				c-0.309,0.248-0.549,0.561-0.722,0.939c-0.173,0.377-0.292,0.785-0.356,1.225c-0.066,0.438-0.104,0.85-0.112,1.232l0.028,0.027
				c0.279-0.457,0.627-0.789,1.043-0.994c0.414-0.205,0.893-0.309,1.435-0.309c0.476,0,0.903,0.082,1.28,0.246
				c0.379,0.162,0.695,0.389,0.953,0.678c0.256,0.291,0.455,0.631,0.595,1.023c0.14,0.391,0.21,0.816,0.21,1.273
				c0,0.363-0.057,0.742-0.168,1.135c-0.112,0.391-0.297,0.748-0.553,1.07c-0.258,0.322-0.598,0.588-1.022,0.797
				c-0.425,0.211-0.95,0.316-1.575,0.316c-0.737,0-1.33-0.15-1.777-0.449c-0.448-0.299-0.794-0.68-1.037-1.146
				c-0.242-0.467-0.403-0.98-0.482-1.541s-0.119-1.102-0.119-1.623c0-0.682,0.059-1.342,0.176-1.982
				c0.116-0.639,0.314-1.205,0.594-1.701c0.281-0.494,0.654-0.891,1.121-1.189s1.055-0.447,1.764-0.447
				c0.821,0,1.475,0.217,1.96,0.65s0.765,1.062,0.84,1.883h-1.19C1009.742,52.234,1009.568,51.875,1009.279,51.604z
				 M1007.123,54.914c-0.252,0.117-0.467,0.275-0.644,0.477s-0.311,0.439-0.399,0.715c-0.088,0.275-0.133,0.566-0.133,0.875
				c0,0.307,0.047,0.598,0.141,0.867c0.093,0.271,0.226,0.504,0.398,0.701c0.173,0.195,0.387,0.352,0.645,0.469
				c0.256,0.115,0.548,0.174,0.875,0.174c0.326,0,0.613-0.059,0.861-0.174c0.246-0.117,0.454-0.277,0.622-0.484
				c0.168-0.205,0.296-0.439,0.386-0.707c0.088-0.266,0.133-0.543,0.133-0.832c0-0.309-0.04-0.6-0.119-0.875
				c-0.08-0.275-0.203-0.514-0.371-0.715c-0.168-0.199-0.378-0.361-0.63-0.482c-0.253-0.121-0.546-0.182-0.882-0.182
				S1007.375,54.799,1007.123,54.914z"/>
			<path fill="#667C80" d="M1012.402,54.068c0.018-0.393,0.064-0.775,0.139-1.148c0.075-0.373,0.183-0.729,0.322-1.064
				c0.141-0.336,0.332-0.629,0.574-0.881s0.549-0.453,0.917-0.604c0.368-0.148,0.81-0.223,1.323-0.223s0.954,0.074,1.322,0.223
				c0.369,0.15,0.675,0.352,0.918,0.604c0.242,0.252,0.434,0.545,0.574,0.881c0.14,0.336,0.246,0.691,0.321,1.064
				s0.122,0.756,0.14,1.148c0.02,0.393,0.028,0.77,0.028,1.133c0,0.365-0.009,0.742-0.028,1.135
				c-0.018,0.393-0.064,0.775-0.14,1.148s-0.182,0.725-0.321,1.057c-0.141,0.332-0.332,0.623-0.574,0.875
				c-0.243,0.252-0.547,0.451-0.91,0.596c-0.364,0.145-0.808,0.217-1.33,0.217c-0.514,0-0.955-0.072-1.323-0.217
				s-0.675-0.344-0.917-0.596s-0.434-0.543-0.574-0.875c-0.14-0.332-0.247-0.684-0.322-1.057c-0.074-0.373-0.121-0.756-0.139-1.148
				c-0.02-0.393-0.029-0.77-0.029-1.135C1012.373,54.838,1012.383,54.461,1012.402,54.068z M1013.668,56.441
				c0.023,0.461,0.099,0.896,0.225,1.301c0.126,0.406,0.329,0.75,0.609,1.029c0.279,0.281,0.672,0.42,1.176,0.42
				s0.896-0.139,1.176-0.42c0.28-0.279,0.482-0.623,0.609-1.029c0.126-0.404,0.2-0.84,0.224-1.301
				c0.023-0.463,0.035-0.881,0.035-1.254c0-0.242-0.003-0.51-0.007-0.805c-0.005-0.293-0.028-0.588-0.07-0.883
				c-0.042-0.293-0.103-0.58-0.182-0.859c-0.08-0.281-0.196-0.525-0.35-0.736c-0.154-0.209-0.349-0.379-0.582-0.51
				c-0.232-0.131-0.518-0.197-0.854-0.197s-0.621,0.066-0.854,0.197c-0.234,0.131-0.428,0.301-0.582,0.51
				c-0.153,0.211-0.271,0.455-0.35,0.736c-0.079,0.279-0.141,0.566-0.182,0.859c-0.043,0.295-0.066,0.59-0.07,0.883
				c-0.005,0.295-0.007,0.562-0.007,0.805C1013.634,55.561,1013.645,55.979,1013.668,56.441z"/>
		</g>
	</g>
	<g>
		<g>
			<path fill="#667C80" d="M1152.228,60.072v-7.111h-2.576V52.01c0.337,0,0.663-0.025,0.98-0.078
				c0.317-0.051,0.604-0.146,0.86-0.287c0.257-0.139,0.475-0.33,0.651-0.574c0.177-0.242,0.299-0.551,0.364-0.924h0.91v9.926
				H1152.228z"/>
			<path fill="#667C80" d="M1161.93,53.102c-0.439,0.682-0.828,1.408-1.169,2.184s-0.618,1.572-0.833,2.395
				c-0.215,0.82-0.346,1.619-0.393,2.393h-1.33c0.057-0.84,0.194-1.658,0.414-2.457c0.219-0.797,0.502-1.562,0.847-2.295
				s0.744-1.426,1.196-2.08c0.453-0.652,0.941-1.254,1.464-1.805h-5.208v-1.121h6.426v1.023
				C1162.84,51.832,1162.368,52.42,1161.93,53.102z"/>
			<path fill="#667C80" d="M1167.795,60.072v-7.111h-2.576V52.01c0.337,0,0.663-0.025,0.98-0.078
				c0.317-0.051,0.604-0.146,0.861-0.287c0.256-0.139,0.474-0.33,0.65-0.574c0.178-0.242,0.299-0.551,0.365-0.924h0.909v9.926
				H1167.795z"/>
			<path fill="#667C80" d="M1174.361,51.365l-0.531,2.855l0.027,0.027c0.215-0.242,0.492-0.422,0.833-0.537
				c0.341-0.117,0.679-0.176,1.015-0.176c0.439,0,0.854,0.07,1.246,0.209c0.393,0.141,0.732,0.354,1.022,0.639
				c0.289,0.283,0.519,0.639,0.687,1.062c0.168,0.426,0.252,0.922,0.252,1.492c0,0.42-0.072,0.828-0.217,1.225
				c-0.146,0.396-0.362,0.748-0.652,1.057c-0.289,0.309-0.65,0.553-1.084,0.734c-0.435,0.184-0.941,0.273-1.52,0.273
				c-0.43,0-0.833-0.062-1.211-0.189c-0.378-0.125-0.712-0.307-1.001-0.545s-0.519-0.535-0.687-0.889
				c-0.168-0.355-0.256-0.756-0.266-1.205h1.19c0.019,0.252,0.081,0.488,0.188,0.707c0.107,0.221,0.252,0.412,0.435,0.574
				c0.182,0.164,0.396,0.289,0.644,0.379c0.248,0.088,0.521,0.133,0.819,0.133c0.28,0,0.548-0.049,0.805-0.146
				c0.257-0.1,0.481-0.246,0.673-0.441c0.19-0.197,0.342-0.441,0.455-0.736c0.111-0.293,0.168-0.637,0.168-1.027
				c0-0.328-0.055-0.629-0.162-0.904s-0.259-0.514-0.455-0.713c-0.195-0.201-0.432-0.357-0.707-0.469
				c-0.275-0.113-0.58-0.168-0.916-0.168c-0.393,0-0.74,0.086-1.043,0.258c-0.304,0.174-0.572,0.398-0.806,0.68l-1.022-0.057
				l0.925-5.152h4.899v1.051H1174.361z"/>
		</g>
	</g>
	<g>
		<g>
			<path fill="#667C80" d="M1227.228,60.074v-7.111h-2.576V52.01c0.337,0,0.663-0.025,0.98-0.076
				c0.317-0.053,0.604-0.148,0.86-0.287c0.257-0.141,0.475-0.332,0.651-0.574s0.299-0.551,0.364-0.924h0.91v9.926H1227.228z"/>
			<path fill="#667C80" d="M1232.365,51.598c0.159-0.312,0.373-0.576,0.645-0.791c0.271-0.215,0.581-0.379,0.932-0.49
				c0.35-0.113,0.715-0.168,1.098-0.168c0.542,0,1.004,0.072,1.387,0.217s0.693,0.336,0.932,0.574
				c0.237,0.238,0.412,0.508,0.524,0.811c0.112,0.305,0.168,0.615,0.168,0.932c0,0.449-0.124,0.857-0.371,1.225
				c-0.247,0.369-0.581,0.646-1.001,0.834c0.598,0.188,1.041,0.492,1.33,0.916c0.289,0.426,0.434,0.945,0.434,1.562
				c0,0.484-0.086,0.914-0.259,1.287s-0.405,0.689-0.7,0.945c-0.293,0.256-0.642,0.451-1.043,0.58
				c-0.4,0.131-0.83,0.197-1.287,0.197c-0.477,0-0.92-0.061-1.33-0.182c-0.411-0.123-0.768-0.309-1.071-0.561
				s-0.542-0.566-0.714-0.945c-0.174-0.379-0.26-0.818-0.26-1.322c0-0.588,0.149-1.1,0.448-1.533
				c0.299-0.436,0.728-0.75,1.288-0.945c-0.42-0.168-0.756-0.441-1.008-0.818c-0.252-0.379-0.378-0.791-0.378-1.24
				C1232.128,52.271,1232.207,51.91,1232.365,51.598z M1233.633,58.682c0.396,0.34,0.902,0.51,1.52,0.51
				c0.298,0,0.57-0.049,0.818-0.146c0.247-0.098,0.462-0.232,0.645-0.406c0.182-0.172,0.322-0.375,0.42-0.609
				c0.098-0.232,0.146-0.49,0.146-0.77c0-0.27-0.054-0.52-0.16-0.748c-0.107-0.229-0.255-0.428-0.441-0.596
				c-0.188-0.168-0.404-0.301-0.651-0.398s-0.511-0.148-0.791-0.148c-0.29,0-0.562,0.045-0.819,0.135
				c-0.256,0.088-0.48,0.217-0.672,0.385s-0.34,0.367-0.447,0.602c-0.107,0.232-0.162,0.494-0.162,0.783
				C1233.037,57.871,1233.236,58.34,1233.633,58.682z M1233.527,53.432c0.094,0.199,0.22,0.365,0.379,0.496
				c0.158,0.131,0.345,0.229,0.56,0.295c0.214,0.064,0.443,0.098,0.687,0.098c0.476,0,0.867-0.141,1.176-0.42
				c0.308-0.281,0.461-0.672,0.461-1.176s-0.156-0.885-0.469-1.143c-0.312-0.256-0.711-0.385-1.197-0.385
				c-0.232,0-0.457,0.033-0.672,0.1c-0.215,0.064-0.398,0.162-0.553,0.293s-0.277,0.289-0.371,0.477
				c-0.093,0.186-0.14,0.406-0.14,0.658C1233.388,52.994,1233.435,53.23,1233.527,53.432z"/>
			<path fill="#667C80" d="M1242.18,54.418c0.047,0,0.093,0,0.14,0h0.252c0.252,0,0.492-0.035,0.722-0.105
				c0.229-0.07,0.429-0.172,0.602-0.307c0.172-0.137,0.311-0.307,0.413-0.512s0.153-0.439,0.153-0.699
				c0-0.533-0.168-0.932-0.504-1.197c-0.336-0.268-0.756-0.4-1.26-0.4c-0.317,0-0.595,0.059-0.833,0.176
				c-0.237,0.117-0.434,0.273-0.588,0.469c-0.153,0.195-0.269,0.426-0.343,0.686c-0.074,0.262-0.112,0.537-0.112,0.826h-1.19
				c0.02-0.475,0.096-0.91,0.231-1.301c0.136-0.393,0.329-0.729,0.581-1.008c0.252-0.281,0.566-0.5,0.945-0.658
				c0.378-0.16,0.814-0.238,1.309-0.238c0.43,0,0.828,0.053,1.197,0.16s0.688,0.27,0.959,0.482c0.271,0.215,0.482,0.49,0.637,0.826
				s0.231,0.734,0.231,1.191c0,0.447-0.131,0.844-0.392,1.189c-0.262,0.346-0.588,0.607-0.98,0.783v0.029
				c0.606,0.131,1.057,0.414,1.352,0.854c0.293,0.439,0.44,0.957,0.44,1.555c0,0.494-0.091,0.93-0.272,1.309
				c-0.183,0.377-0.428,0.693-0.736,0.945c-0.307,0.252-0.669,0.439-1.084,0.566c-0.416,0.125-0.857,0.189-1.323,0.189
				c-0.504,0-0.962-0.07-1.372-0.211c-0.41-0.139-0.761-0.348-1.051-0.623c-0.289-0.275-0.51-0.613-0.664-1.014
				c-0.154-0.402-0.227-0.859-0.217-1.373h1.189c0.019,0.645,0.205,1.17,0.561,1.574c0.354,0.406,0.872,0.609,1.554,0.609
				c0.289,0,0.564-0.043,0.825-0.133c0.262-0.088,0.49-0.215,0.687-0.377c0.196-0.164,0.353-0.365,0.47-0.604
				c0.116-0.236,0.174-0.506,0.174-0.805c0-0.307-0.055-0.58-0.168-0.818c-0.111-0.238-0.261-0.439-0.447-0.602
				c-0.188-0.164-0.408-0.285-0.665-0.365c-0.257-0.078-0.534-0.119-0.833-0.119c-0.252,0-0.49,0.016-0.715,0.043v-1.008
				C1242.1,54.414,1242.143,54.418,1242.18,54.418z"/>
			<path fill="#667C80" d="M1249.964,54.418c0.046,0,0.093,0,0.14,0h0.252c0.252,0,0.492-0.035,0.721-0.105s0.43-0.172,0.603-0.307
				c0.173-0.137,0.31-0.307,0.413-0.512c0.103-0.205,0.154-0.439,0.154-0.699c0-0.533-0.168-0.932-0.504-1.197
				c-0.336-0.268-0.756-0.4-1.261-0.4c-0.317,0-0.595,0.059-0.833,0.176s-0.434,0.273-0.588,0.469s-0.268,0.426-0.343,0.686
				c-0.075,0.262-0.112,0.537-0.112,0.826h-1.189c0.018-0.475,0.096-0.91,0.23-1.301c0.135-0.393,0.329-0.729,0.581-1.008
				c0.252-0.281,0.567-0.5,0.945-0.658c0.378-0.16,0.813-0.238,1.309-0.238c0.429,0,0.829,0.053,1.197,0.16s0.688,0.27,0.959,0.482
				c0.271,0.215,0.483,0.49,0.637,0.826c0.154,0.336,0.231,0.734,0.231,1.191c0,0.447-0.131,0.844-0.393,1.189
				s-0.588,0.607-0.979,0.783v0.029c0.606,0.131,1.057,0.414,1.351,0.854c0.295,0.439,0.441,0.957,0.441,1.555
				c0,0.494-0.092,0.93-0.273,1.309c-0.182,0.377-0.427,0.693-0.734,0.945c-0.309,0.252-0.67,0.439-1.086,0.566
				c-0.414,0.125-0.855,0.189-1.322,0.189c-0.504,0-0.961-0.07-1.372-0.211c-0.411-0.139-0.761-0.348-1.05-0.623
				s-0.512-0.613-0.665-1.014c-0.154-0.402-0.227-0.859-0.218-1.373h1.19c0.019,0.645,0.206,1.17,0.56,1.574
				c0.355,0.406,0.873,0.609,1.555,0.609c0.289,0,0.564-0.043,0.826-0.133c0.261-0.088,0.49-0.215,0.686-0.377
				c0.196-0.164,0.353-0.365,0.469-0.604c0.117-0.236,0.176-0.506,0.176-0.805c0-0.307-0.057-0.58-0.168-0.818
				c-0.112-0.238-0.262-0.439-0.448-0.602c-0.187-0.164-0.409-0.285-0.665-0.365c-0.257-0.078-0.535-0.119-0.833-0.119
				c-0.252,0-0.49,0.016-0.714,0.043v-1.008C1249.885,54.414,1249.926,54.418,1249.964,54.418z"/>
		</g>
	</g>
</g>
<g id="marcadores_interior">
	<circle fill="#1F252C" cx="40.016" cy="15.095" r="12"/>
	<circle fill="#1F252C" cx="165.001" cy="15.075" r="12"/>
	<circle fill="#1F252C" cx="303.001" cy="15.075" r="12"/>
	<circle fill="#1F252C" cx="578.002" cy="15.075" r="12"/>
	<circle fill="#1F252C" cx="782" cy="15.075" r="12"/>
	<circle fill="#1F252C" cx="921.001" cy="15.095" r="11.999"/>
	<circle fill="#1F252C" cx="1004" cy="15.075" r="12"/>
	<circle fill="#1F252C" cx="1164.002" cy="15.075" r="12"/>
	<circle fill="#1F252C" cx="1240" cy="15.075" r="12"/>
</g>
<g id="marcadores_borde">
	<path fill="#D5C6E1" d="M40.016,29.094c-7.72,0-14-6.28-14-13.999c0-7.72,6.28-14.001,14-14.001s14,6.281,14,14.001
		C54.016,22.814,47.735,29.094,40.016,29.094z M40.016,5.094c-5.514,0-10,4.486-10,10.001c0,5.514,4.486,9.999,10,9.999
		s10-4.485,10-9.999C50.016,9.581,45.53,5.094,40.016,5.094z"/>
	<path fill="#C7B3D7" d="M165.001,29.073c-7.72,0-14-6.28-14-13.999c0-7.72,6.281-14,14-14c7.719,0,14,6.281,14,14
		C179.001,22.793,172.721,29.073,165.001,29.073z M165.001,5.074c-5.514,0-10,4.486-10,10c0,5.513,4.486,9.999,10,9.999
		c5.514,0,10-4.485,10-9.999C175.001,9.561,170.515,5.074,165.001,5.074z"/>
	<path fill="#B9A0CD" d="M303.001,29.074c-7.72,0-14-6.28-14-13.999c0-7.72,6.28-14.001,14-14.001s14,6.281,14,14.001
		C317.001,22.794,310.721,29.074,303.001,29.074z M303.001,5.074c-5.514,0-10,4.486-10,10.001c0,5.514,4.486,9.999,10,9.999
		s10-4.485,10-9.999C313.001,9.561,308.516,5.074,303.001,5.074z"/>
	<path fill="#AC8CC3" d="M578.001,29.073c-7.719,0-14-6.28-14-13.999c0-7.72,6.28-14,14-14c7.72,0,14,6.281,14,14
		C592.002,22.793,585.721,29.073,578.001,29.073z M578.001,5.074c-5.514,0-10,4.486-10,10c0,5.513,4.486,9.999,10,9.999
		c5.514,0,10-4.485,10-9.999C588.002,9.561,583.516,5.074,578.001,5.074z"/>
	<path fill="#9E79B9" d="M782.002,29.074c-7.721,0-14.002-6.28-14.002-13.999c0-7.72,6.281-14.001,14.002-14.001
		c7.719,0,13.998,6.281,13.998,14.001C796,22.794,789.721,29.074,782.002,29.074z M782.002,5.074
		C776.487,5.074,772,9.561,772,15.075c0,5.514,4.487,9.999,10.002,9.999c5.513,0,9.998-4.485,9.998-9.999
		C792,9.561,787.515,5.074,782.002,5.074z"/>
	<path fill="#9066AF" d="M921.002,29.094c-7.72,0-14-6.28-14-13.999c0-7.72,6.28-14.001,14-14.001
		c7.719,0,13.998,6.281,13.998,14.001C935,22.814,928.721,29.094,921.002,29.094z M921.002,5.094c-5.514,0-10,4.486-10,10.001
		c0,5.514,4.486,9.999,10,9.999c5.513,0,9.998-4.485,9.998-9.999C931,9.581,926.515,5.094,921.002,5.094z"/>
	<path fill="#8253A5" d="M1004.002,29.074c-7.721,0-14.002-6.28-14.002-13.999c0-7.72,6.281-14.001,14.002-14.001
		c7.719,0,13.998,6.281,13.998,14.001C1018,22.794,1011.721,29.074,1004.002,29.074z M1004.002,5.074
		C998.487,5.074,994,9.561,994,15.075c0,5.514,4.487,9.999,10.002,9.999c5.513,0,9.998-4.485,9.998-9.999
		C1014,9.561,1009.515,5.074,1004.002,5.074z"/>
	<path fill="#74409B" d="M1164.002,29.074c-7.72,0-14-6.28-14-13.999c0-7.72,6.28-14.001,14-14.001s14,6.281,14,14.001
		C1178.002,22.794,1171.722,29.074,1164.002,29.074z M1164.002,5.074c-5.514,0-10,4.486-10,10.001c0,5.514,4.486,9.999,10,9.999
		s10-4.485,10-9.999C1174.002,9.561,1169.516,5.074,1164.002,5.074z"/>
	<path fill="#662D91" d="M1240,29.074c-7.72,0-14-6.28-14-13.999c0-7.72,6.28-14.001,14-14.001s14,6.281,14,14.001
		C1254,22.794,1247.72,29.074,1240,29.074z M1240,5.074c-5.514,0-10,4.486-10,10.001c0,5.514,4.486,9.999,10,9.999
		s10-4.485,10-9.999C1250,9.561,1245.514,5.074,1240,5.074z"/>
</g>
</svg>
